RangeenSColr0.ttx.ufo
<glyph name="dollar" format="2">
  <advance width="356"/>
  <unicode hex="0024"/>
  <outline>
    <contour>
      <point x="216" y="630" type="qcurve"/>
      <point x="220" y="630"/>
      <point x="240" y="613"/>
      <point x="248" y="613" type="qcurve"/>
      <point x="257" y="613"/>
      <point x="271" y="626"/>
      <point x="271" y="635" type="qcurve"/>
      <point x="271" y="650"/>
      <point x="214" y="686"/>
      <point x="214" y="697" type="qcurve"/>
      <point x="214" y="803" type="line"/>
      <point x="214" y="812"/>
      <point x="200" y="825"/>
      <point x="182" y="825"/>
      <point x="169" y="812"/>
      <point x="169" y="803" type="qcurve"/>
      <point x="169" y="701" type="line"/>
      <point x="169" y="700"/>
      <point x="146" y="684"/>
      <point x="121" y="668"/>
      <point x="119" y="666" type="qcurve"/>
      <point x="70" y="617"/>
      <point x="70" y="547" type="qcurve"/>
      <point x="70" y="508"/>
      <point x="109" y="448"/>
      <point x="163" y="407"/>
      <point x="218" y="366"/>
      <point x="257" y="305"/>
      <point x="257" y="266" type="qcurve"/>
      <point x="257" y="258"/>
      <point x="247" y="222"/>
      <point x="247" y="212" type="qcurve"/>
      <point x="247" y="190"/>
      <point x="206" y="156"/>
      <point x="183" y="156" type="qcurve"/>
      <point x="181" y="156"/>
      <point x="181" y="158" type="qcurve"/>
      <point x="181" y="203" type="line"/>
      <point x="181" y="212"/>
      <point x="167" y="225"/>
      <point x="149" y="225"/>
      <point x="136" y="212"/>
      <point x="136" y="203" type="qcurve"/>
      <point x="136" y="170" type="line"/>
      <point x="136" y="168"/>
      <point x="130" y="168"/>
      <point x="113" y="183"/>
      <point x="112" y="186" type="qcurve"/>
      <point x="99" y="233" type="line"/>
      <point x="95" y="249"/>
      <point x="77" y="249" type="qcurve"/>
      <point x="68" y="249"/>
      <point x="55" y="236"/>
      <point x="55" y="227" type="qcurve"/>
      <point x="55" y="223"/>
      <point x="56" y="221" type="qcurve"/>
      <point x="71" y="167" type="line"/>
      <point x="73" y="160"/>
      <point x="105" y="135"/>
      <point x="136" y="113"/>
      <point x="136" y="112" type="qcurve"/>
      <point x="136" y="-1" type="line"/>
      <point x="136" y="-10"/>
      <point x="149" y="-23"/>
      <point x="167" y="-23"/>
      <point x="181" y="-10"/>
      <point x="181" y="-1" type="qcurve"/>
      <point x="181" y="108" type="line"/>
      <point x="211" y="122"/>
      <point x="244" y="141"/>
      <point x="283" y="178"/>
      <point x="301" y="229"/>
      <point x="301" y="265" type="qcurve"/>
      <point x="301" y="309"/>
      <point x="260" y="386"/>
      <point x="209" y="431"/>
      <point x="138" y="492"/>
      <point x="121" y="511" type="qcurve"/>
      <point x="115" y="518"/>
      <point x="115" y="547" type="qcurve"/>
      <point x="115" y="572"/>
      <point x="145" y="647"/>
      <point x="166" y="647" type="qcurve"/>
      <point x="169" y="647"/>
      <point x="169" y="644" type="qcurve"/>
      <point x="169" y="611" type="line"/>
      <point x="169" y="602"/>
      <point x="182" y="589"/>
      <point x="200" y="589"/>
      <point x="214" y="602"/>
      <point x="214" y="611" type="qcurve"/>
      <point x="214" y="627" type="line"/>
      <point x="214" y="630"/>
    </contour>
    <contour>
      <point x="219" y="698" type="line"/>
      <point x="220" y="697"/>
      <point x="233" y="687"/>
      <point x="241" y="681"/>
      <point x="254" y="669"/>
      <point x="263" y="660"/>
      <point x="272" y="649"/>
      <point x="276" y="639"/>
      <point x="276" y="635" type="qcurve"/>
      <point x="276" y="624"/>
      <point x="259" y="608"/>
      <point x="248" y="608" type="qcurve"/>
      <point x="235" y="608"/>
      <point x="219" y="622" type="qcurve"/>
      <point x="219" y="611" type="line"/>
      <point x="219" y="600"/>
      <point x="202" y="584"/>
      <point x="180" y="584"/>
      <point x="164" y="600"/>
      <point x="164" y="611" type="qcurve"/>
      <point x="164" y="639" type="line"/>
      <point x="120" y="605"/>
      <point x="120" y="547" type="qcurve"/>
      <point x="120" y="534"/>
      <point x="126" y="514" type="qcurve"/>
      <point x="143" y="494"/>
      <point x="215" y="433"/>
      <point x="265" y="388"/>
      <point x="306" y="310"/>
      <point x="306" y="265" type="qcurve"/>
      <point x="306" y="124"/>
      <point x="186" y="106" type="qcurve"/>
      <point x="186" y="-1" type="line"/>
      <point x="186" y="-12"/>
      <point x="169" y="-28"/>
      <point x="147" y="-28"/>
      <point x="131" y="-12"/>
      <point x="131" y="-1" type="qcurve"/>
      <point x="131" y="110" type="line"/>
      <point x="112" y="118"/>
      <point x="70" y="151"/>
      <point x="66" y="166" type="qcurve"/>
      <point x="51" y="220" type="line"/>
      <point x="50" y="222"/>
      <point x="50" y="227" type="qcurve"/>
      <point x="50" y="238"/>
      <point x="66" y="254"/>
      <point x="77" y="254" type="qcurve"/>
      <point x="99" y="254"/>
      <point x="104" y="234" type="qcurve"/>
      <point x="117" y="189" type="line"/>
      <point x="119" y="187"/>
      <point x="128" y="178"/>
      <point x="131" y="176" type="qcurve"/>
      <point x="131" y="203" type="line"/>
      <point x="131" y="214"/>
      <point x="147" y="230"/>
      <point x="169" y="230"/>
      <point x="186" y="214"/>
      <point x="186" y="203" type="qcurve"/>
      <point x="186" y="162" type="line"/>
      <point x="242" y="174"/>
      <point x="242" y="212" type="qcurve"/>
      <point x="242" y="222"/>
      <point x="252" y="258"/>
      <point x="252" y="266" type="qcurve"/>
      <point x="252" y="305"/>
      <point x="213" y="365"/>
      <point x="159" y="406"/>
      <point x="104" y="447"/>
      <point x="65" y="508"/>
      <point x="65" y="547" type="qcurve"/>
      <point x="65" y="597"/>
      <point x="121" y="685"/>
      <point x="164" y="703" type="qcurve"/>
      <point x="164" y="803" type="line"/>
      <point x="164" y="814"/>
      <point x="180" y="830"/>
      <point x="202" y="830"/>
      <point x="219" y="814"/>
      <point x="219" y="803" type="qcurve"/>
    </contour>
  </outline>
</glyph>
<glyph name="parenright" format="2">
  <advance width="208"/>
  <unicode hex="0029"/>
  <outline>
    <contour>
      <point x="153" y="458"/>
      <point x="153" y="476"/>
      <point x="153" y="567"/>
      <point x="153" y="618"/>
      <point x="152" y="718"/>
      <point x="147" y="782"/>
      <point x="141" y="870"/>
      <point x="129" y="925"/>
      <point x="114" y="979"/>
      <point x="91" y="1005"/>
      <point x="77" y="1005" type="qcurve"/>
      <point x="68" y="1005"/>
      <point x="55" y="992"/>
      <point x="55" y="974"/>
      <point x="73" y="948"/>
      <point x="76" y="937" type="qcurve"/>
      <point x="98" y="849"/>
      <point x="109" y="644"/>
      <point x="109" y="467" type="qcurve"/>
      <point x="109" y="452"/>
      <point x="109" y="364"/>
      <point x="109" y="327"/>
      <point x="108" y="247"/>
      <point x="106" y="205"/>
      <point x="103" y="137"/>
      <point x="97" y="93"/>
      <point x="89" y="39"/>
      <point x="78" y="-3"/>
      <point x="71" y="-22" type="qcurve"/>
      <point x="70" y="-25"/>
      <point x="55" y="-41"/>
      <point x="55" y="-49" type="qcurve"/>
      <point x="55" y="-58"/>
      <point x="68" y="-71"/>
      <point x="77" y="-71" type="qcurve"/>
      <point x="91" y="-71"/>
      <point x="114" y="-45"/>
      <point x="129" y="9"/>
      <point x="141" y="64"/>
      <point x="147" y="152"/>
      <point x="152" y="216"/>
      <point x="153" y="316"/>
      <point x="153" y="367"/>
    </contour>
    <contour>
      <point x="158" y="479"/>
      <point x="158" y="455"/>
      <point x="159" y="367"/>
      <point x="158" y="312"/>
      <point x="157" y="214"/>
      <point x="153" y="147"/>
      <point x="146" y="60"/>
      <point x="133" y="3"/>
      <point x="116" y="-50"/>
      <point x="92" y="-76"/>
      <point x="77" y="-76" type="qcurve"/>
      <point x="66" y="-76"/>
      <point x="50" y="-60"/>
      <point x="50" y="-49" type="qcurve"/>
      <point x="50" y="-32"/>
      <point x="64" y="-25" type="qcurve"/>
      <point x="74" y="-3"/>
      <point x="88" y="53"/>
      <point x="97" y="129"/>
      <point x="102" y="185"/>
      <point x="104" y="286"/>
      <point x="105" y="333"/>
      <point x="104" y="451"/>
      <point x="104" y="467" type="qcurve"/>
      <point x="104" y="500"/>
      <point x="106" y="657"/>
      <point x="105" y="730"/>
      <point x="98" y="843"/>
      <point x="80" y="924"/>
      <point x="64" y="959" type="qcurve"/>
      <point x="50" y="968"/>
      <point x="50" y="983" type="qcurve"/>
      <point x="50" y="994"/>
      <point x="66" y="1010"/>
      <point x="77" y="1010" type="qcurve"/>
      <point x="92" y="1010"/>
      <point x="116" y="984"/>
      <point x="133" y="931"/>
      <point x="146" y="874"/>
      <point x="153" y="787"/>
      <point x="157" y="720"/>
      <point x="158" y="622"/>
      <point x="159" y="567"/>
    </contour>
  </outline>
</glyph>
<glyph name="one" format="2">
  <advance width="313"/>
  <unicode hex="0031"/>
  <outline>
    <contour>
      <point x="55" y="9"/>
      <point x="55" y="-9"/>
      <point x="68" y="-22"/>
      <point x="77" y="-22" type="qcurve"/>
      <point x="236" y="-22" type="line"/>
      <point x="245" y="-22"/>
      <point x="258" y="-9"/>
      <point x="258" y="9"/>
      <point x="245" y="22"/>
      <point x="236" y="22" type="qcurve"/>
      <point x="182" y="22" type="line"/>
      <point x="179" y="22"/>
      <point x="179" y="25" type="qcurve"/>
      <point x="179" y="411" type="line"/>
      <point x="179" y="420"/>
      <point x="166" y="433"/>
      <point x="157" y="433" type="qcurve"/>
      <point x="147" y="433"/>
      <point x="141" y="427" type="qcurve"/>
      <point x="78" y="365" type="line"/>
      <point x="72" y="359"/>
      <point x="72" y="349" type="qcurve"/>
      <point x="72" y="340"/>
      <point x="85" y="327"/>
      <point x="94" y="327" type="qcurve"/>
      <point x="104" y="327"/>
      <point x="110" y="333" type="qcurve"/>
      <point x="130" y="353" type="line"/>
      <point x="131" y="354"/>
      <point x="132" y="354" type="qcurve"/>
      <point x="135" y="354"/>
      <point x="135" y="351" type="qcurve"/>
      <point x="135" y="25" type="line"/>
      <point x="135" y="22"/>
      <point x="132" y="22" type="qcurve"/>
      <point x="77" y="22" type="line"/>
      <point x="68" y="22"/>
    </contour>
    <contour>
      <point x="263" y="11"/>
      <point x="263" y="-11"/>
      <point x="247" y="-27"/>
      <point x="236" y="-27" type="qcurve"/>
      <point x="77" y="-27" type="line"/>
      <point x="66" y="-27"/>
      <point x="50" y="-11"/>
      <point x="50" y="11"/>
      <point x="66" y="27"/>
      <point x="77" y="27" type="qcurve"/>
      <point x="130" y="27" type="line"/>
      <point x="130" y="345" type="line"/>
      <point x="113" y="329" type="line"/>
      <point x="106" y="322"/>
      <point x="94" y="322" type="qcurve"/>
      <point x="83" y="322"/>
      <point x="67" y="338"/>
      <point x="67" y="360"/>
      <point x="75" y="368" type="qcurve"/>
      <point x="138" y="431" type="line"/>
      <point x="145" y="438"/>
      <point x="157" y="438" type="qcurve"/>
      <point x="168" y="438"/>
      <point x="184" y="422"/>
      <point x="184" y="411" type="qcurve"/>
      <point x="184" y="27" type="line"/>
      <point x="236" y="27" type="line"/>
      <point x="247" y="27"/>
    </contour>
  </outline>
</glyph>
<glyph name="eight" format="2">
  <advance width="270"/>
  <unicode hex="0038"/>
  <outline>
    <contour>
      <point x="135" y="745" type="qcurve"/>
      <point x="104" y="699"/>
      <point x="104" y="582" type="qcurve"/>
      <point x="104" y="466"/>
      <point x="135" y="419" type="qcurve"/>
      <point x="166" y="465"/>
      <point x="166" y="582" type="qcurve"/>
      <point x="166" y="698"/>
    </contour>
    <contour>
      <point x="152" y="412"/>
      <point x="118" y="412"/>
      <point x="99" y="534"/>
      <point x="99" y="630"/>
      <point x="118" y="752"/>
      <point x="152" y="752"/>
      <point x="171" y="630"/>
      <point x="171" y="534"/>
    </contour>
    <contour>
      <point x="215" y="798"/>
      <point x="55" y="798"/>
      <point x="55" y="582" type="qcurve"/>
      <point x="55" y="443"/>
      <point x="95" y="389" type="qcurve"/>
      <point x="95" y="389"/>
      <point x="95" y="388" type="qcurve"/>
      <point x="95" y="381"/>
      <point x="72" y="336"/>
      <point x="70" y="327" type="qcurve"/>
      <point x="55" y="272"/>
      <point x="55" y="194" type="qcurve"/>
      <point x="55" y="-22"/>
      <point x="215" y="-22"/>
      <point x="215" y="194" type="qcurve"/>
      <point x="215" y="333"/>
      <point x="175" y="387" type="qcurve"/>
      <point x="175" y="387"/>
      <point x="175" y="388" type="qcurve"/>
      <point x="175" y="395"/>
      <point x="198" y="440"/>
      <point x="200" y="449" type="qcurve"/>
      <point x="215" y="504"/>
      <point x="215" y="582" type="qcurve"/>
    </contour>
    <contour>
      <point x="220" y="-27"/>
      <point x="50" y="-27"/>
      <point x="50" y="194" type="qcurve"/>
      <point x="50" y="333"/>
      <point x="89" y="388" type="qcurve"/>
      <point x="50" y="443"/>
      <point x="50" y="582" type="qcurve"/>
      <point x="50" y="803"/>
      <point x="220" y="803"/>
      <point x="220" y="582" type="qcurve"/>
      <point x="220" y="443"/>
      <point x="181" y="388" type="qcurve"/>
      <point x="220" y="333"/>
      <point x="220" y="194" type="qcurve"/>
    </contour>
    <contour>
      <point x="135" y="357" type="qcurve"/>
      <point x="104" y="311"/>
      <point x="104" y="194" type="qcurve"/>
      <point x="104" y="78"/>
      <point x="135" y="31" type="qcurve"/>
      <point x="166" y="77"/>
      <point x="166" y="194" type="qcurve"/>
      <point x="166" y="310"/>
    </contour>
    <contour>
      <point x="152" y="24"/>
      <point x="118" y="24"/>
      <point x="99" y="146"/>
      <point x="99" y="242"/>
      <point x="118" y="364"/>
      <point x="152" y="364"/>
      <point x="171" y="242"/>
      <point x="171" y="146"/>
    </contour>
  </outline>
</glyph>
<glyph name="P" format="2">
  <advance width="686"/>
  <unicode hex="0050"/>
  <outline>
    <contour>
      <point x="283" y="620" type="qcurve"/>
      <point x="275" y="620"/>
      <point x="255" y="603"/>
      <point x="252" y="603" type="qcurve"/>
      <point x="250" y="603"/>
      <point x="250" y="605" type="qcurve"/>
      <point x="249" y="671" type="line"/>
      <point x="249" y="680"/>
      <point x="236" y="693"/>
      <point x="218" y="693"/>
      <point x="205" y="680"/>
      <point x="205" y="671" type="qcurve"/>
      <point x="207" y="395" type="line"/>
      <point x="207" y="364"/>
      <point x="215" y="222"/>
      <point x="215" y="185" type="qcurve"/>
      <point x="215" y="171" type="line"/>
      <point x="215" y="19"/>
      <point x="161" y="19" type="qcurve"/>
      <point x="147" y="19"/>
      <point x="108" y="65"/>
      <point x="106" y="80" type="qcurve"/>
      <point x="99" y="145" type="line"/>
      <point x="98" y="153"/>
      <point x="85" y="165"/>
      <point x="77" y="165" type="qcurve"/>
      <point x="68" y="165"/>
      <point x="55" y="152"/>
      <point x="55" y="143" type="qcurve"/>
      <point x="55" y="141" type="line"/>
      <point x="63" y="67" type="line"/>
      <point x="66" y="38"/>
      <point x="129" y="-25"/>
      <point x="161" y="-25" type="qcurve"/>
      <point x="260" y="-25"/>
      <point x="260" y="169" type="qcurve"/>
      <point x="259" y="185" type="line"/>
      <point x="259" y="224"/>
      <point x="251" y="365"/>
      <point x="251" y="396" type="qcurve"/>
      <point x="251" y="514" type="line"/>
      <point x="251" y="516"/>
      <point x="253" y="516" type="qcurve"/>
      <point x="256" y="516"/>
      <point x="256" y="514" type="qcurve"/>
      <point x="268" y="467"/>
      <point x="331" y="400"/>
      <point x="379" y="400" type="qcurve"/>
      <point x="469" y="400"/>
      <point x="631" y="525"/>
      <point x="631" y="614" type="qcurve"/>
      <point x="631" y="741"/>
      <point x="467" y="878"/>
      <point x="335" y="878" type="qcurve"/>
      <point x="269" y="878"/>
      <point x="185" y="864"/>
      <point x="118" y="825"/>
      <point x="88" y="749"/>
      <point x="88" y="689" type="qcurve"/>
      <point x="88" y="663"/>
      <point x="95" y="597"/>
      <point x="120" y="526"/>
      <point x="139" y="526" type="qcurve"/>
      <point x="148" y="526"/>
      <point x="161" y="539"/>
      <point x="161" y="548" type="qcurve"/>
      <point x="161" y="569"/>
      <point x="133" y="665"/>
      <point x="133" y="690" type="qcurve"/>
      <point x="133" y="731"/>
      <point x="151" y="785"/>
      <point x="178" y="815"/>
      <point x="235" y="830"/>
      <point x="288" y="834"/>
      <point x="335" y="834" type="qcurve"/>
      <point x="451" y="834"/>
      <point x="587" y="723"/>
      <point x="587" y="614" type="qcurve"/>
      <point x="587" y="545"/>
      <point x="448" y="444"/>
      <point x="379" y="444" type="qcurve"/>
      <point x="338" y="444"/>
      <point x="293" y="524"/>
      <point x="293" y="570" type="qcurve"/>
      <point x="293" y="572" type="line"/>
      <point x="293" y="577"/>
      <point x="305" y="592"/>
      <point x="305" y="598" type="qcurve"/>
      <point x="305" y="607"/>
      <point x="292" y="620"/>
    </contour>
    <contour>
      <point x="310" y="598" type="qcurve"/>
      <point x="310" y="592"/>
      <point x="298" y="576"/>
      <point x="298" y="572" type="qcurve"/>
      <point x="298" y="570" type="line"/>
      <point x="298" y="526"/>
      <point x="341" y="449"/>
      <point x="379" y="449" type="qcurve"/>
      <point x="446" y="449"/>
      <point x="582" y="548"/>
      <point x="582" y="614" type="qcurve"/>
      <point x="582" y="721"/>
      <point x="449" y="829"/>
      <point x="335" y="829" type="qcurve"/>
      <point x="287" y="829"/>
      <point x="238" y="826"/>
      <point x="181" y="812"/>
      <point x="155" y="783"/>
      <point x="138" y="730"/>
      <point x="138" y="690" type="qcurve"/>
      <point x="138" y="665"/>
      <point x="166" y="569"/>
      <point x="166" y="548" type="qcurve"/>
      <point x="166" y="537"/>
      <point x="150" y="521"/>
      <point x="139" y="521" type="qcurve"/>
      <point x="122" y="521"/>
      <point x="98" y="561"/>
      <point x="87" y="622"/>
      <point x="83" y="670"/>
      <point x="83" y="689" type="qcurve"/>
      <point x="83" y="805"/>
      <point x="202" y="883"/>
      <point x="468" y="883"/>
      <point x="636" y="743"/>
      <point x="636" y="614" type="qcurve"/>
      <point x="636" y="523"/>
      <point x="470" y="395"/>
      <point x="379" y="395" type="qcurve"/>
      <point x="333" y="395"/>
      <point x="271" y="453"/>
      <point x="256" y="496" type="qcurve"/>
      <point x="256" y="396" type="line"/>
      <point x="264" y="209"/>
      <point x="264" y="185" type="qcurve"/>
      <point x="265" y="169" type="line"/>
      <point x="265" y="-30"/>
      <point x="161" y="-30" type="qcurve"/>
      <point x="128" y="-30"/>
      <point x="61" y="38"/>
      <point x="58" y="66" type="qcurve"/>
      <point x="50" y="140" type="line"/>
      <point x="50" y="143" type="line"/>
      <point x="50" y="154"/>
      <point x="66" y="170"/>
      <point x="77" y="170" type="qcurve"/>
      <point x="87" y="170"/>
      <point x="103" y="156"/>
      <point x="104" y="146" type="qcurve"/>
      <point x="111" y="81" type="line"/>
      <point x="115" y="77"/>
      <point x="132" y="45"/>
      <point x="150" y="24"/>
      <point x="161" y="24" type="qcurve"/>
      <point x="210" y="24"/>
      <point x="210" y="171" type="qcurve"/>
      <point x="210" y="185" type="line"/>
      <point x="210" y="220"/>
      <point x="202" y="361"/>
      <point x="202" y="395" type="qcurve"/>
      <point x="200" y="671" type="line"/>
      <point x="200" y="682"/>
      <point x="216" y="698"/>
      <point x="238" y="698"/>
      <point x="254" y="682"/>
      <point x="254" y="671" type="qcurve"/>
      <point x="255" y="613" type="line"/>
      <point x="266" y="625"/>
      <point x="283" y="625" type="qcurve"/>
      <point x="294" y="625"/>
      <point x="310" y="609"/>
    </contour>
  </outline>
</glyph>
<glyph name="X" format="2">
  <advance width="940"/>
  <unicode hex="0058"/>
  <outline>
    <contour>
      <point x="724" y="760" type="qcurve"/>
      <point x="708" y="757"/>
      <point x="562" y="698"/>
      <point x="544" y="684" type="qcurve"/>
      <point x="544" y="680"/>
      <point x="523" y="604" type="qcurve"/>
      <point x="476" y="433"/>
      <point x="476" y="414" type="qcurve"/>
      <point x="485" y="419"/>
      <point x="495" y="426" type="qcurve"/>
      <point x="541" y="458"/>
      <point x="666" y="555"/>
      <point x="686" y="578" type="qcurve"/>
      <point x="686" y="582"/>
      <point x="698" y="630" type="qcurve"/>
      <point x="724" y="739"/>
      <point x="724" y="758" type="qcurve"/>
      <point x="724" y="759"/>
    </contour>
    <contour>
      <point x="538" y="684" type="qcurve"/>
      <point x="538" y="686"/>
      <point x="541" y="689"/>
      <point x="546" y="693"/>
      <point x="550" y="695"/>
      <point x="556" y="698"/>
      <point x="558" y="698" type="qcurve"/>
      <point x="583" y="712"/>
      <point x="716" y="766"/>
      <point x="725" y="766" type="qcurve"/>
      <point x="729" y="766"/>
      <point x="729" y="758" type="qcurve"/>
      <point x="729" y="758"/>
      <point x="729" y="758" type="qcurve"/>
      <point x="729" y="739"/>
      <point x="703" y="629" type="qcurve"/>
      <point x="692" y="581"/>
      <point x="692" y="578" type="qcurve"/>
      <point x="692" y="576"/>
      <point x="681" y="565"/>
      <point x="670" y="555" type="qcurve"/>
      <point x="606" y="499"/>
      <point x="514" y="433" type="qcurve"/>
      <point x="480" y="408"/>
      <point x="475" y="408" type="qcurve"/>
      <point x="471" y="408"/>
      <point x="471" y="414" type="qcurve"/>
      <point x="471" y="414"/>
      <point x="471" y="414" type="qcurve"/>
      <point x="471" y="434"/>
      <point x="518" y="606" type="qcurve"/>
      <point x="538" y="681"/>
    </contour>
    <contour>
      <point x="150" y="524" type="qcurve"/>
      <point x="150" y="533" type="line"/>
      <point x="150" y="552"/>
      <point x="135" y="629"/>
      <point x="135" y="650" type="qcurve"/>
      <point x="135" y="688" type="line"/>
      <point x="135" y="718"/>
      <point x="230" y="754"/>
      <point x="275" y="754" type="qcurve"/>
      <point x="314" y="754"/>
      <point x="345" y="727"/>
      <point x="366" y="672"/>
      <point x="382" y="657" type="qcurve"/>
      <point x="383" y="657"/>
      <point x="383" y="656" type="qcurve"/>
      <point x="393" y="583" type="line"/>
      <point x="388" y="460" type="line"/>
      <point x="388" y="459" type="line"/>
      <point x="339" y="324" type="line"/>
      <point x="339" y="322"/>
      <point x="337" y="322" type="qcurve"/>
      <point x="325" y="315"/>
      <point x="252" y="277"/>
      <point x="201" y="249"/>
      <point x="131" y="202"/>
      <point x="87" y="159"/>
      <point x="55" y="102"/>
      <point x="55" y="74" type="qcurve"/>
      <point x="55" y="37"/>
      <point x="92" y="-47"/>
      <point x="122" y="-47" type="qcurve"/>
      <point x="140" y="-47"/>
      <point x="175" y="-32"/>
      <point x="203" y="-12"/>
      <point x="235" y="26"/>
      <point x="255" y="53"/>
      <point x="283" y="102"/>
      <point x="294" y="124"/>
      <point x="317" y="172"/>
      <point x="319" y="175" type="qcurve"/>
      <point x="367" y="271" type="line"/>
      <point x="367" y="272"/>
      <point x="368" y="272"/>
      <point x="368" y="273" type="qcurve"/>
      <point x="375" y="291" type="line"/>
      <point x="377" y="297"/>
      <point x="433" y="330"/>
      <point x="441" y="330" type="qcurve"/>
      <point x="444" y="330"/>
      <point x="444" y="328" type="qcurve"/>
      <point x="452" y="264"/>
      <point x="499" y="149"/>
      <point x="575" y="57"/>
      <point x="691" y="3"/>
      <point x="761" y="3" type="qcurve"/>
      <point x="885" y="3"/>
      <point x="885" y="116" type="qcurve"/>
      <point x="885" y="131"/>
      <point x="839" y="165"/>
      <point x="822" y="168" type="qcurve"/>
      <point x="786" y="174" type="line"/>
      <point x="782" y="174" type="line"/>
      <point x="773" y="174"/>
      <point x="760" y="161"/>
      <point x="760" y="152" type="qcurve"/>
      <point x="760" y="134"/>
      <point x="778" y="130" type="qcurve"/>
      <point x="809" y="125" type="line"/>
      <point x="814" y="124"/>
      <point x="840" y="107"/>
      <point x="840" y="104" type="qcurve"/>
      <point x="840" y="71"/>
      <point x="799" y="48"/>
      <point x="760" y="48" type="qcurve"/>
      <point x="640" y="48"/>
      <point x="487" y="233"/>
      <point x="487" y="356" type="qcurve"/>
      <point x="487" y="358"/>
      <point x="488" y="358" type="qcurve"/>
      <point x="532" y="386"/>
      <point x="602" y="436"/>
      <point x="684" y="514"/>
      <point x="738" y="592"/>
      <point x="775" y="697"/>
      <point x="775" y="753" type="qcurve"/>
      <point x="775" y="758"/>
      <point x="774" y="782"/>
      <point x="774" y="788" type="qcurve"/>
      <point x="774" y="821"/>
      <point x="731" y="821" type="qcurve"/>
      <point x="726" y="821"/>
      <point x="708" y="819"/>
      <point x="704" y="819" type="qcurve"/>
      <point x="627" y="819"/>
      <point x="519" y="744"/>
      <point x="464" y="612"/>
      <point x="441" y="470"/>
      <point x="441" y="384" type="qcurve"/>
      <point x="441" y="381"/>
      <point x="408" y="361"/>
      <point x="403" y="361" type="qcurve"/>
      <point x="401" y="361"/>
      <point x="401" y="363" type="qcurve"/>
      <point x="401" y="364" type="line"/>
      <point x="431" y="447" type="line"/>
      <point x="432" y="449"/>
      <point x="432" y="454" type="qcurve"/>
      <point x="438" y="583" type="line"/>
      <point x="438" y="587" type="line"/>
      <point x="426" y="671" type="line"/>
      <point x="419" y="720"/>
      <point x="332" y="798"/>
      <point x="275" y="798" type="qcurve"/>
      <point x="210" y="798"/>
      <point x="91" y="742"/>
      <point x="91" y="692" type="qcurve"/>
      <point x="91" y="650" type="line"/>
      <point x="91" y="630"/>
      <point x="105" y="551"/>
      <point x="105" y="532" type="qcurve"/>
      <point x="105" y="528" type="line"/>
      <point x="105" y="517"/>
      <point x="118" y="502"/>
      <point x="128" y="502" type="qcurve"/>
      <point x="137" y="502"/>
      <point x="150" y="515"/>
    </contour>
    <contour>
      <point x="443" y="588" type="line"/>
      <point x="443" y="583" type="line"/>
      <point x="437" y="454" type="line"/>
      <point x="437" y="449"/>
      <point x="436" y="446" type="qcurve"/>
      <point x="408" y="369" type="line"/>
      <point x="432" y="382"/>
      <point x="436" y="385" type="qcurve"/>
      <point x="436" y="459"/>
      <point x="451" y="580"/>
      <point x="491" y="698"/>
      <point x="556" y="777"/>
      <point x="661" y="826"/>
      <point x="731" y="826" type="qcurve"/>
      <point x="752" y="826"/>
      <point x="779" y="807"/>
      <point x="779" y="788" type="qcurve"/>
      <point x="779" y="782"/>
      <point x="780" y="758"/>
      <point x="780" y="753" type="qcurve"/>
      <point x="780" y="697"/>
      <point x="743" y="591"/>
      <point x="688" y="512"/>
      <point x="605" y="433"/>
      <point x="536" y="383"/>
      <point x="492" y="355" type="qcurve"/>
      <point x="498" y="275"/>
      <point x="557" y="142"/>
      <point x="678" y="53"/>
      <point x="760" y="53" type="qcurve"/>
      <point x="799" y="53"/>
      <point x="832" y="72"/>
      <point x="835" y="103" type="qcurve"/>
      <point x="831" y="105"/>
      <point x="812" y="117"/>
      <point x="808" y="120" type="qcurve"/>
      <point x="777" y="125" type="line"/>
      <point x="755" y="128"/>
      <point x="755" y="152" type="qcurve"/>
      <point x="755" y="163"/>
      <point x="771" y="179"/>
      <point x="782" y="179" type="qcurve"/>
      <point x="787" y="179" type="line"/>
      <point x="823" y="173" type="line"/>
      <point x="842" y="169"/>
      <point x="890" y="134"/>
      <point x="890" y="116" type="qcurve"/>
      <point x="890" y="-2"/>
      <point x="761" y="-2" type="qcurve"/>
      <point x="623" y="-2"/>
      <point x="456" y="186"/>
      <point x="439" y="323" type="qcurve"/>
      <point x="419" y="311"/>
      <point x="379" y="289" type="qcurve"/>
      <point x="375" y="275"/>
      <point x="372" y="269" type="qcurve"/>
      <point x="324" y="173" type="line"/>
      <point x="323" y="170"/>
      <point x="293" y="111"/>
      <point x="279" y="86"/>
      <point x="246" y="29"/>
      <point x="220" y="0"/>
      <point x="183" y="-36"/>
      <point x="143" y="-52"/>
      <point x="122" y="-52" type="qcurve"/>
      <point x="89" y="-52"/>
      <point x="50" y="34"/>
      <point x="50" y="74" type="qcurve"/>
      <point x="50" y="103"/>
      <point x="82" y="160"/>
      <point x="126" y="203"/>
      <point x="197" y="252"/>
      <point x="248" y="280"/>
      <point x="322" y="319"/>
      <point x="334" y="326" type="qcurve"/>
      <point x="383" y="460" type="line"/>
      <point x="388" y="583" type="line"/>
      <point x="378" y="654" type="line"/>
      <point x="364" y="668"/>
      <point x="346" y="707"/>
      <point x="337" y="731"/>
      <point x="305" y="749"/>
      <point x="275" y="749" type="qcurve"/>
      <point x="227" y="749"/>
      <point x="151" y="718"/>
      <point x="140" y="688" type="qcurve"/>
      <point x="140" y="650" type="line"/>
      <point x="140" y="629"/>
      <point x="155" y="552"/>
      <point x="155" y="533" type="qcurve"/>
      <point x="155" y="524" type="line"/>
      <point x="155" y="513"/>
      <point x="139" y="497"/>
      <point x="128" y="497" type="qcurve"/>
      <point x="116" y="497"/>
      <point x="100" y="515"/>
      <point x="100" y="528" type="qcurve"/>
      <point x="100" y="532" type="line"/>
      <point x="86" y="582"/>
      <point x="86" y="650" type="qcurve"/>
      <point x="86" y="692" type="line"/>
      <point x="86" y="745"/>
      <point x="207" y="803"/>
      <point x="275" y="803" type="qcurve"/>
      <point x="324" y="803"/>
      <point x="370" y="769"/>
      <point x="403" y="705"/>
      <point x="422" y="689" type="qcurve"/>
      <point x="429" y="683"/>
      <point x="431" y="672" type="qcurve"/>
    </contour>
    <contour>
      <point x="110" y="51"/>
      <point x="110" y="63"/>
      <point x="114" y="87"/>
      <point x="114" y="93" type="qcurve"/>
      <point x="114" y="93"/>
      <point x="114" y="94" type="qcurve"/>
      <point x="121" y="115"/>
      <point x="155" y="156"/>
      <point x="182" y="178"/>
      <point x="237" y="217"/>
      <point x="246" y="224" type="qcurve"/>
      <point x="247" y="224"/>
      <point x="247" y="224" type="qcurve"/>
      <point x="255" y="228"/>
      <point x="269" y="239" type="qcurve"/>
      <point x="280" y="248"/>
      <point x="284" y="248" type="qcurve"/>
      <point x="291" y="248"/>
      <point x="291" y="234" type="qcurve"/>
      <point x="291" y="228"/>
      <point x="290" y="216" type="qcurve"/>
      <point x="291" y="209"/>
      <point x="291" y="203" type="qcurve"/>
      <point x="291" y="180"/>
      <point x="262" y="143"/>
      <point x="223" y="107"/>
      <point x="217" y="92" type="qcurve"/>
      <point x="199" y="47"/>
      <point x="126" y="13" type="qcurve"/>
      <point x="126" y="12"/>
      <point x="125" y="12" type="qcurve"/>
      <point x="123" y="12"/>
      <point x="123" y="14" type="qcurve"/>
      <point x="112" y="47" type="line"/>
    </contour>
    <contour>
      <point x="284" y="216" type="qcurve"/>
      <point x="284" y="220"/>
      <point x="286" y="233"/>
      <point x="286" y="234" type="qcurve"/>
      <point x="286" y="243"/>
      <point x="284" y="243" type="qcurve"/>
      <point x="282" y="243"/>
      <point x="272" y="235" type="qcurve"/>
      <point x="258" y="224"/>
      <point x="249" y="220" type="qcurve"/>
      <point x="240" y="213"/>
      <point x="186" y="174"/>
      <point x="159" y="152"/>
      <point x="126" y="113"/>
      <point x="118" y="93" type="qcurve"/>
      <point x="118" y="86"/>
      <point x="116" y="63"/>
      <point x="116" y="57" type="qcurve"/>
      <point x="116" y="54"/>
      <point x="116" y="49" type="qcurve"/>
      <point x="126" y="18" type="line"/>
      <point x="195" y="51"/>
      <point x="213" y="94" type="qcurve"/>
      <point x="219" y="109"/>
      <point x="257" y="145"/>
      <point x="286" y="182"/>
      <point x="286" y="203" type="qcurve"/>
      <point x="286" y="205"/>
      <point x="284" y="214"/>
    </contour>
  </outline>
</glyph>
<glyph name="underscore" format="2">
  <advance width="698"/>
  <unicode hex="005F"/>
  <outline>
    <contour>
      <point x="77" y="-179" type="line"/>
      <point x="68" y="-179"/>
      <point x="55" y="-192"/>
      <point x="55" y="-210"/>
      <point x="68" y="-223"/>
      <point x="77" y="-223" type="qcurve"/>
      <point x="621" y="-229" type="line"/>
      <point x="630" y="-229"/>
      <point x="643" y="-216"/>
      <point x="643" y="-198"/>
      <point x="630" y="-185"/>
      <point x="621" y="-185" type="qcurve"/>
    </contour>
    <contour>
      <point x="648" y="-196"/>
      <point x="648" y="-218"/>
      <point x="632" y="-234"/>
      <point x="621" y="-234" type="qcurve"/>
      <point x="77" y="-228" type="line"/>
      <point x="66" y="-228"/>
      <point x="50" y="-212"/>
      <point x="50" y="-190"/>
      <point x="66" y="-174"/>
      <point x="77" y="-174" type="qcurve"/>
      <point x="621" y="-180" type="line"/>
      <point x="632" y="-180"/>
    </contour>
  </outline>
</glyph>
<glyph name="b" format="2">
  <advance width="576"/>
  <unicode hex="0062"/>
  <outline>
    <contour>
      <point x="253" y="507" type="qcurve"/>
      <point x="253" y="754"/>
      <point x="185" y="754" type="qcurve"/>
      <point x="176" y="754"/>
      <point x="161" y="746"/>
      <point x="149" y="729"/>
      <point x="140" y="714"/>
      <point x="132" y="687"/>
      <point x="128" y="673"/>
      <point x="122" y="646"/>
      <point x="121" y="644" type="qcurve"/>
      <point x="113" y="611" type="line"/>
      <point x="113" y="610"/>
      <point x="112" y="608"/>
      <point x="112" y="607" type="qcurve"/>
      <point x="111" y="472" type="line"/>
      <point x="111" y="471" type="line"/>
      <point x="120" y="277" type="line"/>
      <point x="121" y="261"/>
      <point x="165" y="236"/>
      <point x="186" y="236" type="qcurve"/>
      <point x="253" y="236"/>
    </contour>
    <contour>
      <point x="257" y="507" type="qcurve"/>
      <point x="257" y="468"/>
      <point x="253" y="391"/>
      <point x="240" y="293"/>
      <point x="209" y="232"/>
      <point x="186" y="232" type="qcurve"/>
      <point x="162" y="232"/>
      <point x="117" y="260"/>
      <point x="116" y="277" type="qcurve"/>
      <point x="107" y="471" type="line"/>
      <point x="107" y="472" type="line"/>
      <point x="108" y="607" type="line"/>
      <point x="108" y="608"/>
      <point x="109" y="611"/>
      <point x="109" y="612" type="qcurve"/>
      <point x="117" y="645" type="line"/>
      <point x="117" y="646"/>
      <point x="125" y="678"/>
      <point x="128" y="690"/>
      <point x="137" y="718"/>
      <point x="146" y="732"/>
      <point x="159" y="750"/>
      <point x="176" y="758"/>
      <point x="185" y="758" type="qcurve"/>
      <point x="257" y="758"/>
    </contour>
    <contour>
      <point x="381" y="-5" type="qcurve"/>
      <point x="426" y="-5"/>
      <point x="497" y="65"/>
      <point x="530" y="160"/>
      <point x="530" y="205" type="qcurve"/>
      <point x="530" y="227" type="line"/>
      <point x="530" y="235"/>
      <point x="522" y="261"/>
      <point x="522" y="267" type="qcurve"/>
      <point x="522" y="270"/>
      <point x="536" y="283"/>
      <point x="537" y="285" type="qcurve"/>
      <point x="567" y="360" type="line"/>
      <point x="569" y="364"/>
      <point x="569" y="366" type="qcurve"/>
      <point x="572" y="402" type="line"/>
      <point x="572" y="404" type="line"/>
      <point x="572" y="413"/>
      <point x="558" y="426"/>
      <point x="549" y="426" type="qcurve"/>
      <point x="529" y="426"/>
      <point x="527" y="406" type="qcurve"/>
      <point x="524" y="374" type="line"/>
      <point x="524" y="373" type="line"/>
      <point x="500" y="313" type="line"/>
      <point x="500" y="311"/>
      <point x="498" y="311" type="qcurve"/>
      <point x="495" y="311"/>
      <point x="480" y="329"/>
      <point x="465" y="351"/>
      <point x="464" y="352" type="qcurve"/>
      <point x="423" y="393"/>
      <point x="345" y="393" type="qcurve"/>
      <point x="323" y="393"/>
      <point x="284" y="348"/>
      <point x="284" y="326" type="qcurve"/>
      <point x="284" y="286"/>
      <point x="352" y="237"/>
      <point x="400" y="237" type="qcurve"/>
      <point x="412" y="237"/>
      <point x="458" y="253"/>
      <point x="471" y="253" type="qcurve"/>
      <point x="477" y="253" type="line"/>
      <point x="485" y="253"/>
      <point x="485" y="227" type="qcurve"/>
      <point x="485" y="210" type="line"/>
      <point x="485" y="152"/>
      <point x="427" y="40"/>
      <point x="381" y="39" type="qcurve"/>
      <point x="349" y="39"/>
      <point x="287" y="46"/>
      <point x="219" y="64"/>
      <point x="177" y="102"/>
      <point x="177" y="128" type="qcurve"/>
      <point x="177" y="144"/>
      <point x="235" y="240"/>
      <point x="238" y="247" type="qcurve"/>
      <point x="285" y="364"/>
      <point x="285" y="490" type="qcurve"/>
      <point x="285" y="496"/>
      <point x="284" y="520"/>
      <point x="284" y="526" type="qcurve"/>
      <point x="284" y="537" type="line"/>
      <point x="284" y="580"/>
      <point x="275" y="670"/>
      <point x="254" y="776"/>
      <point x="207" y="843"/>
      <point x="174" y="843" type="qcurve"/>
      <point x="143" y="843"/>
      <point x="98" y="773"/>
      <point x="77" y="665"/>
      <point x="68" y="570"/>
      <point x="68" y="527" type="qcurve"/>
      <point x="68" y="526" type="line"/>
      <point x="74" y="340" type="line"/>
      <point x="74" y="338" type="line"/>
      <point x="89" y="230" type="line"/>
      <point x="91" y="212"/>
      <point x="125" y="149"/>
      <point x="125" y="134" type="qcurve"/>
      <point x="125" y="116"/>
      <point x="88" y="80"/>
      <point x="42" y="53"/>
      <point x="5" y="18"/>
      <point x="5" y="2" type="qcurve"/>
      <point x="5" y="-7"/>
      <point x="18" y="-20"/>
      <point x="27" y="-20" type="qcurve"/>
      <point x="45" y="-20"/>
      <point x="94" y="32"/>
      <point x="136" y="84"/>
      <point x="145" y="84" type="qcurve"/>
      <point x="147" y="84"/>
      <point x="147" y="83" type="qcurve"/>
      <point x="191" y="-5"/>
    </contour>
    <contour>
      <point x="381" y="44" type="qcurve"/>
      <point x="425" y="45"/>
      <point x="480" y="154"/>
      <point x="480" y="210" type="qcurve"/>
      <point x="480" y="227" type="line"/>
      <point x="480" y="236"/>
      <point x="475" y="248" type="qcurve"/>
      <point x="472" y="248" type="line"/>
      <point x="462" y="247"/>
      <point x="414" y="232"/>
      <point x="400" y="232" type="qcurve"/>
      <point x="350" y="232"/>
      <point x="279" y="284"/>
      <point x="279" y="326" type="qcurve"/>
      <point x="279" y="351"/>
      <point x="321" y="398"/>
      <point x="345" y="398" type="qcurve"/>
      <point x="401" y="398"/>
      <point x="469" y="359"/>
      <point x="497" y="319" type="qcurve"/>
      <point x="519" y="374" type="line"/>
      <point x="522" y="406" type="line"/>
      <point x="523" y="416"/>
      <point x="538" y="431"/>
      <point x="560" y="431"/>
      <point x="577" y="415"/>
      <point x="577" y="404" type="qcurve"/>
      <point x="577" y="402" type="line"/>
      <point x="574" y="366" type="line"/>
      <point x="574" y="364"/>
      <point x="572" y="358" type="qcurve"/>
      <point x="542" y="283" type="line"/>
      <point x="540" y="278"/>
      <point x="528" y="266" type="qcurve"/>
      <point x="535" y="245"/>
      <point x="535" y="227" type="qcurve"/>
      <point x="535" y="205" type="line"/>
      <point x="535" y="129"/>
      <point x="450" y="-10"/>
      <point x="381" y="-10" type="qcurve"/>
      <point x="189" y="-10"/>
      <point x="145" y="77" type="qcurve"/>
      <point x="144" y="76"/>
      <point x="114" y="39"/>
      <point x="96" y="19"/>
      <point x="66" y="-11"/>
      <point x="39" y="-25"/>
      <point x="27" y="-25" type="qcurve"/>
      <point x="16" y="-25"/>
      <point x="0" y="-9"/>
      <point x="0" y="2" type="qcurve"/>
      <point x="0" y="16"/>
      <point x="11" y="24" type="qcurve"/>
      <point x="70" y="69"/>
      <point x="119" y="135" type="qcurve"/>
      <point x="116" y="142"/>
      <point x="101" y="172"/>
      <point x="94" y="188"/>
      <point x="86" y="216"/>
      <point x="84" y="229" type="qcurve"/>
      <point x="69" y="337" type="line"/>
      <point x="69" y="340" type="line"/>
      <point x="63" y="526" type="line"/>
      <point x="63" y="527" type="line"/>
      <point x="63" y="572"/>
      <point x="72" y="668"/>
      <point x="94" y="778"/>
      <point x="141" y="848"/>
      <point x="174" y="848" type="qcurve"/>
      <point x="209" y="848"/>
      <point x="258" y="781"/>
      <point x="280" y="674"/>
      <point x="289" y="582"/>
      <point x="289" y="537" type="qcurve"/>
      <point x="289" y="526" type="line"/>
      <point x="289" y="520"/>
      <point x="290" y="496"/>
      <point x="290" y="490" type="qcurve"/>
      <point x="290" y="292"/>
      <point x="182" y="128" type="qcurve"/>
      <point x="183" y="126"/>
      <point x="191" y="107"/>
      <point x="194" y="102"/>
      <point x="201" y="87"/>
      <point x="207" y="81"/>
      <point x="215" y="72"/>
      <point x="224" y="69"/>
      <point x="229" y="68" type="qcurve"/>
      <point x="244" y="66"/>
      <point x="351" y="44"/>
    </contour>
  </outline>
</glyph>
<glyph name="g" format="2">
  <advance width="470"/>
  <unicode hex="0067"/>
  <outline>
    <contour>
      <point x="268" y="120" type="qcurve"/>
      <point x="309" y="120"/>
      <point x="349" y="181"/>
      <point x="350" y="228" type="qcurve"/>
      <point x="350" y="260"/>
      <point x="346" y="303"/>
      <point x="332" y="360"/>
      <point x="296" y="390"/>
      <point x="268" y="390" type="qcurve"/>
      <point x="199" y="390"/>
      <point x="108" y="256"/>
      <point x="108" y="184" type="qcurve"/>
      <point x="108" y="182" type="line"/>
      <point x="111" y="173" type="line"/>
      <point x="124" y="156" type="line"/>
      <point x="131" y="152"/>
      <point x="154" y="132"/>
      <point x="176" y="120"/>
      <point x="190" y="120" type="qcurve"/>
      <point x="198" y="120"/>
      <point x="231" y="123"/>
      <point x="239" y="123" type="qcurve"/>
      <point x="244" y="123"/>
      <point x="263" y="120"/>
    </contour>
    <contour>
      <point x="354" y="228" type="qcurve"/>
      <point x="353" y="178"/>
      <point x="311" y="115"/>
      <point x="268" y="115" type="qcurve"/>
      <point x="263" y="115"/>
      <point x="244" y="118"/>
      <point x="239" y="118" type="qcurve"/>
      <point x="231" y="118"/>
      <point x="198" y="114"/>
      <point x="190" y="114" type="qcurve"/>
      <point x="172" y="114"/>
      <point x="130" y="139"/>
      <point x="120" y="153" type="qcurve"/>
      <point x="107" y="171" type="line"/>
      <point x="103" y="177"/>
      <point x="103" y="182" type="qcurve"/>
      <point x="104" y="184" type="line"/>
      <point x="104" y="258"/>
      <point x="196" y="394"/>
      <point x="268" y="394" type="qcurve"/>
      <point x="292" y="394"/>
      <point x="327" y="370"/>
      <point x="344" y="339"/>
      <point x="353" y="286"/>
      <point x="354" y="254"/>
    </contour>
    <contour>
      <point x="168" y="79" type="qcurve"/>
      <point x="178" y="79"/>
      <point x="232" y="85"/>
      <point x="247" y="85" type="qcurve"/>
      <point x="253" y="85"/>
      <point x="276" y="84"/>
      <point x="282" y="84" type="qcurve"/>
      <point x="289" y="84"/>
      <point x="321" y="89"/>
      <point x="327" y="89" type="qcurve"/>
      <point x="330" y="89"/>
      <point x="330" y="86" type="qcurve"/>
      <point x="329" y="15" type="line"/>
      <point x="318" y="11"/>
      <point x="255" y="-8"/>
      <point x="217" y="-24"/>
      <point x="171" y="-53"/>
      <point x="148" y="-96"/>
      <point x="148" y="-124" type="qcurve"/>
      <point x="148" y="-173"/>
      <point x="209" y="-243"/>
      <point x="255" y="-243" type="qcurve"/>
      <point x="264" y="-243" type="line"/>
      <point x="274" y="-243" type="line"/>
      <point x="294" y="-243"/>
      <point x="330" y="-217"/>
      <point x="335" y="-201" type="qcurve"/>
      <point x="353" y="-149" type="line"/>
      <point x="353" y="-148"/>
      <point x="354" y="-146" type="qcurve"/>
      <point x="364" y="-86" type="line"/>
      <point x="364" y="-85" type="line"/>
      <point x="372" y="-20" type="line"/>
      <point x="373" y="-14"/>
      <point x="451" y="59"/>
      <point x="455" y="67" type="qcurve"/>
      <point x="463" y="81" type="line"/>
      <point x="466" y="86"/>
      <point x="466" y="92" type="qcurve"/>
      <point x="466" y="101"/>
      <point x="452" y="114"/>
      <point x="443" y="114" type="qcurve"/>
      <point x="432" y="114"/>
      <point x="412" y="90"/>
      <point x="401" y="62"/>
      <point x="385" y="38"/>
      <point x="377" y="38" type="qcurve"/>
      <point x="374" y="38"/>
      <point x="374" y="41" type="qcurve"/>
      <point x="375" y="121" type="line"/>
      <point x="375" y="124"/>
      <point x="382" y="136"/>
      <point x="382" y="140" type="qcurve"/>
      <point x="382" y="143"/>
      <point x="376" y="155"/>
      <point x="376" y="157" type="qcurve"/>
      <point x="376" y="192" type="line"/>
      <point x="376" y="193" type="line"/>
      <point x="370" y="323" type="line"/>
      <point x="368" y="367"/>
      <point x="293" y="436"/>
      <point x="248" y="436" type="qcurve"/>
      <point x="176" y="436"/>
      <point x="83" y="292"/>
      <point x="83" y="209" type="qcurve"/>
      <point x="83" y="183" type="line"/>
      <point x="83" y="166"/>
      <point x="5" y="111"/>
      <point x="5" y="92" type="qcurve"/>
      <point x="5" y="83"/>
      <point x="18" y="70"/>
      <point x="27" y="70" type="qcurve"/>
      <point x="44" y="70"/>
      <point x="81" y="123"/>
      <point x="91" y="123" type="qcurve"/>
      <point x="92" y="123"/>
      <point x="99" y="112"/>
      <point x="107" y="99"/>
      <point x="108" y="98" type="qcurve"/>
      <point x="127" y="79"/>
    </contour>
    <contour>
      <point x="255" y="-248" type="line"/>
      <point x="207" y="-248"/>
      <point x="143" y="-176"/>
      <point x="143" y="-124" type="qcurve"/>
      <point x="143" y="-97"/>
      <point x="160" y="-56"/>
      <point x="181" y="-31"/>
      <point x="224" y="-10"/>
      <point x="253" y="-2"/>
      <point x="311" y="13"/>
      <point x="324" y="17" type="qcurve"/>
      <point x="325" y="83" type="line"/>
      <point x="308" y="79"/>
      <point x="282" y="79" type="qcurve"/>
      <point x="276" y="79"/>
      <point x="253" y="80"/>
      <point x="247" y="80" type="qcurve"/>
      <point x="232" y="80"/>
      <point x="178" y="74"/>
      <point x="168" y="74" type="qcurve"/>
      <point x="109" y="74"/>
      <point x="90" y="116" type="qcurve"/>
      <point x="88" y="114"/>
      <point x="62" y="82"/>
      <point x="40" y="65"/>
      <point x="27" y="65" type="qcurve"/>
      <point x="16" y="65"/>
      <point x="0" y="81"/>
      <point x="0" y="92" type="qcurve"/>
      <point x="0" y="106"/>
      <point x="31" y="140"/>
      <point x="72" y="176"/>
      <point x="78" y="184" type="qcurve"/>
      <point x="78" y="209" type="line"/>
      <point x="78" y="294"/>
      <point x="173" y="441"/>
      <point x="248" y="441" type="qcurve"/>
      <point x="293" y="441"/>
      <point x="373" y="368"/>
      <point x="375" y="323" type="qcurve"/>
      <point x="381" y="193" type="line"/>
      <point x="381" y="192" type="line"/>
      <point x="381" y="158" type="line"/>
      <point x="387" y="150"/>
      <point x="387" y="140" type="qcurve"/>
      <point x="387" y="133"/>
      <point x="380" y="121" type="qcurve"/>
      <point x="379" y="47" type="line"/>
      <point x="384" y="53"/>
      <point x="406" y="93"/>
      <point x="429" y="119"/>
      <point x="443" y="119" type="qcurve"/>
      <point x="454" y="119"/>
      <point x="471" y="103"/>
      <point x="471" y="92" type="qcurve"/>
      <point x="471" y="86"/>
      <point x="467" y="78" type="qcurve"/>
      <point x="459" y="64" type="line"/>
      <point x="422" y="1"/>
      <point x="376" y="-22" type="qcurve"/>
      <point x="369" y="-85" type="line"/>
      <point x="369" y="-87" type="line"/>
      <point x="359" y="-147" type="line"/>
      <point x="359" y="-149"/>
      <point x="357" y="-151" type="qcurve"/>
      <point x="339" y="-203" type="line"/>
      <point x="333" y="-221"/>
      <point x="295" y="-248"/>
      <point x="274" y="-248" type="qcurve"/>
      <point x="264" y="-248" type="line"/>
    </contour>
    <contour>
      <point x="329" y="-9" type="line"/>
      <point x="322" y="-200"/>
      <point x="214" y="-200" type="qcurve"/>
      <point x="208" y="-200"/>
      <point x="199" y="-197"/>
      <point x="193" y="-190"/>
      <point x="188" y="-184"/>
      <point x="185" y="-172"/>
      <point x="184" y="-165"/>
      <point x="183" y="-150"/>
      <point x="183" y="-143"/>
      <point x="183" y="-127"/>
      <point x="183" y="-125" type="qcurve"/>
      <point x="183" y="-97"/>
      <point x="219" y="-62"/>
      <point x="264" y="-49"/>
      <point x="315" y="-25"/>
      <point x="325" y="-8" type="qcurve"/>
      <point x="325" y="-6"/>
      <point x="327" y="-6" type="qcurve"/>
      <point x="330" y="-6"/>
      <point x="330" y="-9" type="qcurve"/>
    </contour>
    <contour>
      <point x="324" y="-18" type="line"/>
      <point x="311" y="-35"/>
      <point x="239" y="-60"/>
      <point x="188" y="-93"/>
      <point x="188" y="-125" type="qcurve"/>
      <point x="188" y="-178"/>
      <point x="198" y="-189" type="qcurve"/>
      <point x="204" y="-196"/>
      <point x="214" y="-196" type="qcurve"/>
      <point x="256" y="-196"/>
      <point x="290" y="-158"/>
      <point x="307" y="-91"/>
      <point x="321" y="-75" type="qcurve"/>
    </contour>
  </outline>
</glyph>
<glyph name="h" format="2">
  <advance width="651"/>
  <unicode hex="0068"/>
  <outline>
    <contour>
      <point x="257" y="300" type="line"/>
      <point x="257" y="318"/>
      <point x="293" y="393"/>
      <point x="293" y="413" type="qcurve"/>
      <point x="290" y="584" type="line"/>
      <point x="290" y="620"/>
      <point x="282" y="697"/>
      <point x="264" y="790"/>
      <point x="225" y="849"/>
      <point x="198" y="849" type="qcurve"/>
      <point x="188" y="849"/>
      <point x="174" y="833"/>
      <point x="173" y="823" type="qcurve"/>
      <point x="167" y="760" type="line"/>
      <point x="167" y="758" type="line"/>
      <point x="167" y="757" type="line"/>
      <point x="173" y="640" type="line"/>
      <point x="176" y="595"/>
      <point x="210" y="368"/>
      <point x="210" y="308" type="qcurve"/>
      <point x="210" y="307" type="line"/>
      <point x="141" y="157"/>
      <point x="20" y="113" type="qcurve"/>
      <point x="5" y="107"/>
      <point x="5" y="92" type="qcurve"/>
      <point x="5" y="83"/>
      <point x="18" y="70"/>
      <point x="27" y="70" type="qcurve"/>
      <point x="78" y="70"/>
      <point x="182" y="169"/>
      <point x="217" y="224" type="qcurve"/>
      <point x="217" y="226"/>
      <point x="221" y="226"/>
      <point x="221" y="223" type="qcurve"/>
      <point x="224" y="202" type="line"/>
      <point x="224" y="201" type="line"/>
      <point x="224" y="182" type="line"/>
      <point x="224" y="179" type="line"/>
      <point x="233" y="102" type="line"/>
      <point x="239" y="-5" type="line"/>
      <point x="240" y="-14"/>
      <point x="252" y="-26"/>
      <point x="270" y="-26"/>
      <point x="283" y="-14"/>
      <point x="284" y="-6" type="qcurve"/>
      <point x="293" y="95" type="line"/>
      <point x="311" y="187" type="line"/>
      <point x="311" y="191" type="line"/>
      <point x="311" y="192"/>
      <point x="310" y="198"/>
      <point x="310" y="200" type="qcurve"/>
      <point x="310" y="242"/>
      <point x="393" y="390"/>
      <point x="426" y="390" type="qcurve"/>
      <point x="437" y="390"/>
      <point x="455" y="375"/>
      <point x="464" y="343"/>
      <point x="471" y="316"/>
      <point x="473" y="267"/>
      <point x="473" y="245"/>
      <point x="473" y="222" type="qcurve"/>
      <point x="473" y="215"/>
      <point x="473" y="211" type="qcurve"/>
      <point x="473" y="198"/>
      <point x="471" y="145"/>
      <point x="471" y="131" type="qcurve"/>
      <point x="471" y="-20"/>
      <point x="546" y="-20" type="qcurve"/>
      <point x="574" y="-20"/>
      <point x="586" y="-5" type="qcurve"/>
      <point x="631" y="55" type="line"/>
      <point x="632" y="56"/>
      <point x="632" y="56" type="qcurve"/>
      <point x="632" y="58"/>
      <point x="633" y="58" type="qcurve"/>
      <point x="645" y="82" type="line"/>
      <point x="647" y="85"/>
      <point x="647" y="92" type="qcurve"/>
      <point x="647" y="101"/>
      <point x="633" y="114"/>
      <point x="624" y="114" type="qcurve"/>
      <point x="609" y="114"/>
      <point x="604" y="102" type="qcurve"/>
      <point x="593" y="80" type="line"/>
      <point x="554" y="27" type="line"/>
      <point x="551" y="24"/>
      <point x="547" y="24" type="qcurve"/>
      <point x="516" y="24"/>
      <point x="516" y="131" type="qcurve"/>
      <point x="516" y="144"/>
      <point x="518" y="197"/>
      <point x="518" y="210" type="qcurve"/>
      <point x="518" y="245"/>
      <point x="516" y="291"/>
      <point x="507" y="361"/>
      <point x="489" y="403"/>
      <point x="454" y="435"/>
      <point x="429" y="435" type="qcurve"/>
      <point x="406" y="435"/>
      <point x="365" y="412"/>
      <point x="338" y="381"/>
      <point x="310" y="328"/>
      <point x="296" y="293"/>
      <point x="274" y="235"/>
      <point x="271" y="227" type="qcurve"/>
      <point x="271" y="225"/>
      <point x="268" y="225" type="qcurve"/>
      <point x="266" y="225"/>
      <point x="266" y="228" type="qcurve"/>
    </contour>
    <contour>
      <point x="546" y="-25" type="qcurve"/>
      <point x="466" y="-25"/>
      <point x="466" y="131" type="qcurve"/>
      <point x="466" y="145"/>
      <point x="468" y="198"/>
      <point x="468" y="211" type="qcurve"/>
      <point x="468" y="216"/>
      <point x="468" y="226" type="qcurve"/>
      <point x="468" y="271"/>
      <point x="466" y="318"/>
      <point x="446" y="375"/>
      <point x="426" y="385" type="qcurve"/>
      <point x="391" y="372"/>
      <point x="315" y="245"/>
      <point x="315" y="200" type="qcurve"/>
      <point x="315" y="198"/>
      <point x="316" y="192"/>
      <point x="316" y="190"/>
      <point x="315" y="187"/>
      <point x="315" y="186" type="qcurve"/>
      <point x="298" y="94" type="line"/>
      <point x="289" y="-6" type="line"/>
      <point x="288" y="-16"/>
      <point x="272" y="-31"/>
      <point x="250" y="-31"/>
      <point x="235" y="-16"/>
      <point x="234" y="-6" type="qcurve"/>
      <point x="228" y="102" type="line"/>
      <point x="219" y="179" type="line"/>
      <point x="219" y="182" type="line"/>
      <point x="219" y="201" type="line"/>
      <point x="217" y="216" type="line"/>
      <point x="181" y="161"/>
      <point x="78" y="65"/>
      <point x="27" y="65" type="qcurve"/>
      <point x="16" y="65"/>
      <point x="0" y="81"/>
      <point x="0" y="92" type="qcurve"/>
      <point x="0" y="111"/>
      <point x="18" y="118" type="qcurve"/>
      <point x="137" y="161"/>
      <point x="205" y="308" type="qcurve"/>
      <point x="201" y="341"/>
      <point x="189" y="464"/>
      <point x="186" y="488" type="qcurve"/>
      <point x="168" y="638" type="line"/>
      <point x="168" y="640" type="line"/>
      <point x="162" y="757" type="line"/>
      <point x="162" y="758" type="line"/>
      <point x="162" y="761" type="line"/>
      <point x="168" y="824" type="line"/>
      <point x="170" y="836"/>
      <point x="186" y="854"/>
      <point x="198" y="854" type="qcurve"/>
      <point x="225" y="854"/>
      <point x="265" y="792"/>
      <point x="285" y="699"/>
      <point x="295" y="618"/>
      <point x="295" y="584" type="qcurve"/>
      <point x="298" y="413" type="line"/>
      <point x="298" y="403"/>
      <point x="294" y="380"/>
      <point x="284" y="352"/>
      <point x="278" y="337"/>
      <point x="263" y="303"/>
      <point x="262" y="300" type="qcurve"/>
      <point x="270" y="237" type="line"/>
      <point x="274" y="247"/>
      <point x="296" y="304"/>
      <point x="310" y="338"/>
      <point x="338" y="389"/>
      <point x="365" y="418"/>
      <point x="406" y="440"/>
      <point x="429" y="440" type="qcurve"/>
      <point x="455" y="440"/>
      <point x="493" y="407"/>
      <point x="511" y="364"/>
      <point x="521" y="292"/>
      <point x="523" y="245"/>
      <point x="523" y="210" type="qcurve"/>
      <point x="523" y="197"/>
      <point x="521" y="144"/>
      <point x="521" y="131" type="qcurve"/>
      <point x="521" y="29"/>
      <point x="547" y="29" type="qcurve"/>
      <point x="548" y="29"/>
      <point x="548" y="30" type="qcurve"/>
      <point x="549" y="30"/>
      <point x="550" y="31" type="qcurve"/>
      <point x="589" y="83" type="line"/>
      <point x="600" y="104" type="line"/>
      <point x="607" y="119"/>
      <point x="624" y="119" type="qcurve"/>
      <point x="635" y="119"/>
      <point x="652" y="103"/>
      <point x="652" y="92" type="qcurve"/>
      <point x="652" y="86"/>
      <point x="649" y="80" type="qcurve"/>
      <point x="637" y="56" type="line"/>
      <point x="636" y="55"/>
      <point x="636" y="54" type="qcurve"/>
      <point x="636" y="52"/>
      <point x="635" y="52" type="qcurve"/>
      <point x="590" y="-8" type="line"/>
      <point x="576" y="-25"/>
    </contour>
  </outline>
</glyph>
<glyph name="r" format="2">
  <advance width="474"/>
  <unicode hex="0072"/>
  <outline>
    <contour>
      <point x="27" y="121" type="qcurve"/>
      <point x="42" y="121"/>
      <point x="61" y="95"/>
      <point x="70" y="63"/>
      <point x="88" y="37"/>
      <point x="102" y="37" type="qcurve"/>
      <point x="110" y="37" type="line"/>
      <point x="176" y="37"/>
      <point x="176" y="133" type="qcurve"/>
      <point x="176" y="187"/>
      <point x="153" y="262" type="qcurve"/>
      <point x="131" y="261" type="line"/>
      <point x="82" y="261"/>
      <point x="15" y="299"/>
      <point x="15" y="339" type="qcurve"/>
      <point x="15" y="384"/>
      <point x="50" y="454"/>
      <point x="87" y="454" type="qcurve"/>
      <point x="95" y="454"/>
      <point x="112" y="448"/>
      <point x="127" y="435"/>
      <point x="139" y="423"/>
      <point x="153" y="400"/>
      <point x="161" y="387"/>
      <point x="173" y="360"/>
      <point x="178" y="350"/>
      <point x="189" y="324"/>
      <point x="189" y="323" type="qcurve"/>
      <point x="227" y="331"/>
      <point x="257" y="346" type="qcurve"/>
      <point x="267" y="405" type="line"/>
      <point x="269" y="418"/>
      <point x="294" y="436"/>
      <point x="309" y="436" type="qcurve"/>
      <point x="311" y="436"/>
      <point x="319" y="437"/>
      <point x="321" y="437" type="qcurve"/>
      <point x="339" y="437"/>
      <point x="358" y="413"/>
      <point x="358" y="394" type="qcurve"/>
      <point x="358" y="350"/>
      <point x="311" y="315" type="qcurve"/>
      <point x="316" y="171" type="line"/>
      <point x="327" y="92" type="line"/>
      <point x="363" y="36" type="line"/>
      <point x="402" y="39" type="line"/>
      <point x="415" y="84" type="line"/>
      <point x="423" y="115"/>
      <point x="447" y="115" type="qcurve"/>
      <point x="458" y="115"/>
      <point x="475" y="99"/>
      <point x="475" y="88" type="qcurve"/>
      <point x="475" y="83"/>
      <point x="468" y="68"/>
      <point x="467" y="66" type="qcurve"/>
      <point x="450" y="5" type="line"/>
      <point x="445" y="-12"/>
      <point x="426" y="-14" type="qcurve"/>
      <point x="351" y="-20" type="line"/>
      <point x="348" y="-20" type="line"/>
      <point x="334" y="-20"/>
      <point x="325" y="-8" type="qcurve"/>
      <point x="277" y="67" type="line"/>
      <point x="275" y="70"/>
      <point x="273" y="78" type="qcurve"/>
      <point x="261" y="165" type="line"/>
      <point x="261" y="168" type="line"/>
      <point x="257" y="286" type="line"/>
      <point x="232" y="277"/>
      <point x="208" y="271" type="qcurve"/>
      <point x="231" y="197"/>
      <point x="231" y="132" type="qcurve"/>
      <point x="231" y="65"/>
      <point x="170" y="-18"/>
      <point x="109" y="-18" type="qcurve"/>
      <point x="69" y="-18"/>
      <point x="0" y="57"/>
      <point x="0" y="94" type="qcurve"/>
      <point x="0" y="105"/>
      <point x="16" y="121"/>
    </contour>
    <contour>
      <point x="202" y="272" type="qcurve"/>
      <point x="202" y="273"/>
      <point x="255" y="292"/>
      <point x="259" y="292" type="qcurve"/>
      <point x="262" y="292"/>
      <point x="262" y="290" type="qcurve"/>
      <point x="266" y="168" type="line"/>
      <point x="266" y="166" type="line"/>
      <point x="278" y="79" type="line"/>
      <point x="278" y="76"/>
      <point x="282" y="70" type="qcurve"/>
      <point x="330" y="-5" type="line"/>
      <point x="337" y="-15"/>
      <point x="348" y="-15" type="qcurve"/>
      <point x="350" y="-15" type="line"/>
      <point x="425" y="-9" type="line"/>
      <point x="441" y="-7"/>
      <point x="445" y="7" type="qcurve"/>
      <point x="462" y="68" type="line"/>
      <point x="463" y="70"/>
      <point x="470" y="83"/>
      <point x="470" y="88" type="qcurve"/>
      <point x="470" y="97"/>
      <point x="456" y="110"/>
      <point x="447" y="110" type="qcurve"/>
      <point x="429" y="110"/>
      <point x="420" y="82" type="qcurve"/>
      <point x="407" y="36" type="line"/>
      <point x="407" y="34"/>
      <point x="404" y="34" type="qcurve"/>
      <point x="362" y="31" type="line"/>
      <point x="361" y="31" type="line"/>
      <point x="359" y="31"/>
      <point x="359" y="32" type="qcurve"/>
      <point x="322" y="90" type="line"/>
      <point x="322" y="91" type="line"/>
      <point x="311" y="171" type="line"/>
      <point x="306" y="316" type="line"/>
      <point x="306" y="318"/>
      <point x="307" y="318" type="qcurve"/>
      <point x="353" y="352"/>
      <point x="353" y="394" type="qcurve"/>
      <point x="353" y="432"/>
      <point x="321" y="432" type="qcurve"/>
      <point x="319" y="432"/>
      <point x="311" y="431"/>
      <point x="309" y="431" type="qcurve"/>
      <point x="296" y="431"/>
      <point x="274" y="414"/>
      <point x="272" y="404" type="qcurve"/>
      <point x="262" y="344" type="line"/>
      <point x="261" y="337"/>
      <point x="200" y="317"/>
      <point x="188" y="317" type="qcurve"/>
      <point x="178" y="317"/>
      <point x="154" y="358"/>
      <point x="135" y="408"/>
      <point x="104" y="449"/>
      <point x="87" y="449" type="qcurve"/>
      <point x="53" y="449"/>
      <point x="20" y="382"/>
      <point x="20" y="339" type="qcurve"/>
      <point x="20" y="301"/>
      <point x="84" y="266"/>
      <point x="131" y="266" type="qcurve"/>
      <point x="135" y="266"/>
      <point x="151" y="267"/>
      <point x="155" y="267" type="qcurve"/>
      <point x="165" y="267"/>
      <point x="181" y="159"/>
      <point x="181" y="133" type="qcurve"/>
      <point x="181" y="32"/>
      <point x="110" y="32" type="qcurve"/>
      <point x="102" y="32" type="line"/>
      <point x="87" y="32"/>
      <point x="68" y="58"/>
      <point x="59" y="90"/>
      <point x="41" y="116"/>
      <point x="27" y="116" type="qcurve"/>
      <point x="18" y="116"/>
      <point x="5" y="103"/>
      <point x="5" y="94" type="qcurve"/>
      <point x="5" y="59"/>
      <point x="71" y="-13"/>
      <point x="109" y="-13" type="qcurve"/>
      <point x="168" y="-13"/>
      <point x="226" y="67"/>
      <point x="226" y="132" type="qcurve"/>
      <point x="226" y="160"/>
      <point x="202" y="252"/>
    </contour>
    <contour>
      <point x="96" y="414" type="qcurve"/>
      <point x="104" y="414"/>
      <point x="124" y="381"/>
      <point x="124" y="372" type="qcurve"/>
      <point x="124" y="371" type="line"/>
      <point x="125" y="370" type="line"/>
      <point x="125" y="368"/>
      <point x="124" y="361"/>
      <point x="124" y="359" type="qcurve"/>
      <point x="124" y="351"/>
      <point x="136" y="329"/>
      <point x="136" y="323" type="qcurve"/>
      <point x="136" y="287"/>
      <point x="113" y="287" type="qcurve"/>
      <point x="105" y="287"/>
      <point x="89" y="294" type="qcurve"/>
      <point x="88" y="294" type="line"/>
      <point x="77" y="294"/>
      <point x="65" y="330"/>
      <point x="65" y="344" type="qcurve"/>
      <point x="65" y="367"/>
      <point x="79" y="414"/>
    </contour>
    <contour>
      <point x="120" y="372" type="line"/>
      <point x="120" y="378"/>
      <point x="101" y="410"/>
      <point x="96" y="410" type="qcurve"/>
      <point x="83" y="410"/>
      <point x="70" y="366"/>
      <point x="70" y="344" type="qcurve"/>
      <point x="70" y="314"/>
      <point x="89" y="298" type="qcurve"/>
      <point x="90" y="298" type="line"/>
      <point x="95" y="298"/>
      <point x="110" y="292"/>
      <point x="113" y="292" type="qcurve"/>
      <point x="131" y="292"/>
      <point x="131" y="323" type="qcurve"/>
      <point x="131" y="329"/>
      <point x="119" y="352"/>
      <point x="119" y="359" type="qcurve"/>
      <point x="119" y="361"/>
      <point x="120" y="368"/>
      <point x="120" y="370" type="qcurve"/>
    </contour>
  </outline>
</glyph>
<glyph name="x" format="2">
  <advance width="504"/>
  <unicode hex="0078"/>
  <outline>
    <contour>
      <point x="390" y="371" type="qcurve"/>
      <point x="364" y="371"/>
      <point x="333" y="318"/>
      <point x="333" y="286" type="qcurve"/>
      <point x="333" y="276"/>
      <point x="342" y="276" type="qcurve"/>
      <point x="386" y="276"/>
      <point x="411" y="315" type="qcurve"/>
      <point x="434" y="350"/>
      <point x="441" y="379" type="qcurve"/>
      <point x="393" y="371"/>
    </contour>
    <contour>
      <point x="323" y="286" type="qcurve"/>
      <point x="323" y="322"/>
      <point x="360" y="381"/>
      <point x="390" y="381" type="qcurve"/>
      <point x="396" y="381"/>
      <point x="440" y="390"/>
      <point x="445" y="390" type="qcurve"/>
      <point x="446" y="390" type="line"/>
      <point x="453" y="390"/>
      <point x="453" y="384" type="qcurve"/>
      <point x="453" y="342"/>
      <point x="388" y="266"/>
      <point x="342" y="266" type="qcurve"/>
      <point x="334" y="266"/>
      <point x="323" y="278"/>
    </contour>
    <contour>
      <point x="107" y="294" type="qcurve"/>
      <point x="107" y="300"/>
      <point x="95" y="330"/>
      <point x="95" y="337" type="qcurve"/>
      <point x="95" y="388"/>
      <point x="138" y="388" type="qcurve"/>
      <point x="176" y="388"/>
      <point x="243" y="325"/>
      <point x="243" y="285" type="qcurve"/>
      <point x="243" y="255"/>
      <point x="215" y="205"/>
      <point x="175" y="171"/>
      <point x="135" y="136"/>
      <point x="107" y="87"/>
      <point x="107" y="57" type="qcurve"/>
      <point x="107" y="44"/>
      <point x="144" y="18"/>
      <point x="162" y="18" type="qcurve"/>
      <point x="207" y="18"/>
      <point x="207" y="89" type="qcurve"/>
      <point x="207" y="114"/>
      <point x="244" y="181"/>
      <point x="268" y="181" type="qcurve"/>
      <point x="273" y="181"/>
      <point x="273" y="173" type="qcurve"/>
      <point x="273" y="172" type="line"/>
      <point x="273" y="170"/>
      <point x="272" y="165"/>
      <point x="272" y="164" type="qcurve"/>
      <point x="272" y="103"/>
      <point x="311" y="17"/>
      <point x="355" y="17" type="qcurve"/>
      <point x="367" y="17"/>
      <point x="407" y="13"/>
      <point x="419" y="13" type="qcurve"/>
      <point x="450" y="13"/>
      <point x="498" y="63"/>
      <point x="498" y="93" type="qcurve"/>
      <point x="498" y="101"/>
      <point x="486" y="113"/>
      <point x="478" y="113" type="qcurve"/>
      <point x="464" y="113"/>
      <point x="450" y="83"/>
      <point x="435" y="53"/>
      <point x="419" y="53" type="qcurve"/>
      <point x="407" y="53"/>
      <point x="367" y="57"/>
      <point x="355" y="57" type="qcurve"/>
      <point x="312" y="57"/>
      <point x="312" y="165" type="qcurve"/>
      <point x="312" y="199"/>
      <point x="325" y="206" type="qcurve"/>
      <point x="336" y="219"/>
      <point x="391" y="253"/>
      <point x="436" y="281"/>
      <point x="473" y="345"/>
      <point x="475" y="389" type="qcurve"/>
      <point x="475" y="403"/>
      <point x="456" y="424"/>
      <point x="442" y="424" type="qcurve"/>
      <point x="335" y="424"/>
      <point x="292" y="292" type="qcurve"/>
      <point x="291" y="288"/>
      <point x="288" y="288" type="qcurve"/>
      <point x="286" y="288"/>
      <point x="267" y="331"/>
      <point x="245" y="379"/>
      <point x="241" y="383" type="qcurve"/>
      <point x="196" y="428"/>
      <point x="139" y="428" type="qcurve"/>
      <point x="100" y="428"/>
      <point x="55" y="378"/>
      <point x="55" y="337" type="qcurve"/>
      <point x="55" y="330"/>
      <point x="66" y="294"/>
      <point x="66" y="288" type="qcurve"/>
      <point x="66" y="257"/>
      <point x="9" y="129"/>
      <point x="9" y="98" type="qcurve"/>
      <point x="9" y="89"/>
      <point x="22" y="73"/>
      <point x="40" y="73"/>
      <point x="51" y="86"/>
      <point x="51" y="93" type="qcurve"/>
      <point x="51" y="94"/>
      <point x="49" y="100"/>
      <point x="49" y="102" type="qcurve"/>
      <point x="49" y="134"/>
      <point x="107" y="262"/>
    </contour>
    <contour>
      <point x="57" y="117" type="qcurve"/>
      <point x="57" y="114"/>
      <point x="60" y="103"/>
      <point x="60" y="100" type="qcurve"/>
      <point x="60" y="98" type="line"/>
      <point x="59" y="96" type="line"/>
      <point x="61" y="96"/>
      <point x="61" y="94" type="qcurve"/>
      <point x="61" y="93" type="line"/>
      <point x="61" y="82"/>
      <point x="43" y="63"/>
      <point x="31" y="63" type="qcurve"/>
      <point x="17" y="63"/>
      <point x="-1" y="84"/>
      <point x="-1" y="98" type="qcurve"/>
      <point x="-1" y="134"/>
      <point x="51" y="268"/>
      <point x="55" y="287" type="qcurve"/>
      <point x="45" y="304"/>
      <point x="45" y="337" type="qcurve"/>
      <point x="45" y="382"/>
      <point x="96" y="438"/>
      <point x="139" y="438" type="qcurve"/>
      <point x="191" y="438"/>
      <point x="279" y="365"/>
      <point x="290" y="314" type="qcurve"/>
      <point x="337" y="434"/>
      <point x="442" y="434" type="qcurve"/>
      <point x="460" y="434"/>
      <point x="485" y="407"/>
      <point x="485" y="389" type="qcurve"/>
      <point x="485" y="353"/>
      <point x="458" y="293"/>
      <point x="405" y="247"/>
      <point x="362" y="219"/>
      <point x="329" y="202" type="qcurve"/>
      <point x="322" y="192"/>
      <point x="322" y="165" type="qcurve"/>
      <point x="322" y="130"/>
      <point x="338" y="67"/>
      <point x="355" y="67" type="qcurve"/>
      <point x="367" y="67"/>
      <point x="407" y="63"/>
      <point x="419" y="63" type="qcurve"/>
      <point x="434" y="63"/>
      <point x="459" y="123"/>
      <point x="478" y="123" type="qcurve"/>
      <point x="490" y="123"/>
      <point x="508" y="105"/>
      <point x="508" y="93" type="qcurve"/>
      <point x="508" y="58"/>
      <point x="455" y="3"/>
      <point x="419" y="3" type="qcurve"/>
      <point x="407" y="3"/>
      <point x="367" y="7"/>
      <point x="355" y="7" type="qcurve"/>
      <point x="305" y="7"/>
      <point x="262" y="100"/>
      <point x="262" y="164" type="qcurve"/>
      <point x="262" y="168" type="line"/>
      <point x="243" y="156"/>
      <point x="217" y="112"/>
      <point x="217" y="89" type="qcurve"/>
      <point x="217" y="8"/>
      <point x="162" y="8" type="qcurve"/>
      <point x="139" y="8"/>
      <point x="97" y="38"/>
      <point x="97" y="57" type="qcurve"/>
      <point x="97" y="94"/>
      <point x="140" y="155"/>
      <point x="190" y="191"/>
      <point x="233" y="249"/>
      <point x="233" y="321"/>
      <point x="171" y="378"/>
      <point x="138" y="378" type="qcurve"/>
      <point x="120" y="378"/>
      <point x="105" y="359"/>
      <point x="105" y="337" type="qcurve"/>
      <point x="105" y="331"/>
      <point x="117" y="301"/>
      <point x="117" y="294" type="qcurve"/>
      <point x="117" y="266"/>
      <point x="57" y="146"/>
    </contour>
    <contour>
      <point x="166" y="36" type="qcurve"/>
      <point x="137" y="36"/>
      <point x="137" y="48" type="qcurve"/>
      <point x="137" y="49" type="line"/>
      <point x="143" y="66" type="line"/>
      <point x="145" y="71"/>
      <point x="153" y="101"/>
      <point x="161" y="124"/>
      <point x="173" y="150"/>
      <point x="190" y="165"/>
      <point x="200" y="165" type="qcurve"/>
      <point x="203" y="165"/>
      <point x="203" y="162" type="qcurve"/>
      <point x="203" y="154"/>
      <point x="190" y="120"/>
      <point x="190" y="112" type="qcurve"/>
      <point x="190" y="107"/>
      <point x="194" y="85"/>
      <point x="194" y="78" type="qcurve"/>
      <point x="194" y="36"/>
    </contour>
    <contour>
      <point x="142" y="49" type="line"/>
      <point x="152" y="41"/>
      <point x="166" y="41" type="qcurve"/>
      <point x="189" y="41"/>
      <point x="189" y="78" type="qcurve"/>
      <point x="189" y="85"/>
      <point x="185" y="106"/>
      <point x="185" y="112" type="qcurve"/>
      <point x="185" y="121"/>
      <point x="196" y="152"/>
      <point x="197" y="158" type="qcurve"/>
      <point x="176" y="149"/>
      <point x="151" y="71"/>
      <point x="147" y="64" type="qcurve"/>
    </contour>
    <contour>
      <point x="162" y="13" type="qcurve"/>
      <point x="147" y="13"/>
      <point x="137" y="18" type="qcurve"/>
      <point x="147" y="13"/>
    </contour>
    <contour>
      <point x="102" y="57" type="qcurve"/>
      <point x="102" y="72"/>
      <point x="105" y="84" type="qcurve"/>
      <point x="102" y="72"/>
    </contour>
    <contour>
      <point x="54" y="102" type="line"/>
      <point x="54" y="101" type="line"/>
    </contour>
    <contour>
      <point x="56" y="92" type="line"/>
    </contour>
    <contour>
      <point x="61" y="288" type="line"/>
      <point x="61" y="293"/>
      <point x="50" y="328"/>
      <point x="50" y="337" type="qcurve"/>
    </contour>
    <contour>
      <point x="139" y="433" type="line"/>
    </contour>
    <contour>
      <point x="407" y="425" type="qcurve"/>
      <point x="431" y="429"/>
      <point x="442" y="429" type="qcurve"/>
      <point x="429" y="429"/>
    </contour>
  </outline>
</glyph>
<glyph name="y" format="2">
  <advance width="415"/>
  <unicode hex="0079"/>
  <outline>
    <contour>
      <point x="194" y="-159" type="line"/>
      <point x="194" y="-136"/>
      <point x="215" y="-96"/>
      <point x="246" y="-68"/>
      <point x="277" y="-40"/>
      <point x="298" y="-5"/>
      <point x="298" y="14" type="qcurve"/>
      <point x="298" y="95"/>
      <point x="286" y="148" type="qcurve"/>
      <point x="246" y="114"/>
      <point x="190" y="114" type="qcurve"/>
      <point x="163" y="114"/>
      <point x="129" y="154"/>
      <point x="123" y="180" type="qcurve"/>
      <point x="122" y="177"/>
      <point x="109" y="155"/>
      <point x="98" y="137"/>
      <point x="82" y="111"/>
      <point x="68" y="92"/>
      <point x="52" y="73"/>
      <point x="36" y="63"/>
      <point x="30" y="63" type="qcurve"/>
      <point x="17" y="63"/>
      <point x="0" y="82"/>
      <point x="0" y="94" type="qcurve"/>
      <point x="0" y="105"/>
      <point x="7" y="114" type="qcurve"/>
      <point x="79" y="196"/>
      <point x="107" y="274" type="qcurve"/>
      <point x="98" y="330"/>
      <point x="98" y="333" type="qcurve"/>
      <point x="94" y="411" type="line"/>
      <point x="94" y="412" type="line"/>
      <point x="94" y="425"/>
      <point x="115" y="442"/>
      <point x="129" y="442" type="qcurve"/>
      <point x="148" y="442"/>
      <point x="172" y="409"/>
      <point x="180" y="369"/>
      <point x="180" y="347" type="qcurve"/>
      <point x="180" y="317"/>
      <point x="164" y="269" type="qcurve"/>
      <point x="175" y="201" type="line"/>
      <point x="181" y="169"/>
      <point x="189" y="169" type="qcurve"/>
      <point x="192" y="169" type="line"/>
      <point x="246" y="169"/>
      <point x="275" y="220" type="qcurve"/>
      <point x="270" y="250"/>
      <point x="270" y="259" type="qcurve"/>
      <point x="270" y="269" type="line"/>
      <point x="270" y="277"/>
      <point x="266" y="315"/>
      <point x="266" y="324" type="qcurve"/>
      <point x="266" y="347" type="line"/>
      <point x="266" y="441"/>
      <point x="306" y="441" type="qcurve"/>
      <point x="351" y="441"/>
      <point x="351" y="307" type="qcurve"/>
      <point x="351" y="256"/>
      <point x="332" y="212" type="qcurve"/>
      <point x="339" y="177"/>
      <point x="339" y="164" type="qcurve"/>
      <point x="346" y="132"/>
      <point x="350" y="88" type="qcurve"/>
      <point x="351" y="90"/>
      <point x="355" y="96"/>
      <point x="356" y="98" type="qcurve"/>
      <point x="366" y="112" type="line"/>
      <point x="374" y="123"/>
      <point x="388" y="123" type="qcurve"/>
      <point x="399" y="123"/>
      <point x="415" y="107"/>
      <point x="415" y="96" type="qcurve"/>
      <point x="415" y="88"/>
      <point x="410" y="80" type="qcurve"/>
      <point x="401" y="68" type="line"/>
      <point x="378" y="23" type="line"/>
      <point x="374" y="16"/>
      <point x="355" y="-8"/>
      <point x="353" y="-10" type="qcurve"/>
      <point x="353" y="-37"/>
      <point x="345" y="-158"/>
      <point x="345" y="-190" type="qcurve"/>
      <point x="345" y="-191"/>
      <point x="346" y="-197"/>
      <point x="346" y="-199" type="qcurve"/>
      <point x="346" y="-213"/>
      <point x="327" y="-236"/>
      <point x="312" y="-236" type="qcurve"/>
      <point x="307" y="-236" type="line"/>
      <point x="287" y="-238"/>
      <point x="272" y="-238" type="qcurve"/>
      <point x="239" y="-238"/>
      <point x="193" y="-207"/>
      <point x="193" y="-176" type="qcurve"/>
      <point x="193" y="-169"/>
      <point x="194" y="-165" type="qcurve"/>
    </contour>
    <contour>
      <point x="306" y="436" type="qcurve"/>
      <point x="271" y="436"/>
      <point x="271" y="347" type="qcurve"/>
      <point x="271" y="324" type="line"/>
      <point x="271" y="315"/>
      <point x="275" y="278"/>
      <point x="275" y="269" type="qcurve"/>
      <point x="275" y="259" type="line"/>
      <point x="275" y="252"/>
      <point x="280" y="225"/>
      <point x="280" y="219" type="qcurve"/>
      <point x="280" y="197"/>
      <point x="219" y="164"/>
      <point x="192" y="164" type="qcurve"/>
      <point x="189" y="164" type="line"/>
      <point x="176" y="164"/>
      <point x="170" y="200" type="qcurve"/>
      <point x="159" y="268" type="line"/>
      <point x="159" y="269" type="line"/>
      <point x="159" y="281"/>
      <point x="175" y="333"/>
      <point x="175" y="347" type="qcurve"/>
      <point x="175" y="382"/>
      <point x="154" y="437"/>
      <point x="129" y="437" type="qcurve"/>
      <point x="117" y="437"/>
      <point x="99" y="422"/>
      <point x="99" y="412" type="qcurve"/>
      <point x="99" y="411" type="line"/>
      <point x="103" y="333" type="line"/>
      <point x="103" y="324"/>
      <point x="112" y="283"/>
      <point x="112" y="273" type="qcurve"/>
      <point x="112" y="264"/>
      <point x="105" y="241"/>
      <point x="97" y="222"/>
      <point x="79" y="195"/>
      <point x="68" y="179"/>
      <point x="45" y="150"/>
      <point x="36" y="140"/>
      <point x="12" y="112"/>
      <point x="11" y="111" type="qcurve"/>
      <point x="5" y="103"/>
      <point x="5" y="94" type="qcurve"/>
      <point x="5" y="83"/>
      <point x="19" y="68"/>
      <point x="30" y="68" type="qcurve"/>
      <point x="44" y="68"/>
      <point x="71" y="106"/>
      <point x="90" y="151"/>
      <point x="114" y="189"/>
      <point x="124" y="189" type="qcurve"/>
      <point x="126" y="189"/>
      <point x="143" y="154"/>
      <point x="172" y="119"/>
      <point x="190" y="119" type="qcurve"/>
      <point x="212" y="119"/>
      <point x="277" y="155"/>
      <point x="288" y="155" type="qcurve"/>
      <point x="303" y="155"/>
      <point x="303" y="14" type="qcurve"/>
      <point x="303" y="-10"/>
      <point x="270" y="-54"/>
      <point x="232" y="-85"/>
      <point x="199" y="-133"/>
      <point x="199" y="-159" type="qcurve"/>
      <point x="199" y="-165" type="line"/>
      <point x="199" y="-167"/>
      <point x="198" y="-174"/>
      <point x="198" y="-176" type="qcurve"/>
      <point x="198" y="-205"/>
      <point x="240" y="-233"/>
      <point x="272" y="-233" type="qcurve"/>
      <point x="279" y="-233"/>
      <point x="302" y="-231"/>
      <point x="307" y="-231" type="qcurve"/>
      <point x="312" y="-231" type="line"/>
      <point x="325" y="-231"/>
      <point x="341" y="-212"/>
      <point x="341" y="-199" type="qcurve"/>
      <point x="341" y="-197"/>
      <point x="340" y="-191"/>
      <point x="340" y="-190" type="qcurve"/>
      <point x="340" y="-38"/>
      <point x="374" y="26" type="qcurve"/>
      <point x="397" y="70" type="line"/>
      <point x="406" y="83" type="line"/>
      <point x="410" y="88"/>
      <point x="410" y="96" type="qcurve"/>
      <point x="410" y="105"/>
      <point x="397" y="118"/>
      <point x="388" y="118" type="qcurve"/>
      <point x="376" y="118"/>
      <point x="370" y="109" type="qcurve"/>
      <point x="360" y="95" type="line"/>
      <point x="358" y="93"/>
      <point x="358" y="92" type="qcurve"/>
      <point x="350" y="78" type="line"/>
      <point x="350" y="76"/>
      <point x="348" y="76" type="qcurve"/>
      <point x="347" y="76"/>
      <point x="337" y="138"/>
      <point x="327" y="206"/>
      <point x="327" y="212" type="qcurve"/>
      <point x="327" y="226"/>
      <point x="346" y="291"/>
      <point x="346" y="307" type="qcurve"/>
      <point x="346" y="436"/>
    </contour>
    <contour>
      <point x="237" y="-182" type="qcurve"/>
      <point x="237" y="-159"/>
      <point x="289" y="-46"/>
      <point x="307" y="-46" type="qcurve"/>
      <point x="309" y="-46"/>
      <point x="309" y="-48" type="qcurve"/>
      <point x="318" y="-74" type="line"/>
      <point x="318" y="-75" type="line"/>
      <point x="316" y="-138" type="line"/>
      <point x="315" y="-163"/>
      <point x="287" y="-220"/>
      <point x="267" y="-220" type="qcurve"/>
      <point x="252" y="-220"/>
      <point x="237" y="-198"/>
    </contour>
    <contour>
      <point x="306" y="-55" type="line"/>
      <point x="302" y="-61"/>
      <point x="271" y="-104"/>
      <point x="257" y="-126"/>
      <point x="242" y="-165"/>
      <point x="242" y="-182" type="qcurve"/>
      <point x="242" y="-214"/>
      <point x="267" y="-214" type="qcurve"/>
      <point x="283" y="-214"/>
      <point x="298" y="-188"/>
      <point x="307" y="-145"/>
      <point x="312" y="-137" type="qcurve"/>
      <point x="313" y="-75" type="line"/>
    </contour>
  </outline>
</glyph>
<glyph name="z" format="2">
  <advance width="432"/>
  <unicode hex="007A"/>
  <outline>
    <contour>
      <point x="189" y="-244" type="qcurve"/>
      <point x="132" y="-244"/>
      <point x="132" y="-163" type="qcurve"/>
      <point x="132" y="-163"/>
      <point x="132" y="-153" type="qcurve"/>
      <point x="132" y="-153"/>
      <point x="132" y="-143" type="qcurve"/>
      <point x="132" y="-123"/>
      <point x="142" y="-88"/>
      <point x="165" y="-58"/>
      <point x="186" y="-35"/>
      <point x="224" y="-11"/>
      <point x="246" y="2"/>
      <point x="290" y="25"/>
      <point x="298" y="29" type="qcurve"/>
      <point x="274" y="56"/>
      <point x="232" y="56" type="qcurve"/>
      <point x="225" y="56"/>
      <point x="195" y="51"/>
      <point x="188" y="51" type="qcurve"/>
      <point x="172" y="51"/>
      <point x="148" y="72"/>
      <point x="148" y="87" type="qcurve"/>
      <point x="148" y="125"/>
      <point x="197" y="208"/>
      <point x="259" y="270"/>
      <point x="322" y="347"/>
      <point x="333" y="378" type="qcurve"/>
      <point x="334" y="385"/>
      <point x="338" y="392" type="qcurve"/>
      <point x="322" y="391"/>
      <point x="202" y="366"/>
      <point x="201" y="361" type="qcurve"/>
      <point x="201" y="358"/>
      <point x="202" y="346"/>
      <point x="202" y="343" type="qcurve"/>
      <point x="202" y="290"/>
      <point x="164" y="167"/>
      <point x="80" y="67"/>
      <point x="27" y="67" type="qcurve"/>
      <point x="16" y="67"/>
      <point x="0" y="83"/>
      <point x="0" y="94" type="qcurve"/>
      <point x="0" y="106"/>
      <point x="31" y="130"/>
      <point x="73" y="152"/>
      <point x="79" y="158" type="qcurve"/>
      <point x="111" y="190"/>
      <point x="147" y="291"/>
      <point x="147" y="344" type="qcurve"/>
      <point x="147" y="347"/>
      <point x="146" y="359"/>
      <point x="146" y="362" type="qcurve"/>
      <point x="146" y="364" type="line"/>
      <point x="127" y="365"/>
      <point x="109" y="367"/>
      <point x="80" y="375"/>
      <point x="66" y="393"/>
      <point x="66" y="406" type="qcurve"/>
      <point x="66" y="429"/>
      <point x="118" y="456"/>
      <point x="146" y="456" type="qcurve"/>
      <point x="185" y="456"/>
      <point x="198" y="417" type="qcurve"/>
      <point x="225" y="417"/>
      <point x="345" y="451"/>
      <point x="383" y="451" type="qcurve"/>
      <point x="394" y="451"/>
      <point x="411" y="435"/>
      <point x="411" y="424" type="qcurve"/>
      <point x="411" y="382"/>
      <point x="363" y="289"/>
      <point x="302" y="221"/>
      <point x="231" y="137"/>
      <point x="217" y="111" type="qcurve"/>
      <point x="232" y="111" type="line"/>
      <point x="303" y="111"/>
      <point x="343" y="60" type="qcurve"/>
      <point x="344" y="61"/>
      <point x="365" y="78"/>
      <point x="371" y="82" type="qcurve"/>
      <point x="380" y="104" type="line"/>
      <point x="387" y="121"/>
      <point x="405" y="121" type="qcurve"/>
      <point x="416" y="121"/>
      <point x="433" y="105"/>
      <point x="433" y="94" type="qcurve"/>
      <point x="433" y="90"/>
      <point x="431" y="84" type="qcurve"/>
      <point x="419" y="54" type="line"/>
      <point x="417" y="48"/>
      <point x="403" y="34"/>
      <point x="390" y="24"/>
      <point x="370" y="11"/>
      <point x="367" y="9" type="qcurve"/>
      <point x="369" y="1"/>
      <point x="369" y="-17" type="qcurve"/>
      <point x="369" y="-33" type="line"/>
      <point x="369" y="-42"/>
      <point x="370" y="-76"/>
      <point x="370" y="-84" type="qcurve"/>
      <point x="370" y="-133"/>
      <point x="307" y="-239"/>
      <point x="261" y="-239" type="qcurve"/>
      <point x="249" y="-239"/>
      <point x="201" y="-244"/>
    </contour>
    <contour>
      <point x="345" y="395" type="qcurve"/>
      <point x="345" y="361"/>
      <point x="305" y="296"/>
      <point x="249" y="242"/>
      <point x="193" y="188"/>
      <point x="153" y="121"/>
      <point x="153" y="87" type="qcurve"/>
      <point x="153" y="74"/>
      <point x="174" y="56"/>
      <point x="188" y="56" type="qcurve"/>
      <point x="195" y="56"/>
      <point x="225" y="61"/>
      <point x="232" y="61" type="qcurve"/>
      <point x="252" y="61"/>
      <point x="304" y="43"/>
      <point x="304" y="29" type="qcurve"/>
      <point x="304" y="26"/>
      <point x="244" y="-13"/>
      <point x="180" y="-51"/>
      <point x="178" y="-53" type="qcurve"/>
      <point x="137" y="-89"/>
      <point x="137" y="-143" type="qcurve"/>
      <point x="137" y="-153" type="line"/>
      <point x="137" y="-163" type="line"/>
      <point x="137" y="-239"/>
      <point x="189" y="-239" type="qcurve"/>
      <point x="201" y="-239"/>
      <point x="249" y="-234"/>
      <point x="261" y="-234" type="qcurve"/>
      <point x="304" y="-234"/>
      <point x="365" y="-132"/>
      <point x="365" y="-84" type="qcurve"/>
      <point x="365" y="-76"/>
      <point x="364" y="-42"/>
      <point x="364" y="-33" type="qcurve"/>
      <point x="364" y="-17" type="line"/>
      <point x="364" y="-12"/>
      <point x="361" y="6"/>
      <point x="361" y="10" type="qcurve"/>
      <point x="361" y="17"/>
      <point x="412" y="51"/>
      <point x="414" y="56" type="qcurve"/>
      <point x="426" y="86" type="line"/>
      <point x="428" y="92"/>
      <point x="428" y="94" type="qcurve"/>
      <point x="428" y="103"/>
      <point x="414" y="116"/>
      <point x="405" y="116" type="qcurve"/>
      <point x="390" y="116"/>
      <point x="385" y="102" type="qcurve"/>
      <point x="375" y="79" type="line"/>
      <point x="373" y="75"/>
      <point x="348" y="54"/>
      <point x="343" y="54" type="qcurve"/>
      <point x="342" y="54"/>
      <point x="336" y="60"/>
      <point x="331" y="67"/>
      <point x="330" y="68" type="qcurve"/>
      <point x="292" y="106"/>
      <point x="232" y="106" type="qcurve"/>
      <point x="229" y="106"/>
      <point x="216" y="105"/>
      <point x="212" y="105" type="qcurve"/>
      <point x="210" y="105"/>
      <point x="210" y="108" type="qcurve"/>
      <point x="210" y="126"/>
      <point x="247" y="178"/>
      <point x="303" y="237"/>
      <point x="309" y="244" type="qcurve"/>
      <point x="310" y="246"/>
      <point x="330" y="271"/>
      <point x="338" y="281"/>
      <point x="358" y="308"/>
      <point x="367" y="324"/>
      <point x="384" y="350"/>
      <point x="392" y="369"/>
      <point x="402" y="393"/>
      <point x="406" y="414"/>
      <point x="406" y="424" type="qcurve"/>
      <point x="406" y="433"/>
      <point x="392" y="446"/>
      <point x="383" y="446" type="qcurve"/>
      <point x="346" y="446"/>
      <point x="224" y="412"/>
      <point x="196" y="412" type="qcurve"/>
      <point x="195" y="412"/>
      <point x="161" y="451"/>
      <point x="146" y="451" type="qcurve"/>
      <point x="120" y="451"/>
      <point x="71" y="426"/>
      <point x="71" y="406" type="qcurve"/>
      <point x="71" y="389"/>
      <point x="111" y="373"/>
      <point x="151" y="369"/>
      <point x="151" y="366" type="qcurve"/>
      <point x="151" y="362" type="line"/>
      <point x="151" y="359"/>
      <point x="152" y="347"/>
      <point x="152" y="344" type="qcurve"/>
      <point x="152" y="266"/>
      <point x="81" y="135"/>
      <point x="20" y="115" type="qcurve"/>
      <point x="5" y="109"/>
      <point x="5" y="94" type="qcurve"/>
      <point x="5" y="85"/>
      <point x="18" y="72"/>
      <point x="27" y="72" type="qcurve"/>
      <point x="79" y="72"/>
      <point x="160" y="170"/>
      <point x="197" y="291"/>
      <point x="197" y="343" type="qcurve"/>
      <point x="197" y="346"/>
      <point x="196" y="358"/>
      <point x="196" y="361" type="qcurve"/>
      <point x="196" y="368"/>
      <point x="326" y="397"/>
      <point x="343" y="397" type="qcurve"/>
      <point x="345" y="397"/>
    </contour>
    <contour>
      <point x="310" y="-26" type="qcurve"/>
      <point x="310" y="-72"/>
      <point x="278" y="-199"/>
      <point x="249" y="-199" type="qcurve"/>
      <point x="214" y="-199"/>
      <point x="203" y="-182" type="qcurve"/>
      <point x="190" y="-182" type="line"/>
      <point x="175" y="-182"/>
      <point x="175" y="-161" type="qcurve"/>
      <point x="175" y="-160"/>
      <point x="176" y="-158" type="qcurve"/>
      <point x="176" y="-130"/>
      <point x="277" y="-18"/>
      <point x="302" y="-18" type="qcurve"/>
      <point x="304" y="-18"/>
      <point x="310" y="-24"/>
    </contour>
    <contour>
      <point x="302" y="-23" type="line"/>
      <point x="180" y="-106"/>
      <point x="180" y="-158" type="qcurve"/>
      <point x="180" y="-161" type="line"/>
      <point x="180" y="-178"/>
      <point x="190" y="-178" type="qcurve"/>
      <point x="204" y="-178" type="line"/>
      <point x="207" y="-178"/>
      <point x="238" y="-194"/>
      <point x="260" y="-194"/>
      <point x="277" y="-175"/>
      <point x="286" y="-141"/>
      <point x="292" y="-110"/>
      <point x="297" y="-73"/>
      <point x="298" y="-66" type="qcurve"/>
      <point x="305" y="-27" type="line"/>
    </contour>
  </outline>
</glyph>
<glyph name="braceright" format="2">
  <advance width="306"/>
  <unicode hex="007D"/>
  <outline>
    <contour>
      <point x="192" y="686" type="qcurve"/>
      <point x="192" y="736"/>
      <point x="147" y="807"/>
      <point x="102" y="807" type="qcurve"/>
      <point x="93" y="807"/>
      <point x="80" y="794"/>
      <point x="80" y="785" type="qcurve"/>
      <point x="80" y="771"/>
      <point x="128" y="750"/>
      <point x="130" y="748" type="qcurve"/>
      <point x="147" y="731"/>
      <point x="147" y="687" type="qcurve"/>
      <point x="147" y="659"/>
      <point x="131" y="534"/>
      <point x="131" y="506" type="qcurve"/>
      <point x="131" y="484"/>
      <point x="179" y="431"/>
      <point x="179" y="422" type="qcurve"/>
      <point x="179" y="417"/>
      <point x="146" y="364"/>
      <point x="144" y="352" type="qcurve"/>
      <point x="142" y="339"/>
      <point x="139" y="172"/>
      <point x="119" y="50"/>
      <point x="95" y="50" type="qcurve"/>
      <point x="90" y="50" type="line"/>
      <point x="81" y="50"/>
      <point x="68" y="37"/>
      <point x="68" y="28" type="qcurve"/>
      <point x="68" y="5"/>
      <point x="95" y="5" type="qcurve"/>
      <point x="135" y="5"/>
      <point x="175" y="83"/>
      <point x="181" y="195"/>
      <point x="180" y="307"/>
      <point x="191" y="385"/>
      <point x="209" y="385" type="qcurve"/>
      <point x="216" y="385" type="line"/>
      <point x="225" y="385"/>
      <point x="238" y="398"/>
      <point x="238" y="407" type="qcurve"/>
      <point x="238" y="430"/>
      <point x="175" y="486"/>
      <point x="175" y="506" type="qcurve"/>
      <point x="175" y="534"/>
      <point x="192" y="658"/>
    </contour>
    <contour>
      <point x="63" y="28" type="qcurve"/>
      <point x="63" y="39"/>
      <point x="79" y="55"/>
      <point x="90" y="55" type="qcurve"/>
      <point x="95" y="55" type="line"/>
      <point x="117" y="55"/>
      <point x="135" y="177"/>
      <point x="137" y="340"/>
      <point x="139" y="352" type="qcurve"/>
      <point x="147" y="402"/>
      <point x="173" y="422" type="qcurve"/>
      <point x="126" y="469"/>
      <point x="126" y="506" type="qcurve"/>
      <point x="126" y="534"/>
      <point x="142" y="659"/>
      <point x="142" y="687" type="qcurve"/>
      <point x="142" y="721"/>
      <point x="124" y="754"/>
      <point x="98" y="758" type="qcurve"/>
      <point x="75" y="762"/>
      <point x="75" y="785" type="qcurve"/>
      <point x="75" y="796"/>
      <point x="91" y="812"/>
      <point x="102" y="812" type="qcurve"/>
      <point x="148" y="812"/>
      <point x="197" y="737"/>
      <point x="197" y="686" type="qcurve"/>
      <point x="197" y="658"/>
      <point x="180" y="533"/>
      <point x="180" y="506" type="qcurve"/>
      <point x="180" y="486"/>
      <point x="243" y="432"/>
      <point x="243" y="407" type="qcurve"/>
      <point x="243" y="396"/>
      <point x="227" y="380"/>
      <point x="216" y="380" type="qcurve"/>
      <point x="209" y="380" type="line"/>
      <point x="194" y="380"/>
      <point x="185" y="302"/>
      <point x="186" y="190"/>
      <point x="178" y="78"/>
      <point x="135" y="0"/>
      <point x="95" y="0" type="qcurve"/>
      <point x="63" y="0"/>
    </contour>
  </outline>
</glyph>
<glyph name="A.0" format="2">
  <advance width="511"/>
  <outline>
    <contour>
      <point x="111" y="-39" type="qcurve"/>
      <point x="117" y="-39" type="line"/>
      <point x="127" y="-31"/>
      <point x="132" y="-26" type="qcurve"/>
      <point x="167" y="9" type="line"/>
      <point x="220" y="62"/>
      <point x="224" y="155" type="qcurve"/>
      <point x="227" y="176"/>
      <point x="227" y="197" type="qcurve"/>
      <point x="227" y="234"/>
      <point x="220" y="285" type="qcurve"/>
      <point x="218" y="300"/>
      <point x="214" y="330" type="qcurve"/>
      <point x="210" y="359"/>
      <point x="208" y="374" type="qcurve"/>
      <point x="244" y="358"/>
      <point x="268" y="340" type="qcurve"/>
      <point x="276" y="328"/>
      <point x="282" y="317" type="qcurve"/>
      <point x="297" y="293"/>
      <point x="314" y="242" type="qcurve"/>
      <point x="330" y="190"/>
      <point x="336" y="176" type="qcurve"/>
      <point x="339" y="163"/>
      <point x="346" y="120" type="qcurve"/>
      <point x="353" y="77"/>
      <point x="363" y="56" type="qcurve"/>
      <point x="365" y="36"/>
      <point x="373" y="16" type="qcurve"/>
      <point x="380" y="-4"/>
      <point x="385" y="-9" type="qcurve"/>
      <point x="420" y="-45" type="line"/>
      <point x="422" y="-45" type="line"/>
      <point x="457" y="-10" type="line"/>
      <point x="458" y="-8" type="line"/>
      <point x="458" y="2"/>
      <point x="446" y="35" type="qcurve"/>
      <point x="439" y="66"/>
      <point x="428" y="104" type="qcurve"/>
      <point x="425" y="127"/>
      <point x="423" y="170" type="qcurve"/>
      <point x="421" y="212"/>
      <point x="419" y="230" type="qcurve"/>
      <point x="413" y="371" type="line"/>
      <point x="392" y="524" type="line"/>
      <point x="386" y="567"/>
      <point x="371" y="650" type="qcurve"/>
      <point x="356" y="732"/>
      <point x="350" y="773" type="qcurve"/>
      <point x="350" y="779" type="line"/>
      <point x="350" y="786"/>
      <point x="349" y="787" type="qcurve"/>
      <point x="313" y="823" type="line"/>
      <point x="312" y="823" type="line"/>
      <point x="304" y="823"/>
      <point x="286" y="805" type="qcurve"/>
      <point x="249" y="768"/>
      <point x="234" y="752" type="qcurve"/>
      <point x="129" y="634"/>
      <point x="129" y="491" type="qcurve"/>
      <point x="129" y="479" type="line"/>
      <point x="129" y="470" type="line"/>
      <point x="117" y="472"/>
      <point x="111" y="472" type="qcurve"/>
      <point x="102" y="481" type="line"/>
      <point x="66" y="487" type="line"/>
      <point x="65" y="487"/>
      <point x="63" y="488" type="qcurve"/>
      <point x="61" y="488"/>
      <point x="60" y="488" type="qcurve"/>
      <point x="46" y="488"/>
      <point x="36" y="478" type="qcurve"/>
      <point x="25" y="467"/>
      <point x="25" y="453" type="qcurve"/>
      <point x="25" y="440"/>
      <point x="33" y="431" type="qcurve"/>
      <point x="41" y="421"/>
      <point x="54" y="419" type="qcurve"/>
      <point x="62" y="417"/>
      <point x="78" y="415" type="qcurve"/>
      <point x="93" y="412"/>
      <point x="101" y="411" type="qcurve"/>
      <point x="108" y="404" type="line"/>
      <point x="109" y="403"/>
      <point x="111" y="402" type="qcurve"/>
      <point x="118" y="402"/>
      <point x="134" y="398" type="qcurve"/>
      <point x="136" y="381"/>
      <point x="141" y="348" type="qcurve"/>
      <point x="145" y="315"/>
      <point x="147" y="299" type="qcurve"/>
      <point x="156" y="225"/>
      <point x="156" y="197" type="qcurve"/>
      <point x="156" y="176"/>
      <point x="153" y="155" type="qcurve"/>
      <point x="151" y="83"/>
      <point x="115" y="31" type="qcurve"/>
      <point x="111" y="31" type="line"/>
      <point x="96" y="31"/>
      <point x="86" y="21" type="qcurve"/>
      <point x="75" y="11"/>
      <point x="75" y="-4" type="qcurve"/>
      <point x="75" y="-19"/>
      <point x="86" y="-29" type="qcurve"/>
      <point x="96" y="-39"/>
    </contour>
    <contour>
      <point x="200" y="491" type="line"/>
      <point x="200" y="617"/>
      <point x="286" y="729" type="qcurve"/>
      <point x="291" y="696"/>
      <point x="304" y="628" type="qcurve"/>
      <point x="316" y="560"/>
      <point x="321" y="524" type="qcurve"/>
      <point x="342" y="371" type="line"/>
      <point x="344" y="333" type="line"/>
      <point x="334" y="348"/>
      <point x="323" y="359" type="qcurve"/>
      <point x="288" y="394" type="line"/>
      <point x="258" y="424"/>
      <point x="201" y="447" type="qcurve"/>
      <point x="200" y="457"/>
      <point x="200" y="479" type="qcurve"/>
    </contour>
  </outline>
</glyph>
<glyph name="A.1" format="2">
  <advance width="511"/>
  <outline>
    <contour>
      <point x="149" y="458" type="qcurve"/>
      <point x="139" y="460"/>
      <point x="131" y="461" type="qcurve"/>
      <point x="124" y="469"/>
      <point x="115" y="471" type="qcurve"/>
      <point x="79" y="477" type="line"/>
      <point x="77" y="477"/>
      <point x="75" y="477" type="qcurve"/>
      <point x="65" y="477"/>
      <point x="58" y="470" type="qcurve"/>
      <point x="50" y="462"/>
      <point x="50" y="452" type="qcurve"/>
      <point x="50" y="443"/>
      <point x="56" y="436" type="qcurve"/>
      <point x="62" y="429"/>
      <point x="71" y="427" type="qcurve"/>
      <point x="98" y="423" type="line"/>
      <point x="104" y="417"/>
      <point x="109" y="415" type="qcurve"/>
      <point x="114" y="412"/>
      <point x="120" y="412" type="qcurve"/>
      <point x="128" y="412"/>
      <point x="153" y="405" type="qcurve"/>
      <point x="155" y="383"/>
      <point x="161" y="346" type="qcurve"/>
      <point x="166" y="308"/>
      <point x="167" y="296" type="qcurve"/>
      <point x="176" y="223"/>
      <point x="176" y="196" type="qcurve"/>
      <point x="176" y="176"/>
      <point x="173" y="159" type="qcurve"/>
      <point x="173" y="158"/>
      <point x="173" y="156" type="qcurve"/>
      <point x="172" y="116"/>
      <point x="157" y="80" type="qcurve"/>
      <point x="142" y="43"/>
      <point x="117" y="21" type="qcurve"/>
      <point x="108" y="20"/>
      <point x="102" y="13" type="qcurve"/>
      <point x="95" y="5"/>
      <point x="95" y="-4" type="qcurve"/>
      <point x="95" y="-14"/>
      <point x="103" y="-21" type="qcurve"/>
      <point x="110" y="-29"/>
      <point x="120" y="-29" type="qcurve"/>
      <point x="126" y="-29" type="line"/>
      <point x="134" y="-29"/>
      <point x="141" y="-24" type="qcurve"/>
      <point x="151" y="-17"/>
      <point x="159" y="-8" type="qcurve"/>
      <point x="219" y="52"/>
      <point x="223" y="152" type="qcurve"/>
      <point x="226" y="173"/>
      <point x="226" y="197" type="qcurve"/>
      <point x="226" y="227"/>
      <point x="219" y="288" type="qcurve"/>
      <point x="217" y="303"/>
      <point x="213" y="336" type="qcurve"/>
      <point x="208" y="369"/>
      <point x="206" y="387" type="qcurve"/>
      <point x="281" y="356"/>
      <point x="304" y="306" type="qcurve"/>
      <point x="305" y="305"/>
      <point x="306" y="304" type="qcurve"/>
      <point x="319" y="282"/>
      <point x="335" y="232" type="qcurve"/>
      <point x="351" y="182"/>
      <point x="357" y="168" type="qcurve"/>
      <point x="360" y="157"/>
      <point x="367" y="115" type="qcurve"/>
      <point x="374" y="73"/>
      <point x="384" y="49" type="qcurve"/>
      <point x="387" y="26"/>
      <point x="397" y="2" type="qcurve"/>
      <point x="400" y="-8"/>
      <point x="404" y="-15" type="qcurve"/>
      <point x="414" y="-35"/>
      <point x="431" y="-35" type="qcurve"/>
      <point x="442" y="-35"/>
      <point x="449" y="-27" type="qcurve"/>
      <point x="454" y="-22"/>
      <point x="456" y="-15" type="qcurve"/>
      <point x="457" y="-11"/>
      <point x="457" y="-8" type="qcurve"/>
      <point x="457" y="-3"/>
      <point x="455" y="5" type="qcurve"/>
      <point x="452" y="18"/>
      <point x="444" y="42" type="qcurve"/>
      <point x="438" y="70"/>
      <point x="427" y="109" type="qcurve"/>
      <point x="424" y="131"/>
      <point x="422" y="174" type="qcurve"/>
      <point x="419" y="216"/>
      <point x="418" y="232" type="qcurve"/>
      <point x="412" y="372" type="line"/>
      <point x="412" y="373"/>
      <point x="412" y="374" type="qcurve"/>
      <point x="391" y="527" type="line"/>
      <point x="391" y="528"/>
      <point x="391" y="528" type="qcurve"/>
      <point x="358" y="711"/>
      <point x="349" y="774" type="qcurve"/>
      <point x="349" y="776"/>
      <point x="349" y="779" type="qcurve"/>
      <point x="349" y="786"/>
      <point x="348" y="791" type="qcurve"/>
      <point x="346" y="799"/>
      <point x="340" y="805" type="qcurve"/>
      <point x="332" y="813"/>
      <point x="321" y="813" type="qcurve"/>
      <point x="309" y="813"/>
      <point x="297" y="804" type="qcurve"/>
      <point x="283" y="794"/>
      <point x="260" y="769" type="qcurve"/>
      <point x="209" y="710"/>
      <point x="179" y="638" type="qcurve"/>
      <point x="149" y="566"/>
      <point x="149" y="491" type="qcurve"/>
      <point x="149" y="475"/>
    </contour>
    <contour>
      <point x="199" y="479" type="qcurve"/>
      <point x="199" y="481"/>
      <point x="199" y="485" type="qcurve"/>
      <point x="199" y="489"/>
      <point x="199" y="490" type="qcurve"/>
      <point x="199" y="555"/>
      <point x="226" y="620" type="qcurve"/>
      <point x="252" y="684"/>
      <point x="298" y="736" type="qcurve"/>
      <point x="301" y="739"/>
      <point x="304" y="742" type="qcurve"/>
      <point x="309" y="707"/>
      <point x="323" y="633" type="qcurve"/>
      <point x="336" y="559"/>
      <point x="341" y="520" type="qcurve"/>
      <point x="362" y="369" type="line"/>
      <point x="365" y="297" type="line"/>
      <point x="358" y="315"/>
      <point x="349" y="329" type="qcurve"/>
      <point x="336" y="355"/>
      <point x="315" y="376" type="qcurve"/>
      <point x="274" y="417"/>
      <point x="200" y="442" type="qcurve"/>
      <point x="199" y="461"/>
    </contour>
  </outline>
</glyph>
<glyph name="B.0" format="2">
  <advance width="547"/>
  <outline>
    <contour>
      <point x="164" y="-7" type="qcurve"/>
      <point x="164" y="-3"/>
      <point x="162" y="5" type="qcurve"/>
      <point x="139" y="62"/>
      <point x="108" y="173" type="qcurve"/>
      <point x="96" y="293" type="line"/>
      <point x="105" y="500" type="line"/>
      <point x="123" y="611" type="line"/>
      <point x="138" y="671" type="line"/>
      <point x="144" y="692"/>
      <point x="144" y="698" type="qcurve"/>
      <point x="147" y="712"/>
      <point x="157" y="729" type="qcurve"/>
      <point x="172" y="738"/>
      <point x="191" y="738" type="qcurve"/>
      <point x="201" y="738" type="line"/>
      <point x="206" y="737"/>
      <point x="227" y="733" type="qcurve"/>
      <point x="248" y="729"/>
      <point x="255" y="729" type="qcurve"/>
      <point x="261" y="729" type="line"/>
      <point x="268" y="729"/>
      <point x="290" y="718" type="qcurve"/>
      <point x="301" y="711"/>
      <point x="315" y="708" type="qcurve"/>
      <point x="350" y="702"/>
      <point x="376" y="682" type="qcurve"/>
      <point x="409" y="636"/>
      <point x="409" y="578" type="qcurve"/>
      <point x="402" y="551"/>
      <point x="383" y="528" type="qcurve"/>
      <point x="326" y="484"/>
      <point x="263" y="484" type="qcurve"/>
      <point x="249" y="484" type="line"/>
      <point x="228" y="505" type="line"/>
      <point x="216" y="499" type="line"/>
      <point x="181" y="463" type="line"/>
      <point x="179" y="461"/>
      <point x="179" y="460" type="qcurve"/>
      <point x="179" y="458"/>
      <point x="180" y="457" type="qcurve"/>
      <point x="190" y="447" type="line"/>
      <point x="190" y="443" type="line"/>
      <point x="190" y="439"/>
      <point x="195" y="434" type="qcurve"/>
      <point x="230" y="399" type="line"/>
      <point x="239" y="390"/>
      <point x="276" y="367" type="qcurve"/>
      <point x="337" y="329"/>
      <point x="375" y="297" type="qcurve"/>
      <point x="418" y="245"/>
      <point x="418" y="194" type="qcurve"/>
      <point x="418" y="133"/>
      <point x="392" y="93" type="qcurve"/>
      <point x="352" y="67"/>
      <point x="294" y="67" type="qcurve"/>
      <point x="273" y="67"/>
      <point x="225" y="91" type="qcurve"/>
      <point x="201" y="158" type="line"/>
      <point x="198" y="230" type="line"/>
      <point x="197" y="244"/>
      <point x="187" y="254" type="qcurve"/>
      <point x="176" y="264"/>
      <point x="162" y="264" type="qcurve"/>
      <point x="148" y="264"/>
      <point x="138" y="254" type="qcurve"/>
      <point x="127" y="243"/>
      <point x="127" y="229" type="qcurve"/>
      <point x="127" y="227" type="line"/>
      <point x="130" y="158" type="line"/>
      <point x="163" y="68" type="line"/>
      <point x="198" y="33" type="line"/>
      <point x="207" y="30"/>
      <point x="226" y="20" type="qcurve"/>
      <point x="245" y="9"/>
      <point x="262" y="3" type="qcurve"/>
      <point x="278" y="-3"/>
      <point x="294" y="-3" type="qcurve"/>
      <point x="370" y="-3"/>
      <point x="411" y="38" type="qcurve"/>
      <point x="446" y="74" type="line"/>
      <point x="489" y="117"/>
      <point x="489" y="194" type="qcurve"/>
      <point x="489" y="255"/>
      <point x="429" y="315" type="qcurve"/>
      <point x="394" y="350" type="line"/>
      <point x="361" y="383"/>
      <point x="306" y="419" type="qcurve"/>
      <point x="361" y="433"/>
      <point x="402" y="474" type="qcurve"/>
      <point x="438" y="509" type="line"/>
      <point x="470" y="540"/>
      <point x="480" y="578" type="qcurve"/>
      <point x="480" y="651"/>
      <point x="430" y="701" type="qcurve"/>
      <point x="395" y="737" type="line"/>
      <point x="363" y="769"/>
      <point x="315" y="778" type="qcurve"/>
      <point x="304" y="781"/>
      <point x="290" y="789" type="qcurve"/>
      <point x="268" y="800"/>
      <point x="261" y="800" type="qcurve"/>
      <point x="260" y="800"/>
      <point x="258" y="800" type="qcurve"/>
      <point x="256" y="799"/>
      <point x="255" y="799" type="qcurve"/>
      <point x="246" y="799"/>
      <point x="220" y="805" type="qcurve"/>
      <point x="198" y="809"/>
      <point x="191" y="809" type="qcurve"/>
      <point x="161" y="809"/>
      <point x="137" y="785" type="qcurve"/>
      <point x="102" y="750" type="line"/>
      <point x="80" y="728"/>
      <point x="73" y="698" type="qcurve"/>
      <point x="73" y="694"/>
      <point x="68" y="677" type="qcurve"/>
      <point x="62" y="655"/>
      <point x="52" y="611" type="qcurve"/>
      <point x="34" y="500" type="line"/>
      <point x="25" y="293" type="line"/>
      <point x="37" y="173" type="line"/>
      <point x="68" y="62"/>
      <point x="91" y="5" type="qcurve"/>
      <point x="100" y="-19" type="line"/>
      <point x="109" y="-40"/>
      <point x="131" y="-40" type="qcurve"/>
      <point x="144" y="-40"/>
      <point x="154" y="-30" type="qcurve"/>
      <point x="164" y="-20"/>
    </contour>
  </outline>
</glyph>
<glyph name="C.0" format="2">
  <advance width="490"/>
  <outline>
    <contour>
      <point x="414" y="682" type="qcurve"/>
      <point x="414" y="686" type="line"/>
      <point x="410" y="723"/>
      <point x="390" y="743" type="qcurve"/>
      <point x="355" y="778" type="line"/>
      <point x="347" y="786"/>
      <point x="336" y="789" type="qcurve"/>
      <point x="330" y="791"/>
      <point x="311" y="801" type="qcurve"/>
      <point x="287" y="815"/>
      <point x="274" y="815" type="qcurve"/>
      <point x="214" y="815"/>
      <point x="179" y="780" type="qcurve"/>
      <point x="144" y="744" type="line"/>
      <point x="114" y="714"/>
      <point x="84" y="624" type="qcurve"/>
      <point x="61" y="550"/>
      <point x="39" y="522" type="qcurve"/>
      <point x="25" y="388" type="line"/>
      <point x="29" y="246" type="line"/>
      <point x="37" y="190" type="line"/>
      <point x="42" y="159"/>
      <point x="53" y="140" type="qcurve"/>
      <point x="55" y="137"/>
      <point x="66" y="110" type="qcurve"/>
      <point x="91" y="48"/>
      <point x="108" y="31" type="qcurve"/>
      <point x="144" y="-4" type="line"/>
      <point x="157" y="-17"/>
      <point x="170" y="-17" type="qcurve"/>
      <point x="184" y="-17" type="line"/>
      <point x="230" y="-37"/>
      <point x="280" y="-37" type="qcurve"/>
      <point x="309" y="-37"/>
      <point x="327" y="-29" type="qcurve"/>
      <point x="344" y="-21"/>
      <point x="365" y="-2" type="qcurve"/>
      <point x="367" y="-1"/>
      <point x="369" y="1" type="qcurve"/>
      <point x="370" y="3"/>
      <point x="373" y="6" type="qcurve"/>
      <point x="375" y="8"/>
      <point x="376" y="9" type="qcurve"/>
      <point x="412" y="44" type="line"/>
      <point x="430" y="92" type="line"/>
      <point x="432" y="152" type="line"/>
      <point x="432" y="153" type="line"/>
      <point x="432" y="168"/>
      <point x="422" y="178" type="qcurve"/>
      <point x="411" y="188"/>
      <point x="396" y="188" type="qcurve"/>
      <point x="382" y="188"/>
      <point x="372" y="178" type="qcurve"/>
      <point x="362" y="168"/>
      <point x="361" y="154" type="qcurve"/>
      <point x="359" y="92" type="line"/>
      <point x="344" y="52" type="line"/>
      <point x="319" y="33"/>
      <point x="280" y="33" type="qcurve"/>
      <point x="230" y="33"/>
      <point x="184" y="53" type="qcurve"/>
      <point x="170" y="53" type="line"/>
      <point x="168" y="53"/>
      <point x="162" y="55" type="qcurve"/>
      <point x="151" y="73"/>
      <point x="137" y="110" type="qcurve"/>
      <point x="126" y="137"/>
      <point x="124" y="140" type="qcurve"/>
      <point x="117" y="153"/>
      <point x="108" y="190" type="qcurve"/>
      <point x="100" y="246" type="line"/>
      <point x="96" y="388" type="line"/>
      <point x="110" y="522" type="line"/>
      <point x="132" y="550"/>
      <point x="155" y="624" type="qcurve"/>
      <point x="180" y="699"/>
      <point x="198" y="724" type="qcurve"/>
      <point x="229" y="745"/>
      <point x="274" y="745" type="qcurve"/>
      <point x="287" y="745"/>
      <point x="311" y="731" type="qcurve"/>
      <point x="323" y="724"/>
      <point x="335" y="719" type="qcurve"/>
      <point x="340" y="708"/>
      <point x="344" y="678" type="qcurve"/>
      <point x="346" y="665"/>
      <point x="356" y="656" type="qcurve"/>
      <point x="366" y="647"/>
      <point x="379" y="647" type="qcurve"/>
      <point x="393" y="647"/>
      <point x="404" y="658" type="qcurve"/>
      <point x="414" y="668"/>
    </contour>
  </outline>
</glyph>
<glyph name="D.0" format="2">
  <advance width="507"/>
  <outline>
    <contour>
      <point x="117" y="122" type="qcurve"/>
      <point x="117" y="112" type="line"/>
      <point x="97" y="109"/>
      <point x="85" y="97" type="qcurve"/>
      <point x="49" y="62" type="line"/>
      <point x="37" y="50"/>
      <point x="36" y="30" type="qcurve"/>
      <point x="36" y="28" type="line"/>
      <point x="36" y="21"/>
      <point x="41" y="16" type="qcurve"/>
      <point x="76" y="-20" type="line"/>
      <point x="80" y="-24"/>
      <point x="89" y="-27" type="qcurve"/>
      <point x="97" y="-30"/>
      <point x="108" y="-32" type="qcurve"/>
      <point x="119" y="-35"/>
      <point x="125" y="-37" type="qcurve"/>
      <point x="160" y="-2" type="line"/>
      <point x="172" y="19"/>
      <point x="178" y="43" type="qcurve"/>
      <point x="184" y="43"/>
      <point x="207" y="41" type="qcurve"/>
      <point x="230" y="39"/>
      <point x="241" y="39" type="qcurve"/>
      <point x="283" y="39"/>
      <point x="314" y="70" type="qcurve"/>
      <point x="349" y="105" type="line"/>
      <point x="368" y="124"/>
      <point x="383" y="152" type="qcurve"/>
      <point x="397" y="180"/>
      <point x="415" y="227" type="qcurve"/>
      <point x="432" y="273"/>
      <point x="437" y="286" type="qcurve"/>
      <point x="450" y="426" type="line"/>
      <point x="368" y="667" type="line"/>
      <point x="358" y="696"/>
      <point x="337" y="716" type="qcurve"/>
      <point x="302" y="751" type="line"/>
      <point x="256" y="797"/>
      <point x="175" y="797" type="qcurve"/>
      <point x="118" y="797"/>
      <point x="88" y="767" type="qcurve"/>
      <point x="53" y="732" type="line"/>
      <point x="32" y="711"/>
      <point x="26" y="678" type="qcurve"/>
      <point x="26" y="677"/>
      <point x="26" y="675" type="qcurve"/>
      <point x="25" y="672"/>
      <point x="25" y="671" type="qcurve"/>
      <point x="25" y="657"/>
      <point x="36" y="647" type="qcurve"/>
      <point x="46" y="636"/>
      <point x="60" y="636" type="qcurve"/>
      <point x="84" y="636"/>
      <point x="92" y="658" type="qcurve"/>
      <point x="92" y="408" type="line"/>
      <point x="92" y="403" type="line"/>
      <point x="92" y="359"/>
      <point x="105" y="263" type="qcurve"/>
      <point x="117" y="167"/>
    </contour>
    <contour>
      <point x="241" y="109" type="qcurve"/>
      <point x="231" y="109"/>
      <point x="212" y="111" type="qcurve"/>
      <point x="193" y="113"/>
      <point x="187" y="113" type="qcurve"/>
      <point x="187" y="122" type="line"/>
      <point x="187" y="167"/>
      <point x="175" y="263" type="qcurve"/>
      <point x="162" y="359"/>
      <point x="162" y="403" type="qcurve"/>
      <point x="162" y="408" type="line"/>
      <point x="162" y="676" type="line"/>
      <point x="162" y="691"/>
      <point x="152" y="701" type="qcurve"/>
      <point x="142" y="711"/>
      <point x="127" y="711" type="qcurve"/>
      <point x="114" y="711"/>
      <point x="104" y="703" type="qcurve"/>
      <point x="105" y="706"/>
      <point x="109" y="712" type="qcurve"/>
      <point x="134" y="727"/>
      <point x="175" y="727" type="qcurve"/>
      <point x="237" y="727"/>
      <point x="282" y="697" type="qcurve"/>
      <point x="291" y="684"/>
      <point x="297" y="667" type="qcurve"/>
      <point x="379" y="426" type="line"/>
      <point x="366" y="286" type="line"/>
      <point x="358" y="268"/>
      <point x="346" y="234" type="qcurve"/>
      <point x="334" y="199"/>
      <point x="322" y="172" type="qcurve"/>
      <point x="310" y="145"/>
      <point x="296" y="125" type="qcurve"/>
      <point x="272" y="109"/>
    </contour>
  </outline>
</glyph>
<glyph name="E.0" format="2">
  <advance width="477"/>
  <outline>
    <contour>
      <point x="29" y="578" type="qcurve"/>
      <point x="29" y="568"/>
      <point x="28" y="549" type="qcurve"/>
      <point x="26" y="530"/>
      <point x="26" y="520" type="qcurve"/>
      <point x="26" y="480"/>
      <point x="46" y="460" type="qcurve"/>
      <point x="81" y="425" type="line"/>
      <point x="83" y="423"/>
      <point x="91" y="417" type="qcurve"/>
      <point x="103" y="405" type="line"/>
      <point x="111" y="397"/>
      <point x="117" y="397" type="qcurve"/>
      <point x="121" y="397" type="line"/>
      <point x="125" y="397"/>
      <point x="133" y="395" type="qcurve"/>
      <point x="126" y="388"/>
      <point x="114" y="375" type="qcurve"/>
      <point x="101" y="362"/>
      <point x="95" y="356" type="qcurve"/>
      <point x="85" y="346"/>
      <point x="81" y="341" type="qcurve"/>
      <point x="61" y="321" type="line"/>
      <point x="25" y="285"/>
      <point x="25" y="229" type="qcurve"/>
      <point x="25" y="227"/>
      <point x="26" y="221" type="qcurve"/>
      <point x="26" y="215"/>
      <point x="26" y="212" type="qcurve"/>
      <point x="26" y="207"/>
      <point x="26" y="198" type="qcurve"/>
      <point x="25" y="188"/>
      <point x="25" y="183" type="qcurve"/>
      <point x="25" y="141"/>
      <point x="40" y="116" type="qcurve"/>
      <point x="51" y="82"/>
      <point x="75" y="58" type="qcurve"/>
      <point x="110" y="23" type="line"/>
      <point x="160" y="-27"/>
      <point x="239" y="-29" type="qcurve"/>
      <point x="251" y="-33"/>
      <point x="266" y="-33" type="qcurve"/>
      <point x="308" y="-33"/>
      <point x="343" y="2" type="qcurve"/>
      <point x="378" y="37" type="line"/>
      <point x="389" y="48"/>
      <point x="393" y="54" type="qcurve"/>
      <point x="413" y="80" type="line"/>
      <point x="422" y="96"/>
      <point x="422" y="106" type="qcurve"/>
      <point x="422" y="119"/>
      <point x="413" y="129" type="qcurve"/>
      <point x="403" y="138"/>
      <point x="390" y="138" type="qcurve"/>
      <point x="371" y="138"/>
      <point x="362" y="120" type="qcurve"/>
      <point x="358" y="114"/>
      <point x="352" y="101" type="qcurve"/>
      <point x="346" y="87"/>
      <point x="342" y="80" type="qcurve"/>
      <point x="324" y="57" type="line"/>
      <point x="296" y="37"/>
      <point x="266" y="37" type="qcurve"/>
      <point x="251" y="37"/>
      <point x="239" y="41" type="qcurve"/>
      <point x="176" y="43"/>
      <point x="130" y="77" type="qcurve"/>
      <point x="116" y="98"/>
      <point x="111" y="116" type="qcurve"/>
      <point x="96" y="141"/>
      <point x="96" y="183" type="qcurve"/>
      <point x="96" y="188"/>
      <point x="97" y="198" type="qcurve"/>
      <point x="97" y="207"/>
      <point x="97" y="212" type="qcurve"/>
      <point x="97" y="215"/>
      <point x="97" y="221" type="qcurve"/>
      <point x="96" y="227"/>
      <point x="96" y="229" type="qcurve"/>
      <point x="96" y="276"/>
      <point x="120" y="308" type="qcurve"/>
      <point x="147" y="334" type="line"/>
      <point x="148" y="334"/>
      <point x="148" y="336" type="qcurve"/>
      <point x="148" y="337"/>
      <point x="149" y="338" type="qcurve"/>
      <point x="185" y="367"/>
      <point x="223" y="377" type="qcurve"/>
      <point x="223" y="447" type="line"/>
      <point x="195" y="447" type="line"/>
      <point x="185" y="447"/>
      <point x="171" y="454" type="qcurve"/>
      <point x="156" y="460"/>
      <point x="149" y="461" type="qcurve"/>
      <point x="145" y="461"/>
      <point x="136" y="465" type="qcurve"/>
      <point x="126" y="468"/>
      <point x="121" y="468" type="qcurve"/>
      <point x="120" y="468"/>
      <point x="119" y="468" type="qcurve"/>
      <point x="118" y="467"/>
      <point x="117" y="467" type="qcurve"/>
      <point x="114" y="467"/>
      <point x="108" y="471" type="qcurve"/>
      <point x="97" y="488"/>
      <point x="97" y="520" type="qcurve"/>
      <point x="97" y="530"/>
      <point x="98" y="549" type="qcurve"/>
      <point x="99" y="568"/>
      <point x="99" y="578" type="qcurve"/>
      <point x="99" y="595" type="line"/>
      <point x="99" y="656"/>
      <point x="143" y="714" type="qcurve"/>
      <point x="144" y="714"/>
      <point x="144" y="716" type="qcurve"/>
      <point x="144" y="718"/>
      <point x="145" y="718" type="qcurve"/>
      <point x="167" y="732"/>
      <point x="193" y="735" type="qcurve"/>
      <point x="208" y="735"/>
      <point x="239" y="732" type="qcurve"/>
      <point x="270" y="729"/>
      <point x="285" y="729" type="qcurve"/>
      <point x="295" y="729"/>
      <point x="319" y="716" type="qcurve"/>
      <point x="339" y="705"/>
      <point x="350" y="705" type="qcurve"/>
      <point x="364" y="705"/>
      <point x="375" y="716" type="qcurve"/>
      <point x="386" y="726"/>
      <point x="386" y="740" type="qcurve"/>
      <point x="386" y="753"/>
      <point x="377" y="763" type="qcurve"/>
      <point x="368" y="773"/>
      <point x="354" y="775" type="qcurve"/>
      <point x="347" y="775" type="line"/>
      <point x="338" y="776"/>
      <point x="318" y="788" type="qcurve"/>
      <point x="297" y="799"/>
      <point x="285" y="799" type="qcurve"/>
      <point x="270" y="799"/>
      <point x="239" y="802" type="qcurve"/>
      <point x="208" y="805"/>
      <point x="193" y="805" type="qcurve"/>
      <point x="152" y="800"/>
      <point x="124" y="772" type="qcurve"/>
      <point x="89" y="737" type="line"/>
      <point x="80" y="728"/>
      <point x="72" y="714" type="qcurve"/>
      <point x="28" y="656"/>
      <point x="28" y="595" type="qcurve"/>
      <point x="28" y="593"/>
      <point x="29" y="587" type="qcurve"/>
      <point x="29" y="581"/>
    </contour>
  </outline>
</glyph>
<glyph name="F.0" format="2">
  <advance width="586"/>
  <outline>
    <contour>
      <point x="99" y="389" type="qcurve"/>
      <point x="107" y="389" type="line"/>
      <point x="127" y="389"/>
      <point x="167" y="379" type="qcurve"/>
      <point x="207" y="369"/>
      <point x="209" y="369" type="qcurve"/>
      <point x="295" y="365" type="line"/>
      <point x="297" y="365" type="line"/>
      <point x="311" y="365"/>
      <point x="322" y="376" type="qcurve"/>
      <point x="332" y="386"/>
      <point x="332" y="400" type="qcurve"/>
      <point x="332" y="414"/>
      <point x="322" y="424" type="qcurve"/>
      <point x="312" y="434"/>
      <point x="298" y="435" type="qcurve"/>
      <point x="209" y="439" type="line"/>
      <point x="207" y="439"/>
      <point x="167" y="449" type="qcurve"/>
      <point x="127" y="459"/>
      <point x="107" y="459" type="qcurve"/>
      <point x="99" y="459" type="line"/>
      <point x="84" y="459"/>
      <point x="74" y="449" type="qcurve"/>
      <point x="64" y="439"/>
      <point x="64" y="424" type="qcurve"/>
      <point x="64" y="409"/>
      <point x="74" y="399" type="qcurve"/>
      <point x="84" y="389"/>
    </contour>
    <contour>
      <point x="146" y="286" type="qcurve"/>
      <point x="146" y="270"/>
      <point x="148" y="238" type="qcurve"/>
      <point x="144" y="216"/>
      <point x="144" y="199" type="qcurve"/>
      <point x="144" y="186"/>
      <point x="145" y="160" type="qcurve"/>
      <point x="146" y="134"/>
      <point x="146" y="122" type="qcurve"/>
      <point x="146" y="68"/>
      <point x="136" y="45" type="qcurve"/>
      <point x="122" y="41"/>
      <point x="111" y="41" type="qcurve"/>
      <point x="105" y="41" type="line"/>
      <point x="77" y="43"/>
      <point x="71" y="47" type="qcurve"/>
      <point x="64" y="51"/>
      <point x="56" y="51" type="qcurve"/>
      <point x="43" y="51"/>
      <point x="34" y="43" type="qcurve"/>
      <point x="25" y="34"/>
      <point x="25" y="21" type="qcurve"/>
      <point x="25" y="2"/>
      <point x="40" y="-6" type="qcurve"/>
      <point x="71" y="-23" type="line"/>
      <point x="81" y="-29"/>
      <point x="101" y="-29" type="qcurve"/>
      <point x="103" y="-29"/>
      <point x="106" y="-29" type="qcurve"/>
      <point x="109" y="-30"/>
      <point x="111" y="-30" type="qcurve"/>
      <point x="139" y="-30"/>
      <point x="156" y="-13" type="qcurve"/>
      <point x="192" y="22" type="line"/>
      <point x="217" y="47"/>
      <point x="217" y="122" type="qcurve"/>
      <point x="217" y="134"/>
      <point x="216" y="160" type="qcurve"/>
      <point x="215" y="186"/>
      <point x="215" y="199" type="qcurve"/>
      <point x="215" y="222"/>
      <point x="218" y="238" type="qcurve"/>
      <point x="217" y="254"/>
      <point x="217" y="286" type="qcurve"/>
      <point x="217" y="326"/>
      <point x="222" y="407" type="qcurve"/>
      <point x="227" y="488"/>
      <point x="227" y="529" type="qcurve"/>
      <point x="227" y="532"/>
      <point x="227" y="539" type="qcurve"/>
      <point x="226" y="546"/>
      <point x="226" y="550" type="qcurve"/>
      <point x="224" y="567"/>
      <point x="224" y="601" type="qcurve"/>
      <point x="224" y="634"/>
      <point x="224" y="641" type="qcurve"/>
      <point x="249" y="650"/>
      <point x="317" y="696" type="qcurve"/>
      <point x="384" y="741"/>
      <point x="421" y="747" type="qcurve"/>
      <point x="426" y="748"/>
      <point x="436" y="748" type="qcurve"/>
      <point x="441" y="748"/>
      <point x="451" y="746" type="qcurve"/>
      <point x="451" y="745"/>
      <point x="452" y="743" type="qcurve"/>
      <point x="452" y="741"/>
      <point x="452" y="740" type="qcurve"/>
      <point x="457" y="735"/>
      <point x="461" y="713" type="qcurve"/>
      <point x="464" y="699"/>
      <point x="468" y="692" type="qcurve"/>
      <point x="486" y="661" type="line"/>
      <point x="494" y="646"/>
      <point x="512" y="646" type="qcurve"/>
      <point x="525" y="646"/>
      <point x="534" y="655" type="qcurve"/>
      <point x="543" y="663"/>
      <point x="543" y="676" type="qcurve"/>
      <point x="543" y="684"/>
      <point x="538" y="692" type="qcurve"/>
      <point x="536" y="695"/>
      <point x="532" y="713" type="qcurve"/>
      <point x="528" y="733"/>
      <point x="522" y="740" type="qcurve"/>
      <point x="522" y="758"/>
      <point x="511" y="769" type="qcurve"/>
      <point x="475" y="805" type="line"/>
      <point x="461" y="819"/>
      <point x="436" y="819" type="qcurve"/>
      <point x="431" y="819"/>
      <point x="421" y="817" type="qcurve"/>
      <point x="385" y="810"/>
      <point x="307" y="759" type="qcurve"/>
      <point x="243" y="717"/>
      <point x="214" y="709" type="qcurve"/>
      <point x="205" y="740"/>
      <point x="190" y="756" type="qcurve"/>
      <point x="163" y="785"/>
      <point x="105" y="839" type="qcurve"/>
      <point x="70" y="804" type="line"/>
      <point x="68" y="748" type="line"/>
      <point x="72" y="743" type="line"/>
      <point x="77" y="737"/>
      <point x="91" y="718" type="qcurve"/>
      <point x="105" y="699"/>
      <point x="114" y="690" type="qcurve"/>
      <point x="149" y="654" type="line"/>
      <point x="152" y="651" type="line"/>
      <point x="153" y="638"/>
      <point x="154" y="603" type="qcurve"/>
      <point x="154" y="568"/>
      <point x="156" y="550" type="qcurve"/>
      <point x="156" y="529" type="line"/>
      <point x="156" y="488"/>
      <point x="151" y="407" type="qcurve"/>
      <point x="146" y="326"/>
    </contour>
  </outline>
</glyph>
<glyph name="F.1" format="2">
  <advance width="586"/>
  <outline>
    <contour>
      <point x="103" y="399" type="qcurve"/>
      <point x="111" y="399" type="line"/>
      <point x="124" y="399"/>
      <point x="141" y="396" type="qcurve"/>
      <point x="157" y="392"/>
      <point x="178" y="387" type="qcurve"/>
      <point x="198" y="381"/>
      <point x="208" y="379" type="qcurve"/>
      <point x="210" y="379"/>
      <point x="212" y="379" type="qcurve"/>
      <point x="298" y="375" type="line"/>
      <point x="298" y="375"/>
      <point x="299" y="375" type="qcurve"/>
      <point x="309" y="375"/>
      <point x="317" y="383" type="qcurve"/>
      <point x="324" y="390"/>
      <point x="324" y="400" type="qcurve"/>
      <point x="324" y="410"/>
      <point x="317" y="418" type="qcurve"/>
      <point x="310" y="425"/>
      <point x="300" y="425" type="qcurve"/>
      <point x="216" y="429" type="line"/>
      <point x="206" y="431"/>
      <point x="185" y="437" type="qcurve"/>
      <point x="164" y="442"/>
      <point x="146" y="446" type="qcurve"/>
      <point x="128" y="449"/>
      <point x="111" y="449" type="qcurve"/>
      <point x="103" y="449" type="line"/>
      <point x="93" y="449"/>
      <point x="86" y="442" type="qcurve"/>
      <point x="78" y="434"/>
      <point x="78" y="424" type="qcurve"/>
      <point x="78" y="414"/>
      <point x="86" y="407" type="qcurve"/>
      <point x="93" y="399"/>
    </contour>
    <contour>
      <point x="161" y="286" type="qcurve"/>
      <point x="161" y="262"/>
      <point x="162" y="240" type="qcurve"/>
      <point x="159" y="224"/>
      <point x="159" y="200" type="qcurve"/>
      <point x="159" y="187"/>
      <point x="160" y="161" type="qcurve"/>
      <point x="161" y="135"/>
      <point x="161" y="122" type="qcurve"/>
      <point x="161" y="96"/>
      <point x="158" y="79" type="qcurve"/>
      <point x="154" y="51"/>
      <point x="143" y="40" type="qcurve"/>
      <point x="134" y="31"/>
      <point x="116" y="31" type="qcurve"/>
      <point x="115" y="31"/>
      <point x="106" y="31" type="qcurve"/>
      <point x="91" y="32"/>
      <point x="87" y="34" type="qcurve"/>
      <point x="82" y="37"/>
      <point x="75" y="37" type="qcurve"/>
      <point x="65" y="37"/>
      <point x="58" y="30" type="qcurve"/>
      <point x="50" y="22"/>
      <point x="50" y="12" type="qcurve"/>
      <point x="50" y="-2"/>
      <point x="63" y="-10" type="qcurve"/>
      <point x="76" y="-18"/>
      <point x="103" y="-19" type="qcurve"/>
      <point x="113" y="-19"/>
      <point x="115" y="-19" type="qcurve"/>
      <point x="154" y="-19"/>
      <point x="178" y="5" type="qcurve"/>
      <point x="201" y="27"/>
      <point x="207" y="71" type="qcurve"/>
      <point x="211" y="92"/>
      <point x="211" y="121" type="qcurve"/>
      <point x="211" y="134"/>
      <point x="210" y="160" type="qcurve"/>
      <point x="209" y="185"/>
      <point x="209" y="197" type="qcurve"/>
      <point x="209" y="222"/>
      <point x="211" y="233" type="qcurve"/>
      <point x="212" y="235"/>
      <point x="212" y="238" type="qcurve"/>
      <point x="212" y="239"/>
      <point x="212" y="239" type="qcurve"/>
      <point x="211" y="261"/>
      <point x="211" y="286" type="qcurve"/>
      <point x="211" y="326"/>
      <point x="216" y="407" type="qcurve"/>
      <point x="220" y="488"/>
      <point x="220" y="529" type="qcurve"/>
      <point x="220" y="549"/>
      <point x="220" y="552" type="qcurve"/>
      <point x="218" y="569"/>
      <point x="218" y="603" type="qcurve"/>
      <point x="217" y="637"/>
      <point x="217" y="647" type="qcurve"/>
      <point x="234" y="651"/>
      <point x="255" y="661" type="qcurve"/>
      <point x="278" y="672"/>
      <point x="325" y="703" type="qcurve"/>
      <point x="397" y="752"/>
      <point x="429" y="757" type="qcurve"/>
      <point x="434" y="758"/>
      <point x="439" y="758" type="qcurve"/>
      <point x="455" y="758"/>
      <point x="462" y="752" type="qcurve"/>
      <point x="466" y="748"/>
      <point x="466" y="740" type="qcurve"/>
      <point x="466" y="731"/>
      <point x="471" y="725" type="qcurve"/>
      <point x="473" y="722"/>
      <point x="476" y="708" type="qcurve"/>
      <point x="480" y="689"/>
      <point x="485" y="679" type="qcurve"/>
      <point x="493" y="667"/>
      <point x="507" y="667" type="qcurve"/>
      <point x="517" y="667"/>
      <point x="525" y="675" type="qcurve"/>
      <point x="532" y="682"/>
      <point x="532" y="692" type="qcurve"/>
      <point x="532" y="699"/>
      <point x="529" y="705" type="qcurve"/>
      <point x="527" y="707"/>
      <point x="525" y="718" type="qcurve"/>
      <point x="521" y="739"/>
      <point x="515" y="748" type="qcurve"/>
      <point x="513" y="771"/>
      <point x="497" y="787" type="qcurve"/>
      <point x="476" y="808"/>
      <point x="440" y="808" type="qcurve"/>
      <point x="431" y="808"/>
      <point x="421" y="807" type="qcurve"/>
      <point x="400" y="803"/>
      <point x="375" y="792" type="qcurve"/>
      <point x="350" y="780"/>
      <point x="338" y="772" type="qcurve"/>
      <point x="326" y="764"/>
      <point x="297" y="745" type="qcurve"/>
      <point x="253" y="716"/>
      <point x="233" y="706" type="qcurve"/>
      <point x="222" y="700"/>
      <point x="211" y="698" type="qcurve"/>
      <point x="203" y="743"/>
      <point x="178" y="772" type="qcurve"/>
      <point x="177" y="773"/>
      <point x="176" y="774" type="qcurve"/>
      <point x="126" y="822" type="line"/>
      <point x="119" y="829"/>
      <point x="109" y="829" type="qcurve"/>
      <point x="99" y="829"/>
      <point x="91" y="822" type="qcurve"/>
      <point x="84" y="815"/>
      <point x="84" y="805" type="qcurve"/>
      <point x="82" y="749" type="line"/>
      <point x="82" y="748"/>
      <point x="82" y="748" type="qcurve"/>
      <point x="82" y="737"/>
      <point x="90" y="729" type="qcurve"/>
      <point x="95" y="725"/>
      <point x="108" y="707" type="qcurve"/>
      <point x="140" y="662"/>
      <point x="167" y="651" type="qcurve"/>
      <point x="167" y="637"/>
      <point x="168" y="602" type="qcurve"/>
      <point x="168" y="567"/>
      <point x="170" y="549" type="qcurve"/>
      <point x="170" y="539"/>
      <point x="170" y="529" type="qcurve"/>
      <point x="170" y="489"/>
      <point x="166" y="408" type="qcurve"/>
      <point x="161" y="327"/>
    </contour>
  </outline>
</glyph>
<glyph name="G.0" format="2">
  <advance width="569"/>
  <outline>
    <contour>
      <point x="227" y="233" type="qcurve"/>
      <point x="227" y="237"/>
      <point x="226" y="244" type="qcurve"/>
      <point x="225" y="251"/>
      <point x="225" y="253" type="qcurve"/>
      <point x="225" y="255"/>
      <point x="227" y="257" type="qcurve"/>
      <point x="236" y="266"/>
      <point x="254" y="266" type="qcurve"/>
      <point x="265" y="266"/>
      <point x="286" y="267" type="qcurve"/>
      <point x="307" y="268"/>
      <point x="317" y="268" type="qcurve"/>
      <point x="324" y="268"/>
      <point x="329" y="268" type="qcurve"/>
      <point x="335" y="267"/>
      <point x="337" y="265" type="qcurve"/>
      <point x="339" y="254" type="line"/>
      <point x="339" y="232"/>
      <point x="319" y="186" type="qcurve"/>
      <point x="295" y="131"/>
      <point x="295" y="98" type="qcurve"/>
      <point x="295" y="76"/>
      <point x="316" y="54" type="qcurve"/>
      <point x="322" y="48"/>
      <point x="323" y="46" type="qcurve"/>
      <point x="330" y="36"/>
      <point x="342" y="35" type="qcurve"/>
      <point x="388" y="31" type="line"/>
      <point x="389" y="31"/>
      <point x="390" y="31" type="qcurve"/>
      <point x="400" y="31"/>
      <point x="408" y="39" type="qcurve"/>
      <point x="415" y="46"/>
      <point x="415" y="56" type="qcurve"/>
      <point x="415" y="66"/>
      <point x="409" y="73" type="qcurve"/>
      <point x="402" y="80"/>
      <point x="392" y="81" type="qcurve"/>
      <point x="357" y="84" type="line"/>
      <point x="356" y="85"/>
      <point x="353" y="88" type="qcurve"/>
      <point x="345" y="96"/>
      <point x="345" y="98" type="qcurve"/>
      <point x="345" y="120"/>
      <point x="365" y="166" type="qcurve"/>
      <point x="389" y="221"/>
      <point x="389" y="254" type="qcurve"/>
      <point x="389" y="284"/>
      <point x="372" y="301" type="qcurve"/>
      <point x="359" y="314"/>
      <point x="335" y="317" type="qcurve"/>
      <point x="327" y="319"/>
      <point x="317" y="319" type="qcurve"/>
      <point x="306" y="319"/>
      <point x="286" y="318" type="qcurve"/>
      <point x="265" y="316"/>
      <point x="254" y="316" type="qcurve"/>
      <point x="215" y="316"/>
      <point x="192" y="293" type="qcurve"/>
      <point x="175" y="276"/>
      <point x="175" y="253" type="qcurve"/>
      <point x="175" y="249"/>
      <point x="176" y="243" type="qcurve"/>
      <point x="177" y="236"/>
      <point x="177" y="233" type="qcurve"/>
      <point x="177" y="209"/>
      <point x="201" y="173" type="qcurve"/>
      <point x="219" y="147"/>
      <point x="219" y="135" type="qcurve"/>
      <point x="219" y="87"/>
      <point x="194" y="63" type="qcurve"/>
      <point x="194" y="62"/>
      <point x="194" y="62" type="qcurve"/>
      <point x="166" y="32"/>
      <point x="119" y="28" type="qcurve"/>
      <point x="106" y="35"/>
      <point x="94" y="46" type="qcurve"/>
      <point x="51" y="89"/>
      <point x="29" y="200" type="qcurve"/>
      <point x="12" y="284"/>
      <point x="5" y="446" type="qcurve"/>
      <point x="3" y="484"/>
      <point x="3" y="487" type="qcurve"/>
      <point x="1" y="504"/>
      <point x="1" y="522" type="qcurve"/>
      <point x="1" y="576"/>
      <point x="18" y="624" type="qcurve"/>
      <point x="34" y="672"/>
      <point x="65" y="703" type="qcurve"/>
      <point x="111" y="749"/>
      <point x="181" y="749" type="qcurve"/>
      <point x="200" y="749"/>
      <point x="222" y="745" type="qcurve"/>
      <point x="223" y="745"/>
      <point x="225" y="745" type="qcurve"/>
      <point x="244" y="744"/>
      <point x="267" y="732" type="qcurve"/>
      <point x="284" y="723"/>
      <point x="326" y="689" type="qcurve"/>
      <point x="333" y="683"/>
      <point x="342" y="683" type="qcurve"/>
      <point x="352" y="683"/>
      <point x="360" y="691" type="qcurve"/>
      <point x="367" y="698"/>
      <point x="367" y="708" type="qcurve"/>
      <point x="367" y="720"/>
      <point x="358" y="727" type="qcurve"/>
      <point x="356" y="729"/>
      <point x="344" y="739" type="qcurve"/>
      <point x="331" y="749"/>
      <point x="327" y="752" type="qcurve"/>
      <point x="323" y="755"/>
      <point x="312" y="764" type="qcurve"/>
      <point x="300" y="772"/>
      <point x="293" y="776" type="qcurve"/>
      <point x="285" y="779"/>
      <point x="274" y="785" type="qcurve"/>
      <point x="262" y="790"/>
      <point x="251" y="792" type="qcurve"/>
      <point x="240" y="794"/>
      <point x="229" y="795" type="qcurve"/>
      <point x="205" y="799"/>
      <point x="182" y="799" type="qcurve"/>
      <point x="91" y="799"/>
      <point x="30" y="738" type="qcurve"/>
      <point x="-9" y="699"/>
      <point x="-29" y="643" type="qcurve"/>
      <point x="-49" y="586"/>
      <point x="-49" y="523" type="qcurve"/>
      <point x="-49" y="502"/>
      <point x="-47" y="482" type="qcurve"/>
      <point x="-46" y="471"/>
      <point x="-45" y="444" type="qcurve"/>
      <point x="-37" y="278"/>
      <point x="-20" y="190" type="qcurve"/>
      <point x="5" y="64"/>
      <point x="59" y="11" type="qcurve"/>
      <point x="80" y="-10"/>
      <point x="105" y="-20" type="qcurve"/>
      <point x="109" y="-22"/>
      <point x="114" y="-22" type="qcurve"/>
      <point x="114" y="-22"/>
      <point x="115" y="-22" type="qcurve"/>
      <point x="186" y="-20"/>
      <point x="230" y="28" type="qcurve"/>
      <point x="247" y="45"/>
      <point x="259" y="84" type="qcurve"/>
      <point x="270" y="122"/>
      <point x="270" y="135" type="qcurve"/>
      <point x="270" y="136"/>
      <point x="270" y="136" type="qcurve"/>
      <point x="269" y="136"/>
      <point x="269" y="135" type="qcurve"/>
      <point x="269" y="162"/>
      <point x="243" y="201" type="qcurve"/>
      <point x="227" y="224"/>
    </contour>
  </outline>
</glyph>
<glyph name="H.0" format="2">
  <advance width="826"/>
  <outline>
    <contour>
      <point x="282" y="696" type="qcurve"/>
      <point x="279" y="669"/>
      <point x="279" y="643" type="qcurve"/>
      <point x="279" y="626"/>
      <point x="281" y="604" type="qcurve"/>
      <point x="279" y="556"/>
      <point x="279" y="532" type="qcurve"/>
      <point x="279" y="473"/>
      <point x="288" y="304" type="qcurve"/>
      <point x="266" y="284"/>
      <point x="224" y="242" type="qcurve"/>
      <point x="148" y="166"/>
      <point x="127" y="86" type="qcurve"/>
      <point x="126" y="82"/>
      <point x="126" y="74" type="qcurve"/>
      <point x="126" y="52"/>
      <point x="145" y="33" type="qcurve"/>
      <point x="180" y="-2" type="line"/>
      <point x="207" y="-29"/>
      <point x="246" y="-31" type="qcurve"/>
      <point x="273" y="-31"/>
      <point x="290" y="-14" type="qcurve"/>
      <point x="325" y="22" type="line"/>
      <point x="363" y="60"/>
      <point x="363" y="177" type="qcurve"/>
      <point x="363" y="213"/>
      <point x="359" y="293" type="qcurve"/>
      <point x="461" y="375"/>
      <point x="493" y="407" type="qcurve"/>
      <point x="526" y="440" type="line"/>
      <point x="529" y="417"/>
      <point x="531" y="330" type="qcurve"/>
      <point x="532" y="265"/>
      <point x="534" y="231" type="qcurve"/>
      <point x="536" y="197"/>
      <point x="549" y="152" type="qcurve"/>
      <point x="561" y="106"/>
      <point x="586" y="81" type="qcurve"/>
      <point x="622" y="45" type="line"/>
      <point x="640" y="27"/>
      <point x="662" y="19" type="qcurve"/>
      <point x="671" y="15"/>
      <point x="726" y="-13" type="qcurve"/>
      <point x="736" y="-17"/>
      <point x="743" y="-17" type="qcurve"/>
      <point x="757" y="-17"/>
      <point x="767" y="-7" type="qcurve"/>
      <point x="777" y="2"/>
      <point x="777" y="16" type="qcurve"/>
      <point x="777" y="41"/>
      <point x="754" y="48" type="qcurve"/>
      <point x="749" y="50"/>
      <point x="740" y="53" type="qcurve"/>
      <point x="731" y="56"/>
      <point x="726" y="57" type="qcurve"/>
      <point x="662" y="89" type="line"/>
      <point x="657" y="91"/>
      <point x="641" y="100" type="qcurve"/>
      <point x="624" y="126"/>
      <point x="615" y="168" type="qcurve"/>
      <point x="605" y="210"/>
      <point x="604" y="243" type="qcurve"/>
      <point x="602" y="275"/>
      <point x="601" y="330" type="qcurve"/>
      <point x="599" y="453"/>
      <point x="586" y="494" type="qcurve"/>
      <point x="586" y="496"/>
      <point x="585" y="501" type="qcurve"/>
      <point x="584" y="506"/>
      <point x="584" y="508" type="qcurve"/>
      <point x="642" y="591"/>
      <point x="642" y="686" type="qcurve"/>
      <point x="642" y="715"/>
      <point x="636" y="750" type="qcurve"/>
      <point x="636" y="753" type="line"/>
      <point x="635" y="756"/>
      <point x="635" y="758" type="qcurve"/>
      <point x="635" y="780"/>
      <point x="632" y="783" type="qcurve"/>
      <point x="596" y="818" type="line"/>
      <point x="595" y="819"/>
      <point x="594" y="819" type="qcurve"/>
      <point x="588" y="819"/>
      <point x="582" y="813" type="qcurve"/>
      <point x="546" y="778" type="line"/>
      <point x="529" y="761"/>
      <point x="518" y="707" type="qcurve"/>
      <point x="507" y="653"/>
      <point x="507" y="628" type="qcurve"/>
      <point x="506" y="620"/>
      <point x="506" y="605" type="qcurve"/>
      <point x="506" y="591"/>
      <point x="514" y="508" type="qcurve"/>
      <point x="496" y="482"/>
      <point x="475" y="460" type="qcurve"/>
      <point x="449" y="435"/>
      <point x="356" y="361" type="qcurve"/>
      <point x="350" y="475"/>
      <point x="350" y="532" type="qcurve"/>
      <point x="350" y="556"/>
      <point x="352" y="604" type="qcurve"/>
      <point x="350" y="626"/>
      <point x="350" y="643" type="qcurve"/>
      <point x="350" y="696"/>
      <point x="358" y="729" type="qcurve"/>
      <point x="373" y="743" type="line"/>
      <point x="384" y="754"/>
      <point x="384" y="772" type="qcurve"/>
      <point x="348" y="807" type="line"/>
      <point x="343" y="806"/>
      <point x="340" y="802" type="qcurve"/>
      <point x="305" y="767" type="line"/>
      <point x="303" y="765"/>
      <point x="302" y="765" type="qcurve"/>
      <point x="262" y="765"/>
      <point x="200" y="796" type="qcurve"/>
      <point x="138" y="827"/>
      <point x="98" y="827" type="qcurve"/>
      <point x="89" y="827"/>
      <point x="76" y="823" type="qcurve"/>
      <point x="63" y="818"/>
      <point x="60" y="817" type="qcurve"/>
      <point x="25" y="782" type="line"/>
      <point x="25" y="716" type="line"/>
      <point x="38" y="652" type="line"/>
      <point x="43" y="625"/>
      <point x="72" y="625" type="qcurve"/>
      <point x="86" y="625"/>
      <point x="96" y="635" type="qcurve"/>
      <point x="106" y="645"/>
      <point x="106" y="659" type="qcurve"/>
      <point x="106" y="666"/>
      <point x="106" y="666" type="qcurve"/>
      <point x="96" y="716" type="line"/>
      <point x="96" y="757" type="line"/>
      <point x="98" y="757" type="line"/>
      <point x="138" y="757"/>
      <point x="196" y="729" type="qcurve"/>
      <point x="253" y="700"/>
    </contour>
    <contour>
      <point x="291" y="236" type="qcurve"/>
      <point x="292" y="215"/>
      <point x="292" y="177" type="qcurve"/>
      <point x="292" y="86"/>
      <point x="270" y="44" type="qcurve"/>
      <point x="258" y="39"/>
      <point x="246" y="39" type="qcurve"/>
      <point x="224" y="39"/>
      <point x="201" y="52" type="qcurve"/>
      <point x="196" y="64"/>
      <point x="196" y="74" type="qcurve"/>
      <point x="196" y="78"/>
      <point x="198" y="86" type="qcurve"/>
      <point x="217" y="157"/>
      <point x="278" y="225" type="qcurve"/>
      <point x="280" y="227"/>
      <point x="285" y="231" type="qcurve"/>
      <point x="289" y="234"/>
    </contour>
  </outline>
</glyph>
<glyph name="I.0" format="2">
  <advance width="330"/>
  <outline>
    <contour>
      <point x="247" y="144" type="qcurve"/>
      <point x="247" y="86"/>
      <point x="215" y="39" type="qcurve"/>
      <point x="201" y="31"/>
      <point x="187" y="31" type="qcurve"/>
      <point x="179" y="31"/>
      <point x="170" y="34" type="qcurve"/>
      <point x="164" y="46" type="line"/>
      <point x="148" y="112" type="line"/>
      <point x="141" y="138"/>
      <point x="114" y="138" type="qcurve"/>
      <point x="100" y="138"/>
      <point x="90" y="128" type="qcurve"/>
      <point x="80" y="118"/>
      <point x="80" y="104" type="qcurve"/>
      <point x="80" y="99"/>
      <point x="81" y="96" type="qcurve"/>
      <point x="93" y="46" type="line"/>
      <point x="103" y="25"/>
      <point x="116" y="12" type="qcurve"/>
      <point x="151" y="-24" type="line"/>
      <point x="167" y="-40"/>
      <point x="187" y="-40" type="qcurve"/>
      <point x="210" y="-40"/>
      <point x="233" y="-17" type="qcurve"/>
      <point x="269" y="18" type="line"/>
      <point x="290" y="39"/>
      <point x="304" y="74" type="qcurve"/>
      <point x="318" y="109"/>
      <point x="318" y="144" type="qcurve"/>
      <point x="318" y="262"/>
      <point x="270" y="488" type="qcurve"/>
      <point x="224" y="710"/>
      <point x="224" y="822" type="qcurve"/>
      <point x="224" y="824" type="line"/>
      <point x="188" y="859" type="line"/>
      <point x="148" y="854"/>
      <point x="110" y="816" type="qcurve"/>
      <point x="75" y="780" type="line"/>
      <point x="25" y="730"/>
      <point x="25" y="677" type="qcurve"/>
      <point x="25" y="642"/>
      <point x="50" y="617" type="qcurve"/>
      <point x="85" y="581" type="line"/>
      <point x="86" y="580"/>
      <point x="88" y="579" type="qcurve"/>
      <point x="89" y="578"/>
      <point x="90" y="577" type="qcurve"/>
      <point x="181" y="577" type="line"/>
      <point x="186" y="554"/>
      <point x="202" y="477" type="qcurve"/>
      <point x="218" y="399"/>
      <point x="225" y="361" type="qcurve"/>
      <point x="232" y="322"/>
      <point x="240" y="259" type="qcurve"/>
      <point x="247" y="196"/>
    </contour>
    <contour>
      <point x="96" y="677" type="qcurve"/>
      <point x="96" y="718"/>
      <point x="129" y="761" type="qcurve"/>
      <point x="145" y="773"/>
      <point x="154" y="777" type="qcurve"/>
      <point x="156" y="724"/>
      <point x="169" y="647" type="qcurve"/>
      <point x="101" y="647" type="line"/>
      <point x="96" y="662"/>
    </contour>
  </outline>
</glyph>
<glyph name="I.1" format="2">
  <advance width="330"/>
  <outline>
    <contour>
      <point x="228" y="824" type="qcurve"/>
      <point x="228" y="834"/>
      <point x="221" y="842" type="qcurve"/>
      <point x="213" y="849"/>
      <point x="203" y="849" type="qcurve"/>
      <point x="201" y="849"/>
      <point x="200" y="849" type="qcurve"/>
      <point x="152" y="843"/>
      <point x="107" y="798" type="qcurve"/>
      <point x="71" y="762"/>
      <point x="57" y="719" type="qcurve"/>
      <point x="50" y="697"/>
      <point x="50" y="676" type="qcurve"/>
      <point x="50" y="659"/>
      <point x="55" y="644" type="qcurve"/>
      <point x="64" y="615"/>
      <point x="89" y="593" type="qcurve"/>
      <point x="96" y="587"/>
      <point x="105" y="587" type="qcurve"/>
      <point x="191" y="587" type="line"/>
      <point x="194" y="554"/>
      <point x="202" y="482" type="qcurve"/>
      <point x="210" y="409"/>
      <point x="214" y="366" type="qcurve"/>
      <point x="218" y="322"/>
      <point x="222" y="260" type="qcurve"/>
      <point x="226" y="197"/>
      <point x="226" y="144" type="qcurve"/>
      <point x="226" y="114"/>
      <point x="214" y="84" type="qcurve"/>
      <point x="202" y="54"/>
      <point x="184" y="36" type="qcurve"/>
      <point x="172" y="23"/>
      <point x="160" y="21" type="qcurve"/>
      <point x="157" y="20"/>
      <point x="155" y="20" type="qcurve"/>
      <point x="146" y="20"/>
      <point x="137" y="29" type="qcurve"/>
      <point x="128" y="38"/>
      <point x="121" y="54" type="qcurve"/>
      <point x="109" y="102" type="line"/>
      <point x="107" y="110"/>
      <point x="101" y="116" type="qcurve"/>
      <point x="94" y="121"/>
      <point x="85" y="121" type="qcurve"/>
      <point x="75" y="121"/>
      <point x="68" y="114" type="qcurve"/>
      <point x="60" y="106"/>
      <point x="60" y="96" type="qcurve"/>
      <point x="60" y="93"/>
      <point x="61" y="90" type="qcurve"/>
      <point x="73" y="40" type="line"/>
      <point x="73" y="38"/>
      <point x="74" y="36" type="qcurve"/>
      <point x="86" y="10"/>
      <point x="102" y="-6" type="qcurve"/>
      <point x="125" y="-30"/>
      <point x="156" y="-30" type="qcurve"/>
      <point x="164" y="-30"/>
      <point x="172" y="-28" type="qcurve"/>
      <point x="197" y="-22"/>
      <point x="220" y="1" type="qcurve"/>
      <point x="245" y="26"/>
      <point x="261" y="65" type="qcurve"/>
      <point x="276" y="103"/>
      <point x="276" y="144" type="qcurve"/>
      <point x="276" y="262"/>
      <point x="252" y="489" type="qcurve"/>
      <point x="228" y="707"/>
      <point x="228" y="817" type="qcurve"/>
      <point x="228" y="818"/>
      <point x="228" y="821" type="qcurve"/>
      <point x="228" y="823"/>
    </contour>
    <contour>
      <point x="100" y="677" type="qcurve"/>
      <point x="100" y="689"/>
      <point x="105" y="703" type="qcurve"/>
      <point x="115" y="735"/>
      <point x="143" y="763" type="qcurve"/>
      <point x="159" y="779"/>
      <point x="178" y="790" type="qcurve"/>
      <point x="179" y="721"/>
      <point x="186" y="637" type="qcurve"/>
      <point x="115" y="637" type="line"/>
      <point x="106" y="647"/>
      <point x="103" y="659" type="qcurve"/>
      <point x="100" y="667"/>
    </contour>
  </outline>
</glyph>
<glyph name="I.2" format="2">
  <advance width="330"/>
  <outline>
    <contour>
      <point x="208" y="817" type="qcurve"/>
      <point x="208" y="818"/>
      <point x="208" y="821" type="qcurve"/>
      <point x="208" y="824"/>
      <point x="208" y="824" type="qcurve"/>
      <point x="208" y="829"/>
      <point x="203" y="829" type="qcurve"/>
      <point x="203" y="829"/>
      <point x="202" y="829" type="qcurve"/>
      <point x="156" y="823"/>
      <point x="113" y="775" type="qcurve"/>
      <point x="70" y="727"/>
      <point x="70" y="677" type="qcurve"/>
      <point x="70" y="636"/>
      <point x="102" y="608" type="qcurve"/>
      <point x="103" y="607"/>
      <point x="105" y="607" type="qcurve"/>
      <point x="203" y="607" type="line"/>
      <point x="208" y="607"/>
      <point x="208" y="612" type="qcurve"/>
      <point x="208" y="617"/>
      <point x="203" y="617" type="qcurve"/>
      <point x="107" y="617" type="line"/>
      <point x="80" y="641"/>
      <point x="80" y="677" type="qcurve"/>
      <point x="80" y="721"/>
      <point x="118" y="766" type="qcurve"/>
      <point x="156" y="810"/>
      <point x="198" y="818" type="qcurve"/>
      <point x="198" y="817"/>
      <point x="198" y="817" type="qcurve"/>
      <point x="198" y="704"/>
      <point x="222" y="482" type="qcurve"/>
      <point x="246" y="259"/>
      <point x="246" y="144" type="qcurve"/>
      <point x="246" y="91"/>
      <point x="217" y="46" type="qcurve"/>
      <point x="188" y="0"/>
      <point x="155" y="0" type="qcurve"/>
      <point x="124" y="0"/>
      <point x="102" y="48" type="qcurve"/>
      <point x="90" y="97" type="line"/>
      <point x="89" y="101"/>
      <point x="85" y="101" type="qcurve"/>
      <point x="80" y="101"/>
      <point x="80" y="96" type="qcurve"/>
      <point x="80" y="95"/>
      <point x="80" y="95" type="qcurve"/>
      <point x="92" y="45" type="line"/>
      <point x="92" y="44"/>
      <point x="92" y="44" type="qcurve"/>
      <point x="117" y="-10"/>
      <point x="155" y="-10" type="qcurve"/>
      <point x="194" y="-10"/>
      <point x="225" y="39" type="qcurve"/>
      <point x="256" y="88"/>
      <point x="256" y="144" type="qcurve"/>
      <point x="256" y="259"/>
      <point x="232" y="482" type="qcurve"/>
      <point x="208" y="704"/>
    </contour>
  </outline>
</glyph>
<glyph name="J.0" format="2">
  <advance width="420"/>
  <outline>
    <contour>
      <point x="214" y="299" type="qcurve"/>
      <point x="277" y="379"/>
      <point x="283" y="388" type="qcurve"/>
      <point x="286" y="391"/>
      <point x="287" y="394" type="qcurve"/>
      <point x="311" y="466" type="line"/>
      <point x="312" y="470"/>
      <point x="312" y="474" type="qcurve"/>
      <point x="312" y="484"/>
      <point x="305" y="492" type="qcurve"/>
      <point x="297" y="499"/>
      <point x="287" y="499" type="qcurve"/>
      <point x="269" y="499"/>
      <point x="263" y="482" type="qcurve"/>
      <point x="240" y="414" type="line"/>
      <point x="234" y="404"/>
      <point x="214" y="379" type="qcurve"/>
      <point x="214" y="380"/>
      <point x="214" y="381" type="qcurve"/>
      <point x="214" y="382"/>
      <point x="214" y="382" type="qcurve"/>
      <point x="214" y="443"/>
      <point x="187" y="555" type="qcurve"/>
      <point x="162" y="662"/>
      <point x="162" y="717" type="qcurve"/>
      <point x="162" y="720"/>
      <point x="162" y="727" type="qcurve"/>
      <point x="162" y="733"/>
      <point x="162" y="736" type="qcurve"/>
      <point x="162" y="739"/>
      <point x="161" y="742" type="qcurve"/>
      <point x="161" y="745"/>
      <point x="160" y="754" type="qcurve"/>
      <point x="158" y="763"/>
      <point x="157" y="775" type="qcurve"/>
      <point x="156" y="786"/>
      <point x="155" y="790" type="qcurve"/>
      <point x="151" y="817"/>
      <point x="129" y="817" type="qcurve"/>
      <point x="119" y="817"/>
      <point x="111" y="810" type="qcurve"/>
      <point x="104" y="802"/>
      <point x="104" y="786" type="qcurve"/>
      <point x="104" y="781"/>
      <point x="104" y="772" type="qcurve"/>
      <point x="104" y="771"/>
      <point x="103" y="768" type="qcurve"/>
      <point x="100" y="757"/>
      <point x="100" y="748" type="qcurve"/>
      <point x="100" y="734"/>
      <point x="78" y="712" type="qcurve"/>
      <point x="72" y="705"/>
      <point x="57" y="692" type="qcurve"/>
      <point x="42" y="679"/>
      <point x="35" y="672" type="qcurve"/>
      <point x="-4" y="633"/>
      <point x="-4" y="594" type="qcurve"/>
      <point x="-4" y="565"/>
      <point x="10" y="532" type="qcurve"/>
      <point x="23" y="502"/>
      <point x="42" y="483" type="qcurve"/>
      <point x="66" y="458"/>
      <point x="96" y="457" type="qcurve"/>
      <point x="100" y="456"/>
      <point x="105" y="456" type="qcurve"/>
      <point x="125" y="456"/>
      <point x="147" y="478" type="qcurve"/>
      <point x="150" y="481"/>
      <point x="152" y="483" type="qcurve"/>
      <point x="164" y="425"/>
      <point x="164" y="382" type="qcurve"/>
      <point x="164" y="352"/>
      <point x="164" y="316" type="qcurve"/>
      <point x="103" y="237"/>
      <point x="69" y="189" type="qcurve"/>
      <point x="41" y="149"/>
      <point x="27" y="123" type="qcurve"/>
      <point x="19" y="110"/>
      <point x="16" y="100" type="qcurve"/>
      <point x="12" y="89"/>
      <point x="12" y="80" type="qcurve"/>
      <point x="12" y="64"/>
      <point x="22" y="46" type="qcurve"/>
      <point x="32" y="26"/>
      <point x="50" y="9" type="qcurve"/>
      <point x="65" y="-6"/>
      <point x="80" y="-14" type="qcurve"/>
      <point x="96" y="-23"/>
      <point x="111" y="-23" type="qcurve"/>
      <point x="150" y="-23"/>
      <point x="184" y="11" type="qcurve"/>
      <point x="210" y="38"/>
      <point x="214" y="67" type="qcurve"/>
      <point x="214" y="69"/>
      <point x="215" y="72" type="qcurve"/>
      <point x="215" y="75"/>
      <point x="216" y="78" type="qcurve"/>
      <point x="216" y="80"/>
      <point x="216" y="84" type="qcurve"/>
      <point x="216" y="103"/>
    </contour>
    <contour>
      <point x="166" y="85" type="qcurve"/>
      <point x="164" y="75"/>
      <point x="164" y="72" type="qcurve"/>
      <point x="162" y="60"/>
      <point x="149" y="47" type="qcurve"/>
      <point x="129" y="27"/>
      <point x="111" y="27" type="qcurve"/>
      <point x="108" y="27"/>
      <point x="102" y="31" type="qcurve"/>
      <point x="80" y="44"/>
      <point x="66" y="69" type="qcurve"/>
      <point x="63" y="76"/>
      <point x="62" y="80" type="qcurve"/>
      <point x="64" y="86" type="line"/>
      <point x="75" y="112"/>
      <point x="123" y="178" type="qcurve"/>
      <point x="138" y="199"/>
      <point x="165" y="235" type="qcurve"/>
      <point x="166" y="135"/>
    </contour>
    <contour>
      <point x="113" y="676" type="qcurve"/>
      <point x="118" y="632"/>
      <point x="141" y="533" type="qcurve"/>
      <point x="128" y="530"/>
      <point x="112" y="514" type="qcurve"/>
      <point x="107" y="509"/>
      <point x="104" y="507" type="qcurve"/>
      <point x="101" y="507"/>
      <point x="99" y="507" type="qcurve"/>
      <point x="88" y="507"/>
      <point x="77" y="518" type="qcurve"/>
      <point x="65" y="530"/>
      <point x="56" y="551" type="qcurve"/>
      <point x="46" y="576"/>
      <point x="46" y="594" type="qcurve"/>
      <point x="46" y="612"/>
      <point x="70" y="636" type="qcurve"/>
      <point x="77" y="643"/>
      <point x="92" y="656" type="qcurve"/>
      <point x="107" y="669"/>
    </contour>
  </outline>
</glyph>
<glyph name="K.0" format="2">
  <advance width="896"/>
  <outline>
    <contour>
      <point x="60" y="707" type="qcurve"/>
      <point x="108" y="707" type="line"/>
      <point x="156" y="707"/>
      <point x="204" y="727" type="qcurve"/>
      <point x="213" y="636"/>
      <point x="213" y="523" type="qcurve"/>
      <point x="213" y="296"/>
      <point x="180" y="148" type="qcurve"/>
      <point x="132" y="46"/>
      <point x="107" y="-4" type="qcurve"/>
      <point x="142" y="-39" type="line"/>
      <point x="150" y="-33"/>
      <point x="154" y="-29" type="qcurve"/>
      <point x="190" y="6" type="line"/>
      <point x="225" y="41"/>
      <point x="250" y="148" type="qcurve"/>
      <point x="299" y="251"/>
      <point x="345" y="326" type="qcurve"/>
      <point x="367" y="244"/>
      <point x="451" y="160" type="qcurve"/>
      <point x="486" y="124" type="line"/>
      <point x="544" y="66"/>
      <point x="614" y="31" type="qcurve"/>
      <point x="683" y="-5"/>
      <point x="752" y="-5" type="qcurve"/>
      <point x="766" y="-5"/>
      <point x="774" y="3" type="qcurve"/>
      <point x="810" y="39" type="line"/>
      <point x="816" y="45"/>
      <point x="823" y="62" type="qcurve"/>
      <point x="829" y="78"/>
      <point x="833" y="83" type="qcurve"/>
      <point x="838" y="87" type="line"/>
      <point x="845" y="94"/>
      <point x="845" y="105" type="qcurve"/>
      <point x="845" y="116"/>
      <point x="838" y="124" type="qcurve"/>
      <point x="830" y="131"/>
      <point x="820" y="131" type="qcurve"/>
      <point x="812" y="131"/>
      <point x="802" y="123" type="qcurve"/>
      <point x="767" y="88" type="line"/>
      <point x="762" y="83"/>
      <point x="754" y="65" type="qcurve"/>
      <point x="752" y="65" type="line"/>
      <point x="687" y="65"/>
      <point x="621" y="96" type="qcurve"/>
      <point x="555" y="127"/>
      <point x="504" y="178" type="qcurve"/>
      <point x="460" y="222"/>
      <point x="435" y="273" type="qcurve"/>
      <point x="410" y="324"/>
      <point x="410" y="366" type="qcurve"/>
      <point x="410" y="371" type="line"/>
      <point x="418" y="371" type="line"/>
      <point x="480" y="371"/>
      <point x="541" y="394" type="qcurve"/>
      <point x="601" y="416"/>
      <point x="641" y="456" type="qcurve"/>
      <point x="677" y="491" type="line"/>
      <point x="731" y="545"/>
      <point x="731" y="618" type="qcurve"/>
      <point x="731" y="664"/>
      <point x="712" y="706" type="qcurve"/>
      <point x="676" y="741" type="line"/>
      <point x="660" y="741"/>
      <point x="610" y="691" type="qcurve"/>
      <point x="575" y="656" type="line"/>
      <point x="547" y="628"/>
      <point x="497" y="574" type="qcurve"/>
      <point x="494" y="571" type="line"/>
      <point x="458" y="545"/>
      <point x="425" y="512" type="qcurve"/>
      <point x="390" y="476" type="line"/>
      <point x="329" y="415"/>
      <point x="276" y="330" type="qcurve"/>
      <point x="284" y="431"/>
      <point x="284" y="523" type="qcurve"/>
      <point x="284" y="666"/>
      <point x="270" y="776" type="qcurve"/>
      <point x="234" y="811" type="line"/>
      <point x="216" y="802" type="line"/>
      <point x="199" y="794"/>
      <point x="168" y="786" type="qcurve"/>
      <point x="136" y="777"/>
      <point x="108" y="777" type="qcurve"/>
      <point x="60" y="777" type="line"/>
      <point x="45" y="777"/>
      <point x="35" y="767" type="qcurve"/>
      <point x="25" y="757"/>
      <point x="25" y="742" type="qcurve"/>
      <point x="25" y="727"/>
      <point x="35" y="717" type="qcurve"/>
      <point x="45" y="707"/>
    </contour>
    <contour>
      <point x="661" y="618" type="qcurve"/>
      <point x="661" y="559"/>
      <point x="622" y="510" type="qcurve"/>
      <point x="542" y="445"/>
      <point x="428" y="442" type="qcurve"/>
      <point x="433" y="448"/>
      <point x="443" y="458" type="qcurve"/>
      <point x="472" y="485"/>
      <point x="494" y="501" type="qcurve"/>
      <point x="502" y="507"/>
      <point x="511" y="516" type="qcurve"/>
      <point x="546" y="551" type="line"/>
      <point x="559" y="564"/>
      <point x="590" y="596" type="qcurve"/>
      <point x="620" y="628"/>
      <point x="627" y="636" type="qcurve"/>
      <point x="647" y="655"/>
      <point x="656" y="661" type="qcurve"/>
      <point x="661" y="636"/>
    </contour>
  </outline>
</glyph>
<glyph name="L.0" format="2">
  <advance width="663"/>
  <outline>
    <contour>
      <point x="187" y="165" type="qcurve"/>
      <point x="155" y="189"/>
      <point x="116" y="189" type="qcurve"/>
      <point x="113" y="189" type="line"/>
      <point x="111" y="189"/>
      <point x="103" y="191" type="qcurve"/>
      <point x="94" y="192"/>
      <point x="91" y="192" type="qcurve"/>
      <point x="79" y="192"/>
      <point x="73" y="186" type="qcurve"/>
      <point x="37" y="151" type="line"/>
      <point x="33" y="147"/>
      <point x="33" y="139" type="qcurve"/>
      <point x="33" y="131"/>
      <point x="35" y="126" type="qcurve"/>
      <point x="42" y="75"/>
      <point x="76" y="41" type="qcurve"/>
      <point x="111" y="5" type="line"/>
      <point x="128" y="-12"/>
      <point x="153" y="-17" type="qcurve"/>
      <point x="167" y="-17"/>
      <point x="179" y="-5" type="qcurve"/>
      <point x="215" y="30" type="line"/>
      <point x="223" y="38"/>
      <point x="231" y="54" type="qcurve"/>
      <point x="258" y="27" type="line"/>
      <point x="313" y="-28"/>
      <point x="364" y="-28" type="qcurve"/>
      <point x="365" y="-28"/>
      <point x="368" y="-27" type="qcurve"/>
      <point x="370" y="-27"/>
      <point x="371" y="-27" type="qcurve"/>
      <point x="491" y="-21"/>
      <point x="535" y="23" type="qcurve"/>
      <point x="570" y="58" type="line"/>
      <point x="604" y="92"/>
      <point x="604" y="152" type="qcurve"/>
      <point x="604" y="158" type="line"/>
      <point x="541" y="221" type="line"/>
      <point x="533" y="229"/>
      <point x="523" y="229" type="qcurve"/>
      <point x="512" y="229"/>
      <point x="505" y="222" type="qcurve"/>
      <point x="498" y="214"/>
      <point x="498" y="204" type="qcurve"/>
      <point x="498" y="193"/>
      <point x="505" y="186" type="qcurve"/>
      <point x="533" y="158" type="line"/>
      <point x="533" y="152" type="line"/>
      <point x="533" y="106"/>
      <point x="515" y="77" type="qcurve"/>
      <point x="471" y="49"/>
      <point x="371" y="43" type="qcurve"/>
      <point x="364" y="43" type="line"/>
      <point x="316" y="43"/>
      <point x="273" y="83" type="qcurve"/>
      <point x="269" y="87"/>
      <point x="261" y="96" type="qcurve"/>
      <point x="253" y="104"/>
      <point x="249" y="108" type="qcurve"/>
      <point x="264" y="177"/>
      <point x="264" y="248" type="qcurve"/>
      <point x="264" y="253" type="line"/>
      <point x="264" y="291"/>
      <point x="253" y="359" type="qcurve"/>
      <point x="242" y="426"/>
      <point x="240" y="446" type="qcurve"/>
      <point x="240" y="458"/>
      <point x="230" y="529" type="qcurve"/>
      <point x="222" y="579"/>
      <point x="220" y="610" type="qcurve"/>
      <point x="255" y="626"/>
      <point x="273" y="644" type="qcurve"/>
      <point x="308" y="680" type="line"/>
      <point x="339" y="711"/>
      <point x="339" y="749" type="qcurve"/>
      <point x="339" y="762"/>
      <point x="334" y="780" type="qcurve"/>
      <point x="299" y="815" type="line"/>
      <point x="298" y="815"/>
      <point x="294" y="816" type="qcurve"/>
      <point x="290" y="816"/>
      <point x="289" y="816" type="qcurve"/>
      <point x="240" y="816"/>
      <point x="213" y="789" type="qcurve"/>
      <point x="178" y="754" type="line"/>
      <point x="149" y="725"/>
      <point x="147" y="662" type="qcurve"/>
      <point x="141" y="661"/>
      <point x="129" y="661" type="qcurve"/>
      <point x="124" y="661" type="line"/>
      <point x="104" y="697"/>
      <point x="95" y="789" type="qcurve"/>
      <point x="93" y="803"/>
      <point x="83" y="812" type="qcurve"/>
      <point x="73" y="821"/>
      <point x="60" y="821" type="qcurve"/>
      <point x="46" y="821"/>
      <point x="36" y="811" type="qcurve"/>
      <point x="25" y="800"/>
      <point x="25" y="786" type="qcurve"/>
      <point x="25" y="782" type="line"/>
      <point x="37" y="672"/>
      <point x="70" y="639" type="qcurve"/>
      <point x="106" y="604" type="line"/>
      <point x="111" y="599"/>
      <point x="123" y="591" type="qcurve"/>
      <point x="129" y="591" type="line"/>
      <point x="144" y="591"/>
      <point x="151" y="592" type="qcurve"/>
      <point x="152" y="578"/>
      <point x="160" y="525" type="qcurve"/>
      <point x="168" y="471"/>
      <point x="169" y="446" type="qcurve"/>
      <point x="171" y="426"/>
      <point x="182" y="359" type="qcurve"/>
      <point x="193" y="291"/>
      <point x="193" y="253" type="qcurve"/>
      <point x="193" y="213"/>
    </contour>
    <contour>
      <point x="253" y="698" type="qcurve"/>
      <point x="239" y="689"/>
      <point x="219" y="680" type="qcurve"/>
      <point x="222" y="711"/>
      <point x="234" y="733" type="qcurve"/>
      <point x="251" y="741"/>
      <point x="268" y="744" type="qcurve"/>
      <point x="266" y="717"/>
    </contour>
    <contour>
      <point x="116" y="119" type="line"/>
      <point x="147" y="119"/>
      <point x="176" y="101" type="qcurve"/>
      <point x="169" y="70"/>
      <point x="160" y="54" type="qcurve"/>
      <point x="158" y="53"/>
      <point x="153" y="53" type="qcurve"/>
      <point x="144" y="54"/>
      <point x="130" y="62" type="qcurve"/>
      <point x="112" y="89"/>
      <point x="107" y="120" type="qcurve"/>
      <point x="108" y="120"/>
      <point x="110" y="120" type="qcurve"/>
      <point x="112" y="119"/>
      <point x="113" y="119" type="qcurve"/>
    </contour>
  </outline>
</glyph>
<glyph name="M.0" format="2">
  <advance width="794"/>
  <outline>
    <contour>
      <point x="602" y="748" type="qcurve"/>
      <point x="602" y="781"/>
      <point x="594" y="789" type="qcurve"/>
      <point x="559" y="824" type="line"/>
      <point x="557" y="826"/>
      <point x="554" y="826" type="qcurve"/>
      <point x="550" y="826"/>
      <point x="544" y="820" type="qcurve"/>
      <point x="508" y="785" type="line"/>
      <point x="484" y="761"/>
      <point x="445" y="663" type="qcurve"/>
      <point x="406" y="565"/>
      <point x="381" y="473" type="qcurve"/>
      <point x="284" y="667"/>
      <point x="284" y="806" type="qcurve"/>
      <point x="284" y="812" type="line"/>
      <point x="213" y="812" type="line"/>
      <point x="198" y="725"/>
      <point x="196" y="541" type="qcurve"/>
      <point x="195" y="455"/>
      <point x="193" y="408" type="qcurve"/>
      <point x="190" y="361"/>
      <point x="182" y="290" type="qcurve"/>
      <point x="173" y="219"/>
      <point x="153" y="163" type="qcurve"/>
      <point x="132" y="107"/>
      <point x="98" y="58" type="qcurve"/>
      <point x="97" y="61"/>
      <point x="95" y="80" type="qcurve"/>
      <point x="93" y="94"/>
      <point x="83" y="103" type="qcurve"/>
      <point x="73" y="112"/>
      <point x="60" y="112" type="qcurve"/>
      <point x="46" y="112"/>
      <point x="36" y="102" type="qcurve"/>
      <point x="25" y="91"/>
      <point x="25" y="77" type="qcurve"/>
      <point x="25" y="74" type="line"/>
      <point x="30" y="24"/>
      <point x="50" y="4" type="qcurve"/>
      <point x="86" y="-31" type="line"/>
      <point x="88" y="-33" type="line"/>
      <point x="124" y="2" type="line"/>
      <point x="164" y="44"/>
      <point x="192" y="97" type="qcurve"/>
      <point x="219" y="150"/>
      <point x="234" y="196" type="qcurve"/>
      <point x="248" y="241"/>
      <point x="256" y="310" type="qcurve"/>
      <point x="263" y="378"/>
      <point x="265" y="421" type="qcurve"/>
      <point x="266" y="463"/>
      <point x="267" y="541" type="qcurve"/>
      <point x="267" y="565" type="line"/>
      <point x="286" y="520"/>
      <point x="363" y="372" type="qcurve"/>
      <point x="434" y="372" type="line"/>
      <point x="434" y="377" type="line"/>
      <point x="434" y="416"/>
      <point x="465" y="517" type="qcurve"/>
      <point x="496" y="617"/>
      <point x="531" y="698" type="qcurve"/>
      <point x="528" y="491"/>
      <point x="528" y="489" type="qcurve"/>
      <point x="528" y="337"/>
      <point x="549" y="228" type="qcurve"/>
      <point x="569" y="118"/>
      <point x="627" y="40" type="qcurve"/>
      <point x="695" y="-39" type="line"/>
      <point x="702" y="-48"/>
      <point x="716" y="-48" type="qcurve"/>
      <point x="727" y="-48"/>
      <point x="735" y="-40" type="qcurve"/>
      <point x="742" y="-32"/>
      <point x="742" y="-21" type="qcurve"/>
      <point x="742" y="-12"/>
      <point x="736" y="-4" type="qcurve"/>
      <point x="698" y="40" type="line"/>
      <point x="640" y="118"/>
      <point x="620" y="228" type="qcurve"/>
      <point x="599" y="337"/>
      <point x="599" y="489" type="qcurve"/>
      <point x="599" y="532"/>
      <point x="601" y="619" type="qcurve"/>
      <point x="602" y="705"/>
    </contour>
  </outline>
</glyph>
<glyph name="N.0" format="2">
  <advance width="660"/>
  <outline>
    <contour>
      <point x="204" y="172" type="qcurve"/>
      <point x="190" y="404"/>
      <point x="190" y="429" type="qcurve"/>
      <point x="190" y="591"/>
      <point x="246" y="690" type="qcurve"/>
      <point x="244" y="676"/>
      <point x="244" y="670" type="qcurve"/>
      <point x="244" y="663"/>
      <point x="245" y="660" type="qcurve"/>
      <point x="258" y="604"/>
      <point x="258" y="538" type="qcurve"/>
      <point x="258" y="502"/>
      <point x="254" y="429" type="qcurve"/>
      <point x="249" y="355"/>
      <point x="249" y="319" type="qcurve"/>
      <point x="249" y="230"/>
      <point x="269" y="172" type="qcurve"/>
      <point x="272" y="162"/>
      <point x="300" y="96" type="qcurve"/>
      <point x="327" y="29"/>
      <point x="327" y="18" type="qcurve"/>
      <point x="398" y="18" type="line"/>
      <point x="405" y="97"/>
      <point x="418" y="171" type="qcurve"/>
      <point x="431" y="245"/>
      <point x="456" y="334" type="qcurve"/>
      <point x="481" y="422"/>
      <point x="493" y="464" type="qcurve"/>
      <point x="505" y="506"/>
      <point x="542" y="617" type="qcurve"/>
      <point x="579" y="727"/>
      <point x="586" y="748" type="qcurve"/>
      <point x="604" y="772" type="line"/>
      <point x="610" y="780"/>
      <point x="610" y="789" type="qcurve"/>
      <point x="610" y="801"/>
      <point x="602" y="809" type="qcurve"/>
      <point x="593" y="817"/>
      <point x="581" y="817" type="qcurve"/>
      <point x="567" y="817"/>
      <point x="559" y="806" type="qcurve"/>
      <point x="552" y="797"/>
      <point x="537" y="778" type="qcurve"/>
      <point x="522" y="758"/>
      <point x="515" y="748" type="qcurve"/>
      <point x="504" y="715"/>
      <point x="478" y="637" type="qcurve"/>
      <point x="452" y="559"/>
      <point x="438" y="515" type="qcurve"/>
      <point x="424" y="471"/>
      <point x="405" y="405" type="qcurve"/>
      <point x="385" y="338"/>
      <point x="371" y="277" type="qcurve"/>
      <point x="357" y="216"/>
      <point x="346" y="155" type="qcurve"/>
      <point x="342" y="165"/>
      <point x="340" y="172" type="qcurve"/>
      <point x="319" y="232"/>
      <point x="319" y="319" type="qcurve"/>
      <point x="319" y="355"/>
      <point x="324" y="429" type="qcurve"/>
      <point x="328" y="502"/>
      <point x="328" y="538" type="qcurve"/>
      <point x="328" y="608"/>
      <point x="316" y="660" type="qcurve"/>
      <point x="315" y="663"/>
      <point x="315" y="670" type="qcurve"/>
      <point x="315" y="680"/>
      <point x="319" y="709" type="qcurve"/>
      <point x="322" y="738"/>
      <point x="322" y="748" type="qcurve"/>
      <point x="322" y="762"/>
      <point x="317" y="767" type="qcurve"/>
      <point x="282" y="803" type="line"/>
      <point x="280" y="805"/>
      <point x="278" y="805" type="qcurve"/>
      <point x="272" y="805"/>
      <point x="261" y="794" type="qcurve"/>
      <point x="225" y="758" type="line"/>
      <point x="221" y="754" type="line"/>
      <point x="164" y="692"/>
      <point x="142" y="613" type="qcurve"/>
      <point x="120" y="533"/>
      <point x="120" y="429" type="qcurve"/>
      <point x="120" y="388"/>
      <point x="133" y="172" type="qcurve"/>
      <point x="133" y="164"/>
      <point x="134" y="148" type="qcurve"/>
      <point x="134" y="132"/>
      <point x="134" y="123" type="qcurve"/>
      <point x="134" y="61"/>
      <point x="120" y="31" type="qcurve"/>
      <point x="119" y="31"/>
      <point x="106" y="28" type="qcurve"/>
      <point x="102" y="52"/>
      <point x="98" y="60" type="qcurve"/>
      <point x="88" y="84" type="line"/>
      <point x="79" y="105"/>
      <point x="58" y="105" type="qcurve"/>
      <point x="44" y="105"/>
      <point x="35" y="96" type="qcurve"/>
      <point x="25" y="86"/>
      <point x="25" y="72" type="qcurve"/>
      <point x="25" y="64"/>
      <point x="27" y="60" type="qcurve"/>
      <point x="29" y="55"/>
      <point x="35" y="31" type="qcurve"/>
      <point x="40" y="7"/>
      <point x="48" y="-1" type="qcurve"/>
      <point x="83" y="-36" type="line"/>
      <point x="89" y="-42"/>
      <point x="97" y="-43" type="qcurve"/>
      <point x="124" y="-43"/>
      <point x="141" y="-26" type="qcurve"/>
      <point x="176" y="9" type="line"/>
      <point x="205" y="38"/>
      <point x="205" y="123" type="qcurve"/>
      <point x="205" y="132"/>
      <point x="205" y="148" type="qcurve"/>
      <point x="204" y="164"/>
    </contour>
  </outline>
</glyph>
<glyph name="O.0" format="2">
  <advance width="563"/>
  <outline>
    <contour>
      <point x="96" y="289" type="qcurve"/>
      <point x="96" y="334"/>
      <point x="102" y="421" type="qcurve"/>
      <point x="107" y="507"/>
      <point x="108" y="532" type="qcurve"/>
      <point x="108" y="578" type="line"/>
      <point x="108" y="656"/>
      <point x="147" y="710" type="qcurve"/>
      <point x="180" y="733"/>
      <point x="224" y="733" type="qcurve"/>
      <point x="261" y="733"/>
      <point x="292" y="712" type="qcurve"/>
      <point x="328" y="660"/>
      <point x="328" y="592" type="qcurve"/>
      <point x="328" y="529"/>
      <point x="296" y="484" type="qcurve"/>
      <point x="267" y="462" type="line"/>
      <point x="256" y="454"/>
      <point x="256" y="439" type="qcurve"/>
      <point x="256" y="427"/>
      <point x="264" y="419" type="qcurve"/>
      <point x="272" y="411"/>
      <point x="284" y="411" type="qcurve"/>
      <point x="294" y="411"/>
      <point x="301" y="417" type="qcurve"/>
      <point x="311" y="425"/>
      <point x="315" y="429" type="qcurve"/>
      <point x="351" y="465" type="line"/>
      <point x="386" y="500"/>
      <point x="395" y="551" type="qcurve"/>
      <point x="427" y="466"/>
      <point x="433" y="376" type="qcurve"/>
      <point x="433" y="328"/>
      <point x="405" y="216" type="qcurve"/>
      <point x="376" y="103"/>
      <point x="335" y="45" type="qcurve"/>
      <point x="319" y="37"/>
      <point x="309" y="37" type="qcurve"/>
      <point x="289" y="37"/>
      <point x="249" y="43" type="qcurve"/>
      <point x="208" y="49"/>
      <point x="189" y="49" type="qcurve"/>
      <point x="177" y="49" type="line"/>
      <point x="173" y="51"/>
      <point x="166" y="57" type="qcurve"/>
      <point x="159" y="63"/>
      <point x="156" y="65" type="qcurve"/>
      <point x="96" y="140"/>
    </contour>
    <contour>
      <point x="189" y="-21" type="line"/>
      <point x="208" y="-21"/>
      <point x="249" y="-27" type="qcurve"/>
      <point x="289" y="-33"/>
      <point x="309" y="-33" type="qcurve"/>
      <point x="332" y="-33"/>
      <point x="353" y="-12" type="qcurve"/>
      <point x="388" y="24" type="line"/>
      <point x="435" y="71"/>
      <point x="470" y="196" type="qcurve"/>
      <point x="504" y="320"/>
      <point x="504" y="376" type="qcurve"/>
      <point x="493" y="536"/>
      <point x="390" y="706" type="qcurve"/>
      <point x="371" y="737" type="line"/>
      <point x="363" y="752"/>
      <point x="345" y="752" type="qcurve"/>
      <point x="335" y="752"/>
      <point x="330" y="748" type="qcurve"/>
      <point x="311" y="767" type="line"/>
      <point x="274" y="804"/>
      <point x="224" y="804" type="qcurve"/>
      <point x="210" y="804"/>
      <point x="197" y="801" type="qcurve"/>
      <point x="156" y="794"/>
      <point x="128" y="765" type="qcurve"/>
      <point x="93" y="729" type="line"/>
      <point x="37" y="673"/>
      <point x="37" y="578" type="qcurve"/>
      <point x="37" y="532" type="line"/>
      <point x="36" y="507"/>
      <point x="31" y="421" type="qcurve"/>
      <point x="25" y="334"/>
      <point x="25" y="289" type="qcurve"/>
      <point x="25" y="123"/>
      <point x="102" y="46" type="qcurve"/>
      <point x="137" y="11" type="line"/>
      <point x="153" y="-5"/>
      <point x="177" y="-21" type="qcurve"/>
    </contour>
  </outline>
</glyph>
<glyph name="O.1" format="2">
  <advance width="563"/>
  <outline>
    <contour>
      <point x="323" y="27" type="qcurve"/>
      <point x="304" y="27"/>
      <point x="264" y="33" type="qcurve"/>
      <point x="223" y="39"/>
      <point x="203" y="39" type="qcurve"/>
      <point x="199" y="39" type="line"/>
      <point x="183" y="50"/>
      <point x="169" y="64" type="qcurve"/>
      <point x="110" y="123"/>
      <point x="102" y="238" type="qcurve"/>
      <point x="100" y="262"/>
      <point x="100" y="289" type="qcurve"/>
      <point x="100" y="333"/>
      <point x="106" y="418" type="qcurve"/>
      <point x="111" y="502"/>
      <point x="112" y="531" type="qcurve"/>
      <point x="112" y="532"/>
      <point x="112" y="532" type="qcurve"/>
      <point x="112" y="578" type="line"/>
      <point x="112" y="617"/>
      <point x="125" y="653" type="qcurve"/>
      <point x="138" y="689"/>
      <point x="161" y="712" type="qcurve"/>
      <point x="184" y="735"/>
      <point x="216" y="741" type="qcurve"/>
      <point x="228" y="744"/>
      <point x="239" y="744" type="qcurve"/>
      <point x="278" y="744"/>
      <point x="308" y="714" type="qcurve"/>
      <point x="329" y="693"/>
      <point x="341" y="661" type="qcurve"/>
      <point x="353" y="628"/>
      <point x="353" y="592" type="qcurve"/>
      <point x="353" y="512"/>
      <point x="300" y="472" type="qcurve"/>
      <point x="290" y="464"/>
      <point x="290" y="452" type="qcurve"/>
      <point x="290" y="442"/>
      <point x="298" y="435" type="qcurve"/>
      <point x="305" y="427"/>
      <point x="315" y="427" type="qcurve"/>
      <point x="324" y="427"/>
      <point x="331" y="432" type="qcurve"/>
      <point x="340" y="439"/>
      <point x="348" y="447" type="qcurve"/>
      <point x="402" y="501"/>
      <point x="403" y="588" type="qcurve"/>
      <point x="451" y="478"/>
      <point x="458" y="375" type="qcurve"/>
      <point x="458" y="354"/>
      <point x="448" y="299" type="qcurve"/>
      <point x="437" y="243"/>
      <point x="421" y="190" type="qcurve"/>
      <point x="404" y="133"/>
      <point x="384" y="93" type="qcurve"/>
      <point x="367" y="59"/>
      <point x="350" y="41" type="qcurve"/>
      <point x="335" y="27"/>
    </contour>
    <contour>
      <point x="62" y="532" type="line"/>
      <point x="61" y="503"/>
      <point x="56" y="419" type="qcurve"/>
      <point x="50" y="335"/>
      <point x="50" y="290" type="qcurve"/>
      <point x="50" y="260"/>
      <point x="52" y="235" type="qcurve"/>
      <point x="62" y="101"/>
      <point x="134" y="28" type="qcurve"/>
      <point x="154" y="9"/>
      <point x="178" y="-7" type="qcurve"/>
      <point x="184" y="-11"/>
      <point x="191" y="-11" type="qcurve"/>
      <point x="203" y="-11" type="line"/>
      <point x="219" y="-11"/>
      <point x="256" y="-16" type="qcurve"/>
      <point x="300" y="-23"/>
      <point x="323" y="-23" type="qcurve"/>
      <point x="356" y="-23"/>
      <point x="385" y="6" type="qcurve"/>
      <point x="408" y="29"/>
      <point x="429" y="71" type="qcurve"/>
      <point x="451" y="114"/>
      <point x="469" y="176" type="qcurve"/>
      <point x="487" y="235"/>
      <point x="498" y="292" type="qcurve"/>
      <point x="508" y="348"/>
      <point x="508" y="376" type="qcurve"/>
      <point x="508" y="377"/>
      <point x="508" y="378" type="qcurve"/>
      <point x="497" y="544"/>
      <point x="391" y="719" type="qcurve"/>
      <point x="384" y="731"/>
      <point x="369" y="731" type="qcurve"/>
      <point x="365" y="731"/>
      <point x="361" y="729" type="qcurve"/>
      <point x="353" y="740"/>
      <point x="343" y="750" type="qcurve"/>
      <point x="299" y="794"/>
      <point x="238" y="794" type="qcurve"/>
      <point x="223" y="794"/>
      <point x="207" y="791" type="qcurve"/>
      <point x="160" y="782"/>
      <point x="125" y="747" type="qcurve"/>
      <point x="62" y="684"/>
      <point x="62" y="578" type="qcurve"/>
    </contour>
  </outline>
</glyph>
<glyph name="O.2" format="2">
  <advance width="563"/>
  <outline>
    <contour>
      <point x="323" y="-3" type="qcurve"/>
      <point x="384" y="-3"/>
      <point x="435" y="136" type="qcurve"/>
      <point x="458" y="200"/>
      <point x="473" y="273" type="qcurve"/>
      <point x="488" y="345"/>
      <point x="488" y="376" type="qcurve"/>
      <point x="477" y="538"/>
      <point x="374" y="709" type="qcurve"/>
      <point x="372" y="711"/>
      <point x="369" y="711" type="qcurve"/>
      <point x="364" y="711"/>
      <point x="364" y="706" type="qcurve"/>
      <point x="364" y="705"/>
      <point x="365" y="703" type="qcurve"/>
      <point x="468" y="535"/>
      <point x="478" y="376" type="qcurve"/>
      <point x="478" y="346"/>
      <point x="463" y="274" type="qcurve"/>
      <point x="448" y="202"/>
      <point x="425" y="139" type="qcurve"/>
      <point x="377" y="7"/>
      <point x="323" y="7" type="qcurve"/>
      <point x="304" y="7"/>
      <point x="264" y="13" type="qcurve"/>
      <point x="223" y="19"/>
      <point x="203" y="19" type="qcurve"/>
      <point x="193" y="19" type="line"/>
      <point x="129" y="61"/>
      <point x="105" y="128" type="qcurve"/>
      <point x="80" y="195"/>
      <point x="80" y="289" type="qcurve"/>
      <point x="80" y="334"/>
      <point x="86" y="418" type="qcurve"/>
      <point x="91" y="502"/>
      <point x="92" y="532" type="qcurve"/>
      <point x="92" y="578" type="line"/>
      <point x="92" y="644"/>
      <point x="124" y="697" type="qcurve"/>
      <point x="156" y="750"/>
      <point x="212" y="761" type="qcurve"/>
      <point x="226" y="764"/>
      <point x="239" y="764" type="qcurve"/>
      <point x="299" y="764"/>
      <point x="336" y="713" type="qcurve"/>
      <point x="373" y="661"/>
      <point x="373" y="592" type="qcurve"/>
      <point x="373" y="502"/>
      <point x="312" y="456" type="qcurve"/>
      <point x="310" y="454"/>
      <point x="310" y="452" type="qcurve"/>
      <point x="310" y="447"/>
      <point x="315" y="447" type="qcurve"/>
      <point x="317" y="447"/>
      <point x="318" y="448" type="qcurve"/>
      <point x="351" y="472"/>
      <point x="367" y="511" type="qcurve"/>
      <point x="383" y="549"/>
      <point x="383" y="592" type="qcurve"/>
      <point x="383" y="664"/>
      <point x="344" y="719" type="qcurve"/>
      <point x="304" y="774"/>
      <point x="239" y="774" type="qcurve"/>
      <point x="225" y="774"/>
      <point x="211" y="771" type="qcurve"/>
      <point x="149" y="759"/>
      <point x="116" y="703" type="qcurve"/>
      <point x="82" y="647"/>
      <point x="82" y="578" type="qcurve"/>
      <point x="82" y="532" type="line"/>
      <point x="81" y="503"/>
      <point x="76" y="419" type="qcurve"/>
      <point x="70" y="334"/>
      <point x="70" y="289" type="qcurve"/>
      <point x="70" y="193"/>
      <point x="96" y="124" type="qcurve"/>
      <point x="121" y="54"/>
      <point x="189" y="10" type="qcurve"/>
      <point x="190" y="9"/>
      <point x="191" y="9" type="qcurve"/>
      <point x="203" y="9" type="line"/>
      <point x="222" y="9"/>
      <point x="263" y="3" type="qcurve"/>
      <point x="303" y="-3"/>
    </contour>
  </outline>
</glyph>
